<?xml version="1.0" encoding="UTF-8"?> <svg xmlns="http://www.w3.org/2000/svg" width="166" height="95" viewBox="0 0 166 95" fill="none"><path d="M-14.1871 68.6352C-9.86883 74.2677 -4.51796 77.0839 1.86554 77.0839C8.24904 77.0839 13.5999 74.2677 17.9182 68.6352C22.2364 62.9088 24.3955 54.6947 24.3955 43.993C24.3955 33.2912 22.2364 25.1241 17.9182 19.4916C13.5999 13.7652 8.24904 10.902 1.86554 10.902C-4.51796 10.902 -9.86883 13.7652 -14.1871 19.4916C-18.5053 25.1241 -20.6645 33.2912 -20.6645 43.993C-20.6645 54.6947 -18.5053 62.9088 -14.1871 68.6352ZM-27.2826 6.95929C-19.491 -2.14658 -9.77496 -6.69951 1.86554 -6.69951C13.506 -6.69951 23.2221 -2.14658 31.0137 6.95929C38.8053 15.9713 42.7012 28.3159 42.7012 43.993C42.7012 59.6701 38.8053 72.0616 31.0137 81.1675C23.2221 90.1795 13.506 94.6855 1.86554 94.6855C-9.77496 94.6855 -19.491 90.1795 -27.2826 81.1675C-35.0743 72.0616 -38.9701 59.6701 -38.9701 43.993C-38.9701 28.3159 -35.0743 15.9713 -27.2826 6.95929ZM48.9543 93.2773V73.5636H68.668V93.2773H48.9543ZM74.8991 65.1148H93.2048C93.6741 68.1188 95.3169 70.8882 98.1332 73.4228C100.949 75.8635 104.939 77.0839 110.102 77.0839C115.453 77.0839 119.584 75.6758 122.494 72.8595C125.498 69.9494 127 65.9597 127 60.8905C127 56.1967 125.498 52.3479 122.494 49.3439C119.49 46.246 115.359 44.697 110.102 44.697C106.347 44.697 103.156 45.4011 100.527 46.8092C97.9924 48.1235 96.2557 49.5316 95.3169 51.0336H76.5889L82.2214 -5.29139H139.673V12.3102H98.1332L96.021 31.3199H96.7251C100.105 28.973 105.268 27.7995 112.214 27.7995C121.79 27.7995 129.675 30.9444 135.871 37.234C142.161 43.4297 145.305 51.3152 145.305 60.8905C145.305 70.8412 142.02 78.9614 135.449 85.251C128.971 91.5407 120.522 94.6855 110.102 94.6855C104.094 94.6855 98.7434 93.7937 94.0496 92.01C89.4498 90.1325 85.8356 87.6918 83.2071 84.6878C80.5786 81.6838 78.5603 78.539 77.1521 75.2533C75.8379 71.9677 75.0869 68.5882 74.8991 65.1148ZM150.613 93.2773L163.996 71.7417H167.842L154.459 93.2773H150.613ZM149.29 72.88C150.254 71.9161 151.464 71.4341 152.921 71.4341C154.377 71.4341 155.587 71.9161 156.551 72.88C157.515 73.844 157.997 75.0541 157.997 76.5103C157.997 77.9666 157.515 79.1766 156.551 80.1406C155.587 81.1046 154.377 81.5866 152.921 81.5866C151.464 81.5866 150.254 81.1046 149.29 80.1406C148.326 79.1766 147.844 77.9666 147.844 76.5103C147.844 75.0541 148.326 73.844 149.29 72.88ZM151.382 78.1717C151.793 78.6024 152.305 78.8177 152.921 78.8177C153.536 78.8177 154.049 78.6024 154.459 78.1717C154.869 77.7409 155.074 77.1872 155.074 76.5103C155.074 75.8335 154.869 75.2797 154.459 74.849C154.049 74.4183 153.536 74.203 152.921 74.203C152.305 74.203 151.793 74.4183 151.382 74.849C150.972 75.2797 150.767 75.8335 150.767 76.5103C150.767 77.1872 150.972 77.7409 151.382 78.1717ZM161.904 92.139C160.94 91.1751 160.458 89.965 160.458 88.5087C160.458 87.0525 160.94 85.8424 161.904 84.8785C162.868 83.9145 164.078 83.4325 165.534 83.4325C166.991 83.4325 168.201 83.9145 169.165 84.8785C170.129 85.8424 170.611 87.0525 170.611 88.5087C170.611 89.965 170.129 91.1751 169.165 92.139C168.201 93.103 166.991 93.585 165.534 93.585C164.078 93.585 162.868 93.103 161.904 92.139ZM163.996 90.1701C164.406 90.6008 164.919 90.8161 165.534 90.8161C166.15 90.8161 166.662 90.6008 167.073 90.1701C167.483 89.7394 167.688 89.1856 167.688 88.5087C167.688 87.8319 167.483 87.2781 167.073 86.8474C166.662 86.4167 166.15 86.2014 165.534 86.2014C164.919 86.2014 164.406 86.4167 163.996 86.8474C163.586 87.2781 163.381 87.8319 163.381 88.5087C163.381 89.1856 163.586 89.7394 163.996 90.1701Z" fill="white"></path></svg> 