<?xml version="1.0" encoding="UTF-8"?> <svg xmlns="http://www.w3.org/2000/svg" width="203" height="109" viewBox="0 0 203 109" fill="none"><path d="M-15.7832 78.7175C-10.8271 85.1821 -4.68572 88.4144 2.6408 88.4144C9.96732 88.4144 16.1087 85.1821 21.0648 78.7175C26.021 72.1452 28.4991 62.7177 28.4991 50.435C28.4991 38.1523 26.021 28.7787 21.0648 22.3141C16.1087 15.7418 9.96732 12.4556 2.6408 12.4556C-4.68572 12.4556 -10.8271 15.7418 -15.7832 22.3141C-20.7394 28.7787 -23.2175 38.1523 -23.2175 50.435C-23.2175 62.7177 -20.7394 72.1452 -15.7832 78.7175ZM-30.8134 7.93042C-21.8707 -2.52064 -10.7193 -7.74617 2.6408 -7.74617C16.0009 -7.74617 27.1523 -2.52064 36.095 7.93042C45.0376 18.2737 49.5089 32.4419 49.5089 50.435C49.5089 68.428 45.0376 82.6501 36.095 93.1012C27.1523 103.444 16.0009 108.616 2.6408 108.616C-10.7193 108.616 -21.8707 103.444 -30.8134 93.1012C-39.756 82.6501 -44.2274 68.428 -44.2274 50.435C-44.2274 32.4419 -39.756 18.2737 -30.8134 7.93042ZM56.6858 107V84.374H79.3118V107H56.6858ZM86.4635 74.6771H107.473C108.012 78.1249 109.898 81.3033 113.13 84.2124C116.362 87.0137 120.941 88.4144 126.867 88.4144C133.008 88.4144 137.749 86.7982 141.089 83.5659C144.537 80.2259 146.261 75.6468 146.261 69.8287C146.261 64.4416 144.537 60.0241 141.089 56.5763C137.641 53.0208 132.901 51.2431 126.867 51.2431C122.557 51.2431 118.894 52.0511 115.877 53.6673C112.968 55.1757 110.975 56.7918 109.898 58.5157H88.4028L94.8674 -6.13003H160.806V14.0718H113.13L110.706 35.8897H111.514C115.392 33.1961 121.318 31.8493 129.291 31.8493C140.281 31.8493 149.331 35.4587 156.442 42.6775C163.661 49.7885 167.271 58.8389 167.271 69.8287C167.271 81.2495 163.5 90.5692 155.958 97.788C148.523 105.007 138.826 108.616 126.867 108.616C119.971 108.616 113.83 107.593 108.443 105.545C103.164 103.391 99.0155 100.589 95.9987 97.1415C92.9819 93.6938 90.6654 90.0844 89.0493 86.3134C87.5409 82.5424 86.6789 78.6636 86.4635 74.6771ZM173.363 107L188.722 82.283H193.136L177.776 107H173.363ZM171.844 83.5895C172.951 82.4831 174.34 81.9299 176.011 81.9299C177.682 81.9299 179.071 82.4831 180.177 83.5895C181.284 84.6958 181.837 86.0847 181.837 87.756C181.837 89.4274 181.284 90.8162 180.177 91.9226C179.071 93.029 177.682 93.5822 176.011 93.5822C174.34 93.5822 172.951 93.029 171.844 91.9226C170.738 90.8162 170.185 89.4274 170.185 87.756C170.185 86.0847 170.738 84.6958 171.844 83.5895ZM174.245 89.6628C174.716 90.1571 175.305 90.4043 176.011 90.4043C176.717 90.4043 177.306 90.1571 177.776 89.6628C178.247 89.1684 178.483 88.5329 178.483 87.756C178.483 86.9792 178.247 86.3436 177.776 85.8493C177.306 85.355 176.717 85.1078 176.011 85.1078C175.305 85.1078 174.716 85.355 174.245 85.8493C173.775 86.3436 173.539 86.9792 173.539 87.756C173.539 88.5329 173.775 89.1684 174.245 89.6628ZM186.321 105.694C185.215 104.587 184.662 103.198 184.662 101.527C184.662 99.8556 185.215 98.4667 186.321 97.3604C187.428 96.254 188.817 95.7008 190.488 95.7008C192.159 95.7008 193.548 96.254 194.655 97.3604C195.761 98.4667 196.314 99.8556 196.314 101.527C196.314 103.198 195.761 104.587 194.655 105.694C193.548 106.8 192.159 107.353 190.488 107.353C188.817 107.353 187.428 106.8 186.321 105.694ZM188.722 103.434C189.193 103.928 189.782 104.175 190.488 104.175C191.194 104.175 191.783 103.928 192.253 103.434C192.724 102.939 192.96 102.304 192.96 101.527C192.96 100.75 192.724 100.115 192.253 99.6202C191.783 99.1259 191.194 98.8787 190.488 98.8787C189.782 98.8787 189.193 99.1259 188.722 99.6202C188.252 100.115 188.016 100.75 188.016 101.527C188.016 102.304 188.252 102.939 188.722 103.434Z" fill="white"></path></svg> 