<?xml version="1.0" encoding="UTF-8"?> <svg xmlns="http://www.w3.org/2000/svg" width="166" height="94" viewBox="0 0 166 94" fill="none"><g clip-path="url(#clip0_2345_5142)"><path d="M16.0963 94.1484V23.7422H-4.32149V6.14064H11.8719C14.6882 6.14064 16.0963 4.73252 16.0963 1.91627V-4.4203H34.4019V94.1484H16.0963ZM67.5613 69.5063C71.8795 75.1388 77.2304 77.955 83.6139 77.955C89.9974 77.955 95.3482 75.1388 99.6665 69.5063C103.985 63.7799 106.144 55.5658 106.144 44.8641C106.144 34.1623 103.985 25.9952 99.6665 20.3627C95.3482 14.6363 89.9974 11.7731 83.6139 11.7731C77.2304 11.7731 71.8795 14.6363 67.5613 20.3627C63.243 25.9952 61.0839 34.1623 61.0839 44.8641C61.0839 55.5658 63.243 63.7799 67.5613 69.5063ZM54.4657 7.83039C62.2573 -1.27548 71.9734 -5.82842 83.6139 -5.82842C95.2544 -5.82842 104.97 -1.27548 112.762 7.83039C120.554 16.8424 124.449 29.1869 124.449 44.8641C124.449 60.5412 120.554 72.9327 112.762 82.0386C104.97 91.0506 95.2544 95.5566 83.6139 95.5566C71.9734 95.5566 62.2573 91.0506 54.4657 82.0386C46.6741 72.9327 42.7783 60.5412 42.7783 44.8641C42.7783 29.1869 46.6741 16.8424 54.4657 7.83039Z" fill="white"></path><path d="M116.154 94.3726V90.8346H116.923C118.133 90.8346 118.82 90.0142 118.984 88.3734L119.846 78.5285H131.536V94.2188H127.691V82.0665H123.384L122.768 88.9887C122.461 92.5779 120.717 94.3726 117.538 94.3726H116.154ZM136.008 84.9892H144.007C143.822 83.9432 143.392 83.092 142.715 82.4357C142.059 81.7794 141.207 81.4512 140.161 81.4512C139.054 81.4512 138.141 81.7794 137.423 82.4357C136.726 83.0715 136.254 83.9227 136.008 84.9892ZM143.392 89.604H147.391C147.289 89.9937 147.084 90.4346 146.776 90.9269C146.489 91.3986 146.068 91.9319 145.515 92.5267C144.981 93.1009 144.243 93.5829 143.299 93.9726C142.356 94.3418 141.31 94.5264 140.161 94.5264C137.844 94.5264 135.926 93.7675 134.408 92.2498C132.911 90.7115 132.162 88.7528 132.162 86.3736C132.162 83.9945 132.911 82.046 134.408 80.5283C135.926 78.99 137.844 78.2209 140.161 78.2209C142.315 78.2209 144.13 78.9797 145.607 80.4975C147.104 81.9947 147.853 83.8509 147.853 86.066C147.853 86.2506 147.822 86.6198 147.76 87.1735L147.699 87.6042H136.008C136.172 88.7118 136.634 89.604 137.393 90.2808C138.151 90.9576 139.074 91.2961 140.161 91.2961C140.982 91.2961 141.679 91.1217 142.253 90.7731C142.828 90.4039 143.207 90.0142 143.392 89.604ZM151.402 94.2188V82.0665H146.479V78.5285H160.17V82.0665H155.247V94.2188H151.402Z" fill="white"></path></g><defs><clipPath id="clip0_2345_5142"><path d="M0 24C0 10.7452 10.7452 0 24 0H166V94H0V24Z" fill="white"></path></clipPath></defs></svg> 