<?xml version="1.0" encoding="UTF-8"?> <svg xmlns="http://www.w3.org/2000/svg" width="203" height="108" viewBox="0 0 203 108" fill="none"><g clip-path="url(#clip0_2345_4759)"><path d="M18.9744 108V27.1928H-4.45964V6.99105H14.126C17.3583 6.99105 18.9744 5.37491 18.9744 2.14262V-5.13003H39.9843V108H18.9744ZM78.0421 79.7175C82.9983 86.1821 89.1397 89.4144 96.4662 89.4144C103.793 89.4144 109.934 86.1821 114.89 79.7175C119.846 73.1452 122.324 63.7177 122.324 51.435C122.324 39.1523 119.846 29.7787 114.89 23.3141C109.934 16.7418 103.793 13.4556 96.4662 13.4556C89.1397 13.4556 82.9983 16.7418 78.0421 23.3141C73.086 29.7787 70.6079 39.1523 70.6079 51.435C70.6079 63.7177 73.086 73.1452 78.0421 79.7175ZM63.012 8.93042C71.9547 -1.52064 83.1061 -6.74617 96.4662 -6.74617C109.826 -6.74617 120.978 -1.52064 129.92 8.93042C138.863 19.2737 143.334 33.4419 143.334 51.435C143.334 69.428 138.863 83.6501 129.92 94.1012C120.978 104.444 109.826 109.616 96.4662 109.616C83.1061 109.616 71.9547 104.444 63.012 94.1012C54.0693 83.6501 49.598 69.428 49.598 51.435C49.598 33.4419 54.0693 19.2737 63.012 8.93042Z" fill="white"></path><path d="M139.677 108.177V104.116H140.559C141.948 104.116 142.737 103.174 142.925 101.291L143.914 89.9919H157.332V108H152.918V94.0525H147.974L147.268 101.997C146.915 106.117 144.914 108.177 141.266 108.177H139.677ZM162.464 97.407H171.644C171.433 96.2065 170.938 95.2295 170.161 94.4763C169.408 93.723 168.431 93.3463 167.231 93.3463C165.96 93.3463 164.912 93.723 164.088 94.4763C163.288 95.206 162.746 96.1829 162.464 97.407ZM170.938 102.703H175.529C175.411 103.151 175.175 103.657 174.822 104.222C174.493 104.763 174.01 105.375 173.375 106.058C172.763 106.717 171.915 107.27 170.832 107.718C169.75 108.141 168.549 108.353 167.231 108.353C164.571 108.353 162.37 107.482 160.628 105.74C158.909 103.975 158.05 101.727 158.05 98.9959C158.05 96.2653 158.909 94.029 160.628 92.287C162.37 90.5215 164.571 89.6388 167.231 89.6388C169.702 89.6388 171.786 90.5098 173.481 92.2517C175.199 93.9702 176.058 96.1005 176.058 98.6428C176.058 98.8547 176.023 99.2784 175.952 99.914L175.882 100.408H162.464C162.652 101.68 163.182 102.703 164.053 103.48C164.924 104.257 165.983 104.646 167.231 104.646C168.172 104.646 168.973 104.445 169.632 104.045C170.291 103.622 170.726 103.174 170.938 102.703ZM180.131 108V94.0525H174.482V89.9919H190.195V94.0525H184.545V108H180.131Z" fill="white"></path></g><defs><clipPath id="clip0_2345_4759"><path d="M0.5 24C0.5 10.7452 11.2452 0 24.5 0H202.5V108H0.5V24Z" fill="white"></path></clipPath></defs></svg> 