<?xml version="1.0" encoding="UTF-8"?> <svg xmlns="http://www.w3.org/2000/svg" width="18" height="19" viewBox="0 0 18 19" fill="none"><path d="M15.487 5.927L11.573 2.013C11.247 1.687 10.797 1.5 10.336 1.5H4.75C3.233 1.5 2 2.733 2 4.25V14.75C2 16.267 3.233 17.5 4.75 17.5H13.25C14.767 17.5 16 16.267 16 14.75V7.164C16 6.697 15.818 6.257 15.487 5.927ZM4.528 8.148C4.403 7.931 4.405 7.662 4.531 7.446L5.861 5.167C6.11 4.739 6.818 4.737 7.069 5.167L8.399 7.447C8.525 7.662 8.526 7.93 8.402 8.148C8.278 8.366 8.045 8.5 7.795 8.5H5.136C4.886 8.5 4.652 8.365 4.528 8.148ZM9.5 13.1C9.5 13.596 9.096 14 8.6 14H6.901C6.405 14 6.001 13.596 6.001 13.1V11.4C6.001 10.904 6.405 10.5 6.901 10.5H8.6C9.096 10.5 9.5 10.904 9.5 11.4V13.1ZM11.5 10.5C10.397 10.5 9.5 9.603 9.5 8.5C9.5 7.397 10.397 6.5 11.5 6.5C12.603 6.5 13.5 7.397 13.5 8.5C13.5 9.603 12.603 10.5 11.5 10.5Z" fill="white"></path></svg> 