<?xml version="1.0" encoding="UTF-8"?> <svg xmlns="http://www.w3.org/2000/svg" width="71" height="71" viewBox="0 0 71 71" fill="none"><path d="M56.3415 35.141C47.2103 35.141 38.1409 35.141 29.0273 35.141C31.9387 28.3359 34.8325 21.5573 37.7527 14.7344C37.885 14.9118 37.9909 15.0538 38.0879 15.1957C39.0319 16.5177 39.9848 17.8486 40.9288 19.1706C41.0346 19.3214 41.1228 19.3392 41.2817 19.2682C41.8463 19.0109 42.4109 18.7713 42.9756 18.514C43.1344 18.4431 43.2138 18.4697 43.3196 18.6116C44.2724 19.9425 45.2429 21.2645 46.1957 22.5954C46.3016 22.7373 46.381 22.7906 46.5486 22.7018C46.7692 22.5954 46.9986 22.5244 47.2191 22.4268C47.3691 22.3558 47.4485 22.3913 47.5367 22.5244C48.4807 23.8819 49.4247 25.2394 50.3687 26.588C52.292 29.3384 54.2065 32.0889 56.1297 34.8394C56.1915 34.9103 56.2444 34.9991 56.3415 35.141ZM34.6384 27.6083C34.7531 27.5373 34.8148 27.5107 34.8766 27.4664C35.7588 26.8985 36.6322 26.3396 37.5057 25.7628C37.638 25.6741 37.7439 25.6741 37.885 25.754C38.5644 26.1532 39.2437 26.5436 39.923 26.9429C40.0642 27.0227 40.1877 27.0405 40.3377 26.9961C40.7788 26.8719 41.2287 26.7654 41.6787 26.6323C41.8463 26.588 41.961 26.6057 42.1021 26.7122C43.0197 27.3865 43.9372 28.0431 44.8547 28.6996C44.9518 28.7617 45.0929 28.7883 45.2164 28.7795C45.4723 28.744 45.7281 28.6908 45.9663 28.6198C46.1604 28.5665 46.3104 28.6109 46.478 28.7085C47.9426 29.6224 49.4159 30.5274 50.8892 31.4323C50.9598 31.4767 51.0304 31.5122 51.101 31.5566C51.101 31.4856 51.0833 31.4501 51.0569 31.4146C50.5981 30.758 50.1393 30.0926 49.6806 29.436C48.7013 28.0253 47.7132 26.6235 46.7339 25.2127C46.6457 25.0797 46.5663 25.0353 46.4163 25.1152C46.2222 25.2127 46.0016 25.2749 45.8075 25.3725C45.6311 25.4612 45.534 25.4346 45.4105 25.266C44.4665 23.9529 43.5137 22.6486 42.5697 21.3444C42.4639 21.2024 42.3845 21.1758 42.2256 21.2556C41.6522 21.5218 41.0699 21.7614 40.4965 22.0275C40.3377 22.0985 40.2671 22.063 40.1789 21.9299C39.5966 21.0959 38.9966 20.2708 38.4055 19.4457C38.3526 19.3747 38.2997 19.3126 38.2203 19.2061C37.0293 22.0098 35.8471 24.7869 34.6384 27.6083Z" fill="white"></path><path d="M27.1836 16.5354C23.9193 16.5354 20.655 16.5354 17.373 16.5354C17.373 14.6899 17.373 12.8622 17.373 11.0167C17.4524 11.0167 17.5318 11.0078 17.6113 11.0078C23.1694 11.0078 28.7363 11.0078 34.2944 11.0078C34.4444 11.0078 34.5326 11.0522 34.6208 11.1764C34.8943 11.5756 35.1678 11.966 35.4501 12.3476C35.5648 12.4984 35.5648 12.6137 35.4942 12.7912C33.7827 16.6684 32.0712 20.5546 30.3596 24.4318C28.8245 27.9098 27.2982 31.3879 25.772 34.8659C25.6749 35.0965 25.5602 35.1764 25.3044 35.1764C23.2929 35.1675 21.2814 35.1675 19.261 35.1675C19.1728 35.1675 19.0846 35.1675 18.9523 35.1675C21.7225 28.9479 24.5368 22.7993 27.263 16.6063C27.2277 16.5797 27.2012 16.5531 27.1836 16.5354Z" fill="white"></path><path d="M13.0327 45.7606C13.0327 47.9149 11.1755 49.0886 8.94698 49.0886C7.32755 49.0886 6.00526 48.7915 4.93555 47.692L6.59955 46.028C7.14926 46.5777 8.11498 46.7709 8.96183 46.7709C9.98698 46.7709 10.4773 46.4292 10.4773 45.82C10.4773 45.5675 10.4178 45.3595 10.2693 45.196C10.1355 45.0623 9.91269 44.9583 9.57098 44.9137L8.29326 44.7355C7.35726 44.6017 6.64412 44.2897 6.16869 43.7995C5.6784 43.2943 5.44069 42.5812 5.44069 41.6749C5.44069 39.7435 6.89669 38.332 9.30355 38.332C10.819 38.332 11.963 38.6886 12.8693 39.5949L11.235 41.2292C10.6853 40.6795 10.0761 40.6052 9.22926 40.6052C8.32298 40.6052 7.95155 41.1252 7.95155 41.5857C7.95155 41.7195 7.99612 41.9126 8.15955 42.076C8.29326 42.2097 8.51612 42.3435 8.88755 42.388L10.1653 42.5663C11.1161 42.7 11.7995 42.9972 12.2453 43.4429C12.8098 43.9926 13.0327 44.78 13.0327 45.7606Z" fill="white"></path><path d="M22.1368 45.2852C22.1368 47.6029 20.3093 49.0886 18.1105 49.0886C15.9116 49.0886 14.1139 47.6029 14.1139 45.2852V38.4212H16.7139V45.2257C16.7139 46.2063 17.2488 46.7709 18.1105 46.7709C18.9722 46.7709 19.5368 46.2063 19.5368 45.2257V38.4212H22.1368V45.2852Z" fill="white"></path><path d="M33.5196 48.9995H30.9196V43.9332L29.4191 46.548H27.7551L26.2545 43.9332V48.9995H23.6545V38.4212H26.2099L28.5871 43.0863L30.9642 38.4212H33.5196V48.9995Z" fill="white"></path><path d="M45.0728 48.9995H42.4728V43.9332L40.9722 46.548H39.3082L37.8077 43.9332V48.9995H35.2077V38.4212H37.7631L40.1402 43.0863L42.5174 38.4212H45.0728V48.9995Z" fill="white"></path><path d="M49.3608 48.9995H46.7608V38.4212H49.3608V48.9995Z" fill="white"></path><path d="M58.2355 40.7389H55.6355V48.9995H53.0355V40.7389H50.4355V38.4212H58.2355V40.7389Z" fill="white"></path><path d="M66.3338 45.7606C66.3338 47.9149 64.4767 49.0886 62.2481 49.0886C60.6287 49.0886 59.3064 48.7915 58.2367 47.692L59.9007 46.028C60.4504 46.5777 61.4161 46.7709 62.263 46.7709C63.2881 46.7709 63.7784 46.4292 63.7784 45.82C63.7784 45.5675 63.719 45.3595 63.5704 45.196C63.4367 45.0623 63.2138 44.9583 62.8721 44.9137L61.5944 44.7355C60.6584 44.6017 59.9453 44.2897 59.4698 43.7995C58.9796 43.2943 58.7418 42.5812 58.7418 41.6749C58.7418 39.7435 60.1978 38.332 62.6047 38.332C64.1201 38.332 65.2641 38.6886 66.1704 39.5949L64.5361 41.2292C63.9864 40.6795 63.3773 40.6052 62.5304 40.6052C61.6241 40.6052 61.2527 41.1252 61.2527 41.5857C61.2527 41.7195 61.2973 41.9126 61.4607 42.076C61.5944 42.2097 61.8173 42.3435 62.1887 42.388L63.4664 42.5663C64.4173 42.7 65.1007 42.9972 65.5464 43.4429C66.111 43.9926 66.3338 44.78 66.3338 45.7606Z" fill="white"></path><path d="M29.5933 56.4158C29.2962 58.2101 28.0619 59.0673 26.519 59.0673C25.5247 59.0673 24.839 58.7587 24.2562 58.1758C23.4219 57.3415 23.4219 56.3015 23.4219 54.9301C23.4219 53.5587 23.4219 52.5187 24.2562 51.6844C24.839 51.1015 25.5247 50.793 26.519 50.793C28.0619 50.793 29.2962 51.6501 29.5933 53.4444H27.559C27.4333 52.9873 27.1819 52.5758 26.519 52.5758C26.1533 52.5758 25.879 52.7244 25.7304 52.9187C25.5476 53.1587 25.4219 53.4444 25.4219 54.9301C25.4219 56.4158 25.5476 56.7015 25.7304 56.9415C25.879 57.1358 26.1533 57.2844 26.519 57.2844C27.1819 57.2844 27.4333 56.873 27.559 56.4158H29.5933Z" fill="white"></path><path d="M35.7233 58.9987H30.3062V50.8615H32.3062V57.2158H35.7233V58.9987Z" fill="white"></path><path d="M42.2922 56.1415C42.2922 57.9244 40.8865 59.0673 39.1951 59.0673C37.5037 59.0673 36.1208 57.9244 36.1208 56.1415V50.8615H38.1208V56.0958C38.1208 56.8501 38.5322 57.2844 39.1951 57.2844C39.8579 57.2844 40.2922 56.8501 40.2922 56.0958V50.8615H42.2922V56.1415Z" fill="white"></path><path d="M49.5397 56.5987C49.5397 58.153 48.454 58.9987 47.0026 58.9987H43.4597V50.8615H46.8312C48.5226 50.8615 49.4254 51.8101 49.4254 53.2158C49.4254 54.1415 48.7854 54.6558 48.534 54.8273C48.8654 55.033 49.5397 55.4558 49.5397 56.5987ZM47.5397 56.4844C47.5397 56.1415 47.3569 55.7758 46.8083 55.7758H45.4597V57.2044H46.8083C47.3569 57.2044 47.5397 56.8273 47.5397 56.4844ZM47.4254 53.3187C47.4254 52.9987 47.254 52.6558 46.7054 52.6558H45.4597V53.9815H46.7054C47.254 53.9815 47.4254 53.6387 47.4254 53.3187Z" fill="white"></path></svg> 