<?xml version="1.0" encoding="UTF-8"?> <svg xmlns="http://www.w3.org/2000/svg" width="112" height="21" viewBox="0 0 112 21" fill="none"><path d="M86.8604 19.6607H89.1604C89.3182 19.6607 89.4215 19.5573 89.4215 19.3984V12.1707C89.4215 12.0118 89.5249 11.9084 89.6826 11.9084H96.4715C96.7604 11.9084 96.9382 11.984 97.0426 12.0673L105.606 19.6118C105.606 19.6118 105.683 19.6673 105.737 19.6673H109.289C109.552 19.6673 109.552 19.434 109.083 19.0129L99.1626 10.4495L108.298 1.9051C108.664 1.54065 108.664 1.33398 108.402 1.33398H104.849C104.8 1.33492 104.753 1.35482 104.718 1.38954L96.6493 8.93398C96.5737 9.03732 96.3604 9.09287 96.0782 9.09287H89.6826C89.5249 9.09287 89.4215 8.98954 89.4215 8.83065V1.5951C89.4215 1.43732 89.3182 1.33398 89.1593 1.33398H86.8593C86.7015 1.33398 86.5982 1.43732 86.5982 1.5951V19.4062C86.5982 19.564 86.7015 19.6607 86.8604 19.6607ZM29.7326 8.41176H32.0326C32.1904 8.41176 32.2938 8.30843 32.2938 8.14954V6.13843C32.2938 5.14843 33.2371 4.15621 34.1738 4.15621H48.2182C49.1604 4.15621 50.096 5.14843 50.096 6.13954V8.15065C50.096 8.30843 50.2004 8.41176 50.3582 8.41176H52.6582C52.816 8.41176 52.9193 8.30843 52.9193 8.14954V5.84954C52.9193 3.31621 50.8815 1.33398 48.2938 1.33398H34.0904C31.5093 1.33398 29.4715 3.31621 29.4715 5.85065V8.15065C29.4715 8.30843 29.5749 8.41176 29.7326 8.41176ZM29.4715 12.8518V15.1518C29.4715 17.6573 31.5371 19.6673 34.0904 19.6673H48.2938C50.8826 19.6673 52.9126 17.6562 52.9126 15.1507V12.8507C52.9126 12.6929 52.8093 12.5895 52.6515 12.5895H50.3515C50.1938 12.5895 50.0904 12.6929 50.0904 12.8518V14.8629C50.0904 15.8529 49.1537 16.8451 48.2104 16.8451H34.166C33.2226 16.8451 32.2871 15.8529 32.2871 14.8618V12.8507C32.2871 12.6929 32.1838 12.5895 32.0249 12.5895H29.7249C29.5671 12.5895 29.4715 12.6929 29.4715 12.8518ZM80.7471 7.39176V5.85176C80.7471 3.31843 78.736 1.3351 76.1271 1.3351H59.0271C58.8682 1.3351 58.7649 1.43843 58.7649 1.59621V19.4073C58.7649 19.5651 58.8682 19.6684 59.026 19.6684H61.326C61.4837 19.6684 61.5871 19.5651 61.5871 19.4073V12.1707C61.5871 12.0129 61.6904 11.9095 61.8493 11.9095H67.9626C68.2515 11.9095 68.4293 11.9851 68.5337 12.0684L76.836 19.6129C76.836 19.6129 76.9115 19.6684 76.9671 19.6684H80.4371C80.6982 19.6684 80.9593 19.4618 80.4649 19.014L72.3204 11.9095H76.1338C78.716 11.9095 80.7471 9.92732 80.7471 7.39398V7.39176ZM61.8493 9.08621C61.6904 9.08621 61.5871 8.98287 61.5871 8.82398V4.41843C61.5871 4.25954 61.6904 4.15621 61.8493 4.15621H76.0515C76.9949 4.15621 77.9304 5.14843 77.9304 6.13954V7.10287C77.9304 8.09398 76.9882 9.08621 76.0515 9.08621H61.8493ZM24.1149 7.46732V5.85176C24.1149 3.31843 22.1038 1.3351 19.496 1.3351H2.39487C2.23598 1.3351 2.12598 1.43843 2.12598 1.59621V19.4073C2.12598 19.5651 2.22931 19.6684 2.3882 19.6684H19.496C22.0849 19.6684 24.1149 17.734 24.1149 15.2007V13.5273C24.1149 12.0129 22.7038 10.4984 21.2926 10.4984C22.7038 10.4984 24.1149 8.98398 24.1149 7.46954V7.46732ZM21.2926 14.8551C21.2926 15.8462 20.356 16.8373 19.4126 16.8373H5.21042C5.05153 16.8373 4.9482 16.7351 4.9482 16.5762V12.1629C4.9482 12.0051 5.05153 11.9018 5.21042 11.9018H19.4126C20.3571 11.9018 21.2926 12.8929 21.2926 13.884V14.8551ZM21.2926 7.10287C21.2926 8.09398 20.356 9.08621 19.4126 9.08621H5.21042C5.05153 9.08621 4.9482 8.98287 4.9482 8.82398V4.41843C4.9482 4.25954 5.05153 4.15621 5.21042 4.15621H19.4126C20.3571 4.15621 21.2926 5.14843 21.2926 6.13954V7.10287Z" fill="white"></path></svg> 