<?xml version="1.0" encoding="UTF-8"?> <svg xmlns="http://www.w3.org/2000/svg" width="211" height="17" viewBox="0 0 211 17" fill="none"><g clip-path="url(#clip0_2345_5028)"><path d="M47.3236 8.5C47.2161 4.27313 45.043 0.5 34.3564 0.5H34.1296C23.443 0.5 21.2699 4.27313 21.1624 8.5C21.2699 12.7269 23.4311 16.5 34.1296 16.5H34.3564C45.0549 16.5 47.2281 12.7269 47.3236 8.5ZM34.5714 12.8701H33.9266C28.3146 12.8104 27.1564 10.7806 27.1087 8.5C27.1684 6.23134 28.3146 4.20149 33.9266 4.12985H34.5714C40.1833 4.18955 41.3415 6.2194 41.3893 8.5C41.3415 10.7806 40.1833 12.8104 34.5714 12.8701ZM149.342 1.09701H143.753V6.58955H134.285V1.08507H128.661V15.9149H134.249V9.96866H143.718V15.9388H149.33V1.09701H149.342ZM95.5385 4.45224V15.9149H101.162L101.15 1.09701H80.4818V15.903H86.0699V4.46418H95.5385V4.45224ZM152.052 15.9149H157.473L169.162 6.23134L169.186 15.9149L174.822 15.9269L174.81 1.09701H169.461L157.724 10.8284L157.736 1.09701H152.064V15.9149H152.052ZM15.0848 15.9149H22.5594L12.1117 7.8791L22.5594 1.08507H15.0848L6.26091 7.0194L6.27285 1.10896L0.672852 1.13283V15.8791L6.27285 15.9149L6.26091 9.1209L15.0848 15.9149ZM63.3236 10.8164L69.5087 1.08507H76.8997V15.9149H71.5505V6.60149L65.4729 15.9149H61.1863L55.1087 6.60149V15.9149H49.7475V1.09701H57.1385L63.3236 10.8164ZM118.5 1.09701H111.324L102.368 15.9269H108.052L109.64 13.2642H120.171L121.759 15.9269H127.443L118.5 1.09701ZM111.515 10.0164L114.906 4.23731L118.297 10.0164H111.515ZM193.544 15.9149H199.013V1.09701C199.013 1.09701 190.619 1.1209 186.571 1.1209C181.258 1.1209 177.198 1.4791 177.198 6.00447C177.198 9.88507 181.927 10.3507 182.906 10.4343C182.977 10.4463 183.037 10.4463 183.061 10.4463C180.697 12.2731 176.016 15.9149 176.016 15.9149H182.918L189.318 10.8642L193.556 10.8761V15.9149H193.544ZM185.7 4.42836L193.568 4.41642V7.56866L185.7 7.54478C185.7 7.54478 183.049 7.73582 183.049 5.99254C183.037 4.24925 185.7 4.42836 185.7 4.42836ZM210.822 3.9388C210.786 1.76567 209.676 0.798507 207.216 0.798507H207.156C204.697 0.798507 203.586 1.76567 203.55 3.95075C203.586 6.12388 204.697 7.09105 207.156 7.09105H207.216C209.676 7.09105 210.786 6.12388 210.822 3.9388ZM210.273 3.9388C210.249 5.14477 209.903 6.54179 207.324 6.57761H207.037C204.47 6.54179 204.112 5.14477 204.088 3.9388C204.112 2.73283 204.458 1.33582 207.037 1.28806H207.324C209.903 1.34776 210.249 2.73283 210.273 3.9388ZM207.24 2.99552H207.144C206.44 3.00746 206.082 3.31791 206.106 3.95075C206.13 4.58358 206.452 4.89403 207.156 4.89403H207.252C207.777 4.88209 208.1 4.70298 208.231 4.35671L208.255 4.29701H209.019L208.995 4.40448C208.852 5.16866 208.291 5.52686 207.216 5.52686H207.18C205.592 5.52686 205.353 4.69104 205.353 3.96269C205.353 3.23433 205.58 2.38657 207.18 2.38657H207.216C208.279 2.38657 208.852 2.74478 208.995 3.50896L209.019 3.61642H208.255L208.231 3.55672C208.1 3.18657 207.765 2.99552 207.24 2.99552Z" fill="white"></path></g><defs><clipPath id="clip0_2345_5028"><rect width="210.149" height="16" fill="white" transform="translate(0.672852 0.5)"></rect></clipPath></defs></svg> 