<?xml version="1.0" encoding="UTF-8"?> <svg xmlns="http://www.w3.org/2000/svg" width="117" height="40" viewBox="0 0 117 40" fill="none"><g clip-path="url(#clip0_2368_4680)"><path d="M55.4866 2.79741H51.6601V11.3887H49.1602V0.454726H57.9853V11.3887H55.4866V2.79741Z" fill="white"></path><path d="M60.4141 0.454726H62.9293L66.3028 5.06285L69.489 0.454726H71.8479V11.3887H69.3492V4.42162L66.3028 8.68614H65.9433L62.9137 4.46913V11.3887H60.4141V0.454726Z" fill="white"></path><path d="M76.0039 4.64082H80.3C79.8157 3.313 78.5501 2.61047 76.8949 2.61047C76.1136 2.61047 75.2548 2.86089 74.5207 3.40679L73.5674 1.53216C74.3015 0.891854 75.645 0.267179 77.5037 0.267179C80.6742 0.267179 83.0172 2.51637 83.0172 5.92174C83.0172 9.43591 80.753 11.5757 77.1757 11.5757C75.5978 11.5757 74.1452 11.0451 73.4893 10.4364L74.5513 8.32664C75.1141 8.7953 76.0349 9.2327 77.1291 9.2327C78.5814 9.2327 79.9717 8.5927 80.3929 6.98442H76.0039V4.64082Z" fill="white"></path><path d="M91.3907 3.78138V7.74859C93.0312 7.71763 93.624 7.04606 93.624 5.76545C93.624 4.73403 93.0622 3.82859 91.3907 3.78138ZM88.8914 7.74859V3.78138C87.2982 3.82859 86.6888 4.70276 86.6888 5.76545C86.6888 7.03043 87.3607 7.71763 88.8914 7.74859ZM88.8914 10.0453C85.9707 10.0134 84.0332 8.49863 84.0332 5.76545C84.0332 3.06292 86.0179 1.56407 88.8914 1.4856V0.329735H91.3907V1.4856C94.2334 1.54782 96.2799 3.09449 96.2799 5.76545C96.2799 8.48299 94.2956 10.0134 91.3907 10.0453V11.5132H88.8914V10.0453Z" fill="white"></path><path d="M52.3344 15.2474H50.2492V19.1558H49.4277V14.4799H53.1568V19.1558H52.3344V15.2474Z" fill="white"></path><path d="M54.5869 14.4799H57.2925V15.2474H55.4084V16.41H57.092V17.1788H55.4084V18.3879H57.359V19.1558H54.5869V14.4799Z" fill="white"></path><path d="M57.9824 14.4799H61.8384V15.2474H60.3208V19.1558H59.5V15.2474H57.9824V14.4799Z" fill="white"></path><path d="M62.6865 14.4799H65.393V15.2474H63.508V16.41H65.192V17.1788H63.508V18.3879H65.4592V19.1558H62.6865V14.4799Z" fill="white"></path><path d="M67.4849 15.2474V16.684C67.6786 16.7046 67.879 16.7174 68.0657 16.7174C68.554 16.7174 68.9347 16.4839 68.9347 15.9637C68.9347 15.4758 68.6343 15.2348 68.0737 15.2348C67.9054 15.2348 67.7055 15.2413 67.4849 15.2474ZM66.6631 19.1558V14.4799C66.9233 14.4799 67.6654 14.4661 67.9921 14.4661C69.369 14.4661 69.8027 15.2014 69.8027 15.9692C69.8027 16.7646 69.2087 17.4859 68.0927 17.4859C67.9526 17.4859 67.685 17.4859 67.4849 17.4663V19.1558H66.6631Z" fill="white"></path><path d="M71.7092 17.0585V18.3881C71.8964 18.4019 72.0564 18.4148 72.2305 18.4148C72.8383 18.4148 73.0921 18.1346 73.0921 17.7199C73.0921 17.319 72.8457 17.0177 72.2704 17.0177C72.1174 17.0177 71.917 17.0321 71.7092 17.0585ZM70.8877 14.4801H73.6206V15.2476H71.7092V16.2907C71.89 16.264 72.1698 16.2505 72.3369 16.2505C73.3122 16.2505 73.9072 16.7982 73.9072 17.6599C73.9072 18.6287 73.2524 19.1826 72.1036 19.1826C71.5626 19.1826 71.1617 19.156 70.8877 19.156V14.4801Z" fill="white"></path><path d="M77.3695 18.067C77.0489 18.7818 76.6808 19.1558 76.0999 19.1558C75.8599 19.1558 75.5859 19.069 75.459 18.9688L75.7462 18.2745C75.8725 18.361 75.9599 18.3879 76.0938 18.3879C76.3142 18.3879 76.4613 18.2614 76.5551 18.0609L76.6216 17.9L74.5566 14.4799H75.4866L77.0152 17.0923L78.1312 14.4799H78.96L77.3695 18.067Z" fill="white"></path><path d="M80.644 15.2474V16.684C80.8377 16.7046 81.0382 16.7174 81.2249 16.7174C81.7125 16.7174 82.0938 16.4839 82.0938 15.9637C82.0938 15.4758 81.7941 15.2348 81.2322 15.2348C81.0658 15.2348 80.8653 15.2413 80.644 15.2474ZM79.8223 19.1558V14.4799C80.0828 14.4799 80.8239 14.4661 81.1519 14.4661C82.5288 14.4661 82.9625 15.2014 82.9625 15.9692C82.9625 16.7646 82.3679 17.4859 81.2518 17.4859C81.1118 17.4859 80.8451 17.4859 80.644 17.4663V19.1558H79.8223Z" fill="white"></path><path d="M84.0459 14.4799H86.6853V15.2474H84.8683V19.1558H84.0459V14.4799Z" fill="white"></path><path d="M90.9552 18.702C90.6616 19.0165 90.0666 19.2305 89.4594 19.2305C88.0292 19.2305 87.0469 18.2748 87.0469 16.8188C87.0469 15.476 87.8953 14.4066 89.4392 14.4066C90.047 14.4066 90.5543 14.6 90.8627 14.8801L90.4939 15.4882C90.2132 15.301 89.907 15.175 89.4392 15.175C88.5702 15.175 87.9162 15.803 87.9162 16.8188C87.9162 17.7935 88.5773 18.4614 89.5318 18.4614C89.9269 18.4614 90.3211 18.3345 90.6417 18.0875L90.9552 18.702Z" fill="white"></path><path d="M91.9053 14.4799H92.7283V16.6975L94.5719 14.4799H95.5601L93.6365 16.6577L95.6812 19.1558H94.6381L92.7283 16.7441V19.1558H91.9053V14.4799Z" fill="white"></path><path d="M96.5303 19.1558V14.4799H97.352V17.8065L99.8041 14.4799H100.526V19.1558H99.7042V15.8353L97.2521 19.1558H96.5303Z" fill="white"></path><path d="M103.468 13.344C103.521 13.6042 103.701 13.7311 104.035 13.7311C104.336 13.7311 104.543 13.6306 104.569 13.344H105.338C105.318 13.9187 104.771 14.2991 104.035 14.2991C103.234 14.2991 102.746 13.9119 102.7 13.344H103.468ZM101.957 19.1558V14.4799H102.778V17.8065L105.231 14.4799H105.952V19.1558H105.131V15.8353L102.679 19.1558H101.957Z" fill="white"></path><path d="M49.3936 21.2456H50.223L51.8193 23.4305L53.343 21.2456H54.1178V25.9224H53.3022V22.5419L51.8267 24.6193H51.7056L50.2156 22.562V25.9224H49.3936V21.2456Z" fill="white"></path><path d="M55.4092 21.2456H58.1163V22.014H56.2319V23.1768H57.9152V23.9448H56.2319V25.1541H58.1831V25.9224H55.4092V21.2456Z" fill="white"></path><path d="M58.9749 21.2456H59.9168L61.6131 23.4775V21.2456H62.4287V23.4775L64.1191 21.2456H65.0675L63.3109 23.4775L65.1411 25.9224H64.1933L62.4287 23.4966V25.9224H61.6131V23.4966L59.8433 25.9224H58.9014L60.7319 23.484L58.9749 21.2456Z" fill="white"></path><path d="M67.1038 25.154H69.055V22.014H67.7649L67.692 22.8294C67.6046 24.0383 67.2708 24.947 67.1038 25.154ZM65.7012 25.154H66.202C66.3957 24.9135 66.8429 23.924 66.9235 22.1807L66.9704 21.2455H69.8701V25.154H70.5048V26.7573H69.7358V25.9223H66.4696V26.7573H65.7012V25.154Z" fill="white"></path><path d="M73.6019 24.8333C73.2804 25.5483 72.9138 25.9224 72.332 25.9224C72.092 25.9224 71.818 25.8356 71.6905 25.7354L71.9783 25.0403C72.1046 25.1275 72.1914 25.1541 72.3256 25.1541C72.5457 25.1541 72.6928 25.0269 72.7869 24.8271L72.8531 24.6664L70.7891 21.2456H71.7175L73.2476 23.8574L74.3636 21.2456H75.1924L73.6019 24.8333Z" fill="white"></path><path d="M78.9945 23.9241H76.8559V25.9224H76.0342V21.2456H76.8559V23.1564H78.9945V21.2456H79.8095V25.9224H78.9945V23.9241Z" fill="white"></path><path d="M82.2664 23.9579H83.6353L82.9539 22.2945L82.2664 23.9579ZM82.6134 21.2315H83.3355L85.3125 25.9224H84.4377L83.9501 24.7263H81.9522L81.4646 25.9224H80.6357L82.6134 21.2315Z" fill="white"></path><path d="M86.9666 22.014V23.4505C87.1603 23.4703 87.3611 23.484 87.5484 23.484C88.036 23.484 88.4164 23.2497 88.4164 22.7286C88.4164 22.2409 88.116 21.9999 87.5554 21.9999C87.3878 21.9999 87.1882 22.0073 86.9666 22.014ZM86.1445 25.9224V21.2456C86.4066 21.2456 87.1465 21.2315 87.4745 21.2315C88.851 21.2315 89.2854 21.9668 89.2854 22.7355C89.2854 23.5304 88.691 24.2516 87.575 24.2516C87.4346 24.2516 87.1671 24.2516 86.9666 24.2316V25.9224H86.1445Z" fill="white"></path><path d="M92.4661 25.2273C93.4478 25.2273 94.036 24.506 94.036 23.5836C94.036 22.6149 93.3479 21.9404 92.4661 21.9404C91.5707 21.9404 90.9025 22.6149 90.9025 23.5836C90.9025 24.5194 91.5907 25.2273 92.4661 25.2273ZM92.4661 21.172C93.8552 21.172 94.9056 22.1271 94.9056 23.5836C94.9056 24.9864 93.8552 25.9956 92.4661 25.9956C91.0766 25.9956 90.0342 25.0403 90.0342 23.5836C90.0342 22.2279 91.0291 21.172 92.4661 21.172Z" fill="white"></path><path d="M96.7427 25.154H98.694V22.014H97.4038L97.3309 22.8294C97.2435 24.0383 96.9097 24.947 96.7427 25.154ZM95.3389 25.154H95.8409C96.035 24.9135 96.4819 23.924 96.5619 22.1807L96.6088 21.2455H99.5084V25.154H100.144V26.7573H99.3741V25.9223H96.1085V26.7573H95.3389V25.154Z" fill="white"></path><path d="M103.993 23.9241H101.854V25.9224H101.033V21.2456H101.854V23.1564H103.993V21.2456H104.809V25.9224H103.993V23.9241Z" fill="white"></path><path d="M109.757 21.2455H110.572V25.9222H109.757V21.2455ZM106.917 23.6171V25.1474C107.065 25.1539 107.199 25.1671 107.358 25.1671C107.96 25.1671 108.281 24.893 108.281 24.3456C108.281 23.8441 107.946 23.5835 107.372 23.5835C107.245 23.5835 107.104 23.5973 106.917 23.6171ZM106.917 22.849C107.125 22.8218 107.306 22.8155 107.439 22.8155C108.594 22.8155 109.149 23.4103 109.149 24.3255C109.149 25.3139 108.454 25.9351 107.259 25.9351C106.818 25.9351 106.369 25.9222 106.096 25.9222V21.2455H106.917V22.849Z" fill="white"></path><path d="M113.374 20.11C113.428 20.3705 113.608 20.4971 113.942 20.4971C114.243 20.4971 114.45 20.3972 114.476 20.11H115.246C115.225 20.6841 114.678 21.0654 113.942 21.0654C113.141 21.0654 112.653 20.6773 112.606 20.11H113.374ZM111.863 25.9224V21.2456H112.686V24.5731L115.138 21.2456H115.86V25.9224H115.038V22.6017L112.586 25.9224H111.863Z" fill="white"></path><path d="M50.2287 29.922H52.3136C52.1533 29.1403 51.5117 28.7056 50.6302 28.7056C50.2563 28.7056 49.8615 28.8195 49.5341 29.067L49.2135 28.4521C49.5405 28.1712 50.1091 27.9375 50.8236 27.9375C52.1999 27.9375 53.1758 28.8862 53.1758 30.3432C53.1758 31.806 52.2268 32.7617 50.7301 32.7617C50.0822 32.7617 49.4875 32.5542 49.1602 32.2737L49.5151 31.5859C49.8081 31.8133 50.2287 31.9933 50.7169 31.9933C51.5182 31.9933 52.1931 31.5518 52.3338 30.6902H50.2287V29.922Z" fill="white"></path><path d="M54.2588 28.0111H55.0809V30.2297L56.9245 28.0111H57.9137L55.9897 30.1896L58.0338 32.6885H56.9914L55.0809 30.2759V32.6885H54.2588V28.0111Z" fill="white"></path><path d="M60.7089 31.9933C61.69 31.9933 62.2782 31.2714 62.2782 30.3497C62.2782 29.3805 61.5907 28.7056 60.7089 28.7056C59.8123 28.7056 59.1444 29.3805 59.1444 30.3497C59.1444 31.2846 59.8335 31.9933 60.7089 31.9933ZM60.7089 27.9375C62.0983 27.9375 63.1472 28.8924 63.1472 30.3497C63.1472 31.753 62.0983 32.7617 60.7089 32.7617C59.3188 32.7617 58.2764 31.806 58.2764 30.3497C58.2764 28.993 59.2722 27.9375 60.7089 27.9375Z" fill="white"></path><path d="M67.1902 30.6903H65.0523V32.6885H64.2314V28.0111H65.0523V29.9221H67.1902V28.0111H68.0059V32.6885H67.1902V30.6903Z" fill="white"></path><path d="M71.5207 31.9933C72.5031 31.9933 73.0916 31.2714 73.0916 30.3497C73.0916 29.3805 72.4026 28.7056 71.5207 28.7056C70.6257 28.7056 69.9584 29.3805 69.9584 30.3497C69.9584 31.2846 70.6466 31.9933 71.5207 31.9933ZM71.5207 27.9375C72.9114 27.9375 73.9603 28.8924 73.9603 30.3497C73.9603 31.753 72.9114 32.7617 71.5207 32.7617C70.1313 32.7617 69.0889 31.806 69.0889 30.3497C69.0889 28.993 70.0847 27.9375 71.5207 27.9375Z" fill="white"></path><path d="M75.043 28.0111H75.8718L77.4687 30.1959L78.9921 28.0111H79.7669V32.6885H78.9519V29.3075L77.4761 31.3854H77.3556L75.8656 29.3273V32.6885H75.043V28.0111Z" fill="white"></path><path d="M81.1992 32.6885V28.0111H82.021V31.338L84.4731 28.0111H85.1946V32.6885H84.3726V29.3677L81.9211 32.6885H81.1992Z" fill="white"></path><path d="M89.7851 32.6885H88.9643V30.7706C88.7436 30.9309 88.3485 31.0913 87.8492 31.0913C87.1399 31.0913 86.4248 30.7103 86.4248 29.5945V28.0111H87.2469V29.3604C87.2469 30.109 87.6073 30.3228 88.0686 30.3228C88.43 30.3228 88.7298 30.1826 88.9643 30.0223V28.0111H89.7851V32.6885Z" fill="white"></path><path d="M91.2168 28.0111H93.9224V28.7791H92.0389V29.9418H93.7219V30.7103H92.0389V31.9194H93.9895V32.6885H91.2168V28.0111Z" fill="white"></path><path d="M98.756 32.2338C98.4608 32.5477 97.8668 32.7617 97.2592 32.7617C95.8291 32.7617 94.8467 31.806 94.8467 30.3497C94.8467 29.0069 95.6945 27.9375 97.2384 27.9375C97.8468 27.9375 98.3544 28.1311 98.6612 28.4121L98.2937 29.02C98.0139 28.8331 97.7061 28.7056 97.2384 28.7056C96.3701 28.7056 95.7156 29.3342 95.7156 30.3497C95.7156 31.3251 96.3768 31.9933 97.3316 31.9933C97.7261 31.9933 98.1209 31.866 98.4412 31.619L98.756 32.2338Z" fill="white"></path><path d="M99.7041 28.0111H100.526V30.2297L102.37 28.0111H103.359L101.434 30.1896L103.48 32.6885H102.437L100.526 30.2759V32.6885H99.7041V28.0111Z" fill="white"></path><path d="M104.329 32.6885V28.0111H105.15V31.338L107.603 28.0111H108.324V32.6885H107.502V29.3677L105.051 32.6885H104.329Z" fill="white"></path><path d="M111.265 26.8755C111.32 27.1364 111.5 27.2632 111.835 27.2632C112.135 27.2632 112.342 27.1627 112.368 26.8755H113.137C113.117 27.4502 112.569 27.8307 111.835 27.8307C111.032 27.8307 110.545 27.444 110.498 26.8755H111.265ZM109.756 32.6885V28.0111H110.578V31.338L113.029 28.0111H113.752V32.6885H112.929V29.3677L110.478 32.6885H109.756Z" fill="white"></path><path d="M52.2608 35.9668V38.1316C53.1092 38.1249 53.5503 37.7638 53.5503 37.0484C53.5503 36.4209 53.1362 35.9793 52.2608 35.9668ZM51.4394 38.1316V35.9668C50.5842 35.9729 50.1499 36.4139 50.1499 37.0484C50.1499 37.75 50.617 38.1249 51.4394 38.1316ZM51.4394 38.8859C50.1499 38.8859 49.2803 38.2315 49.2803 37.0484C49.2803 35.8797 50.1569 35.232 51.4394 35.2115V34.7241H52.2608V35.2115C53.5371 35.232 54.4193 35.8992 54.4193 37.0484C54.4193 38.2183 53.5371 38.8795 52.2608 38.8859V39.5078H51.4394V38.8859Z" fill="white"></path><path d="M57.5204 38.7586C58.5025 38.7586 59.0907 38.0374 59.0907 37.1157C59.0907 36.1471 58.4026 35.4721 57.5204 35.4721C56.6254 35.4721 55.9575 36.1471 55.9575 37.1157C55.9575 38.0509 56.645 38.7586 57.5204 38.7586ZM57.5204 34.704C58.9099 34.704 59.9588 35.6594 59.9588 37.1157C59.9588 38.5186 58.9099 39.5273 57.5204 39.5273C56.131 39.5273 55.0889 38.5716 55.0889 37.1157C55.0889 35.759 56.0844 34.704 57.5204 34.704Z" fill="white"></path><path d="M61.8638 35.545V36.9816C62.0584 37.0019 62.2589 37.0144 62.4456 37.0144C62.9332 37.0144 63.3142 36.7805 63.3142 36.2601C63.3142 35.7724 63.0132 35.5314 62.4526 35.5314C62.2853 35.5314 62.0848 35.5383 61.8638 35.545ZM61.043 39.4536V34.7771C61.3032 34.7771 62.0447 34.7633 62.372 34.7633C63.7489 34.7633 64.1826 35.498 64.1826 36.2671C64.1826 37.0616 63.5876 37.7829 62.4725 37.7829C62.3325 37.7829 62.0643 37.7829 61.8638 37.7632V39.4536H61.043Z" fill="white"></path><path d="M67.2709 38.3639C66.9509 39.0797 66.5831 39.4536 66.0019 39.4536C65.7619 39.4536 65.4879 39.3663 65.3604 39.2667L65.6476 38.5712C65.7745 38.6582 65.8618 38.6852 65.9955 38.6852C66.2156 38.6852 66.3627 38.558 66.4562 38.3576L66.5224 38.1975L64.458 34.7771H65.3867L66.9175 37.389L68.0329 34.7771H68.8617L67.2709 38.3639Z" fill="white"></path><path d="M69.7246 34.7771H70.5534L72.1497 36.9614L73.6731 34.7771H74.448V39.4536H73.6333V36.0725L72.1571 38.1503H72.0366L70.5467 36.0927V39.4536H69.7246V34.7771Z" fill="white"></path><path d="M20.0938 0.0388034C9.10431 0.0388034 0.195312 8.94608 0.195312 19.9352C0.195312 30.9252 9.10431 39.8325 20.0938 39.8325C31.0805 39.8325 39.989 30.9252 39.989 19.9352C39.989 8.94608 31.0805 0.0388034 20.0938 0.0388034Z" fill="#C9A565"></path><path d="M24.3924 11.2425C24.3889 11.2321 24.3857 11.222 24.3822 11.2119H15.2764L15.3156 11.3323C15.8493 12.9461 16.1429 14.6724 16.1429 16.4698C16.1429 18.2672 15.8493 19.9935 15.3156 21.6076L15.2764 21.728H24.3822C24.3857 21.7176 24.3889 21.7075 24.3924 21.6974C24.9452 20.0578 25.2494 18.3006 25.2494 16.4698C25.2494 14.639 24.9452 12.8817 24.3924 11.2425Z" fill="white"></path><path d="M32.4573 15.4304C32.4555 15.4243 32.4533 15.4181 32.4512 15.412H26.9824L27.006 15.4843C27.3265 16.4535 27.5029 17.4905 27.5029 18.57C27.5029 19.6496 27.3265 20.6865 27.006 21.6557L26.9824 21.728H32.4512C32.4533 21.7219 32.4555 21.7155 32.4573 21.7096C32.7893 20.7248 32.9723 19.6695 32.9723 18.57C32.9723 17.4706 32.7893 16.4149 32.4573 15.4304Z" fill="white"></path><path d="M12.9633 15.4304C12.9612 15.4243 12.9592 15.4181 12.9572 15.412H7.48828L7.51188 15.4843C7.8324 16.4535 8.00865 17.4905 8.00865 18.57C8.00865 19.6496 7.8324 20.6865 7.51188 21.6557L7.48828 21.728H12.9572C12.9592 21.7219 12.9612 21.7155 12.9633 21.7096C13.2951 20.7248 13.478 19.6695 13.478 18.57C13.478 17.4706 13.2951 16.4149 12.9633 15.4304Z" fill="white"></path><path d="M11.5377 11.5943C11.5368 11.5922 11.5361 11.5897 11.5353 11.5873H9.3916L9.4008 11.6158C9.52653 11.9956 9.59562 12.402 9.59562 12.825C9.59562 13.2483 9.52653 13.6547 9.4008 14.0345L9.3916 14.063H11.5353C11.5361 14.0605 11.5368 14.0581 11.5377 14.0556C11.6677 13.6697 11.7394 13.2562 11.7394 12.825C11.7394 12.394 11.6677 11.9805 11.5377 11.5943Z" fill="white"></path><path d="M30.8307 11.5943C30.8298 11.5922 30.829 11.5897 30.8282 11.5873H28.6846L28.6938 11.6158C28.8194 11.9956 28.8886 12.402 28.8886 12.825C28.8886 13.2483 28.8194 13.6547 28.6938 14.0345L28.6846 14.063H30.8282C30.829 14.0605 30.8298 14.0581 30.8307 14.0556C30.9607 13.6697 31.0324 13.2562 31.0324 12.825C31.0324 12.394 30.9607 11.9805 30.8307 11.5943Z" fill="white"></path><path d="M21.3014 6.33931C21.3003 6.33594 21.2993 6.33287 21.2983 6.32981H18.4951L18.5072 6.3669C18.6715 6.86345 18.7619 7.39494 18.7619 7.94851C18.7619 8.50176 18.6715 9.03326 18.5072 9.52981L18.4951 9.56689H21.2983C21.2993 9.56383 21.3003 9.56077 21.3014 9.5577C21.4715 9.05287 21.5653 8.51188 21.5653 7.94851C21.5653 7.38483 21.4715 6.84383 21.3014 6.33931Z" fill="white"></path><path d="M29.2094 29.7515L32.3255 23.7683L7.48828 23.7208L11.0751 29.703H19.7275V31.8874C19.2153 32.0752 18.8476 32.5627 18.8476 33.1398C18.8476 33.8322 19.3753 34.3949 20.0492 34.4646C20.0917 34.4692 20.133 34.478 20.1767 34.478C20.1783 34.478 20.1796 34.4778 20.1812 34.4778C20.1827 34.4778 20.1842 34.478 20.1858 34.478C20.9249 34.478 21.5241 33.8791 21.5241 33.1398C21.5241 32.5617 21.1553 32.0738 20.6419 31.8868V29.703L29.2094 29.7515Z" fill="white"></path></g><defs><clipPath id="clip0_2368_4680"><rect width="115.862" height="40" fill="white" transform="translate(0.194336)"></rect></clipPath></defs></svg> 