<?xml version="1.0" encoding="UTF-8"?> <svg xmlns="http://www.w3.org/2000/svg" width="152" height="19" viewBox="0 0 152 19" fill="none"><g clip-path="url(#clip0_2345_5005)"><path d="M13.2337 5.94388V1.77612H6.60564V16.8842H9.58982V18.2326H0.542969V16.8842H3.52718V1.77612H0.542969V0.427734H15.4326V5.94388H13.2337Z" fill="white"></path><path d="M34.688 17.0685V18.4169H28.751V16.7927C27.4316 18.141 25.1071 18.8459 23.1595 18.8459C18.7617 18.8459 16.5 15.7201 16.5 12.9314C16.5 9.68301 19.0444 6.4346 23.4422 6.4346C25.6097 6.4346 27.5573 7.13945 28.7824 8.64104V5.85234C28.7824 2.32815 26.5521 1.43944 24.6673 1.43944C21.9658 1.43944 19.924 3.09428 19.5785 3.40073L18.4476 1.92976C20.2695 0.612019 22.0286 0.152344 24.5417 0.152344C31.5467 0.152344 31.6409 4.25879 31.6409 8.64104V17.0378H34.688V17.0685ZM28.751 11.154C28.2483 9.77493 26.9918 8.05878 24.793 8.05878C22.0915 8.05878 19.6727 9.80556 19.6727 12.962C19.6727 15.5975 22.0286 17.191 24.2904 17.191C25.861 17.191 27.9028 16.2717 28.751 14.2491V11.154Z" fill="white"></path><path d="M36.2274 5.94564V0.582727H37.6096V1.93111L37.5153 2.45208H37.7666L37.9551 1.90047C38.8975 0.981111 40.311 0.123047 42.9183 0.123047C47.5046 0.123047 49.1382 2.78918 49.1382 4.71983C49.1382 5.88435 48.8866 8.39723 44.9601 8.91819V9.16338C47.7874 9.19401 50.3315 10.9408 50.3315 13.7295C50.3315 16.5489 47.5358 18.8472 42.0073 18.8472C38.9603 18.8472 36.2588 18.0505 34.5625 15.0779L36.2588 13.6989C36.9813 16.2118 39.3687 17.6214 42.4157 17.6214C45.4313 17.6214 46.9079 15.5376 46.9079 13.7908C46.9079 10.0214 43.5466 9.86819 41.6932 9.86819H40.4053V8.64242H41.6304C44.0178 8.64242 46.1226 7.60045 46.1226 4.93435C46.1226 3.03434 44.8659 1.56337 42.8869 1.56337C39.5258 1.56337 37.5782 3.31014 37.641 5.91497H36.2274V5.94564Z" fill="white"></path><path d="M55.8932 9.86686C55.8932 11.8588 56.4586 17.3443 62.1442 17.3443C64.6571 17.3443 66.6363 16.4862 68.7096 14.4636L69.7148 15.5056C67.8614 17.6201 64.6571 18.8152 61.8931 18.8152C57.3069 18.8152 52.375 16.0265 52.375 9.40719C52.375 3.09428 56.9612 0.152344 61.1078 0.152344C65.5682 0.152344 70.0287 3.09428 69.7148 9.86686H55.8932ZM66.2907 8.64104C66.2907 4.04428 63.9976 1.3475 61.0132 1.3475C57.9348 1.3475 55.7362 4.59589 55.8932 8.64104H66.2907Z" fill="white"></path><path d="M75.6492 17.0697H78.6019V1.96167H73.5443V5.97619H71.377V0.613281H88.9366V5.97619H86.738V1.96167H81.712V17.0697H84.6647V18.4181H75.6492V17.0697Z" fill="white"></path><path d="M108.476 17.0698V18.4182H102.539V16.794C101.22 18.1424 98.8951 18.8472 96.9476 18.8472C92.55 18.8472 90.2881 15.7214 90.2881 12.9327C90.2881 9.68435 92.8327 6.43593 97.1991 6.43593C99.3665 6.43593 101.314 7.14079 102.539 8.64242V5.85367C102.539 2.3295 100.309 1.44079 98.4242 1.44079C95.7225 1.44079 93.6809 3.09563 93.3353 3.40208L92.2356 1.90047C94.089 0.582722 95.8483 0.123047 98.3301 0.123047C105.335 0.123047 105.429 4.19885 105.429 8.61175V17.0085H108.476V17.0698ZM102.508 11.1553C102.005 9.77627 100.748 8.06016 98.5499 8.06016C95.8483 8.06016 93.4294 9.8069 93.4294 12.9634C93.4294 15.5989 95.7854 17.1924 98.0473 17.1924C99.6175 17.1924 101.66 16.273 102.508 14.2505V11.1553Z" fill="white"></path><path d="M122.201 0.643875V3.46323H122.39C123.301 1.34872 124.589 0.214844 126.6 0.214844C127.102 0.214844 128.641 0.337425 129.552 1.50194L127.982 3.9842C127.196 2.81968 126.254 2.54388 125.469 2.54388C123.678 2.54388 122.17 4.96486 122.17 7.66163V17.1003H125.154V18.4487H116.139V17.1003H119.123V1.99226H116.139V0.643875H122.201Z" fill="white"></path><path d="M136.874 0.519531V12.4711C136.874 13.3905 136.874 17.1905 140.864 17.1905C143.377 17.1905 145.544 15.6889 145.544 12.0728V1.86792H142.56V0.519531H148.623V16.976H151.607V18.3244H145.544V16.8841L145.733 15.9954H145.513L145.042 16.8534C143.314 18.6308 141.178 18.8147 139.701 18.8147C133.764 18.8147 133.764 13.7276 133.764 12.2873V1.86792H130.78V0.519531H136.874Z" fill="white"></path><path d="M112.215 18.8123C113.273 18.8123 114.131 17.9493 114.131 16.8847C114.131 15.8201 113.273 14.957 112.215 14.957C111.157 14.957 110.299 15.8201 110.299 16.8847C110.299 17.9493 111.157 18.8123 112.215 18.8123Z" fill="#B11116"></path></g><defs><clipPath id="clip0_2345_5005"><rect width="151.095" height="19" fill="white" transform="translate(0.542969)"></rect></clipPath></defs></svg> 