<?xml version="1.0" encoding="UTF-8"?> <svg xmlns="http://www.w3.org/2000/svg" width="204" height="40" viewBox="0 0 204 40" fill="none"><g clip-path="url(#clip0_2368_4641)"><path d="M0.261719 11.0253C0.261719 7.85803 2.83916 5.27934 6.00763 5.27934C9.17674 5.27934 11.7529 7.8574 11.7529 11.0253C11.7529 11.3836 11.716 11.7345 11.6535 12.0747C10.7316 11.687 9.72149 11.4718 8.66137 11.4718C5.86753 11.4718 3.42207 12.9635 2.06173 15.1894C0.955957 14.1424 0.261719 12.6645 0.261719 11.0253ZM9.906 19.211C9.906 17.3547 10.5633 15.651 11.6554 14.3151C10.7822 13.7791 9.7584 13.4645 8.66075 13.4645C5.49227 13.4645 2.91546 16.0413 2.91546 19.211C2.91546 22.3782 5.49227 24.9569 8.66075 24.9569C9.7584 24.9569 10.7822 24.6417 11.6554 24.1057C10.5633 22.7704 9.906 21.0654 9.906 19.211ZM20.3052 18.7626C17.5088 18.7626 15.0628 17.2684 13.703 15.0387C12.5941 16.0876 11.8993 17.5674 11.8993 19.2104C11.8993 22.3776 14.4755 24.9563 17.6439 24.9563C20.8124 24.9563 23.3905 22.3776 23.3905 19.2104C23.3905 18.8514 23.3523 18.5024 23.2898 18.1628C22.3698 18.5493 21.3622 18.7626 20.3052 18.7626ZM20.8675 5.30873C20.8762 5.45571 20.8912 5.59894 20.8912 5.74592C20.8912 9.37159 18.3795 12.4156 15.009 13.2506C15.8789 15.3176 17.9241 16.7712 20.3052 16.7712C23.4737 16.7712 26.0511 14.1919 26.0511 11.0246C26.0505 8.04816 23.772 5.59206 20.8675 5.30873ZM13.152 0C10.7735 0 8.72705 1.45352 7.85643 3.51997C11.2313 4.35181 13.7456 7.39645 13.7456 11.0253C13.7456 11.171 13.7381 11.3167 13.7293 11.4631C16.6276 11.1716 18.8979 8.71863 18.8979 5.74592C18.8979 2.57869 16.3211 0 13.152 0Z" fill="#A30C33"></path><path d="M36.158 6.07536C35.9429 6.07536 35.6089 6.21796 35.5138 6.28988C35.4419 6.36181 35.3224 6.62387 35.2999 7.173C35.2743 7.65084 35.2743 10.6117 35.2505 13.3323C35.2505 15.5051 35.2999 17.0562 35.2999 17.6535C35.3231 19.1108 35.3944 19.5404 36.7778 19.8969C37.2557 19.9926 37.4464 20.184 37.4464 20.3998C37.4464 20.5899 37.0418 20.7332 36.7065 20.7332C36.0861 20.7332 34.7245 20.5899 33.675 20.5899C32.9827 20.5899 31.8131 20.685 31.0738 20.685C30.5253 20.685 30.1895 20.5668 30.1895 20.3029C30.1895 20.1359 30.5253 19.9445 30.7624 19.8732C31.9313 19.5867 32.2184 19.2284 32.2903 18.1301C32.3629 17.1763 32.4342 15.6239 32.4342 14.4056C32.4342 13.6426 32.4342 8.29442 32.3866 7.60268C32.3153 6.76772 32.1946 6.38557 30.8824 6.21796C30.5716 6.17042 30.3333 6.00406 30.3333 5.8602C30.3333 5.66882 30.5485 5.52622 30.8349 5.47869C30.9769 5.45554 31.4078 5.45554 31.623 5.45554C33.1509 5.45554 35.1079 5.26416 36.1818 5.26416C38.474 5.26416 40.0257 5.69384 41.0039 6.64763C42.1253 7.74653 42.3893 9.03556 42.3893 9.87052C42.3893 11.8288 41.5055 12.8795 40.8132 13.4756C40.1915 14.0009 38.8787 14.5494 37.948 14.5494C37.686 14.5494 37.0168 14.5032 36.7072 14.3824C36.3719 14.2392 36.2056 14.121 36.2056 13.9059C36.2056 13.8095 36.3719 13.6669 36.5639 13.6669H36.9223C37.9243 13.6669 39.4059 12.473 39.4059 9.99061C39.4053 8.08052 38.1163 6.07536 36.158 6.07536Z" fill="white"></path><path d="M60.5647 12.8078C60.5647 15.9344 59.2287 17.9646 57.5569 19.3005C56.196 20.3513 54.1664 21.0186 52.3289 21.0186C49.8221 21.0186 47.6256 20.0648 46.1227 18.4656C44.8324 17.0802 44.0693 15.1951 44.0693 12.9973C44.0693 10.0853 45.3577 8.22399 47.1484 6.79111C48.2229 5.95552 50.2287 5.07178 52.2326 5.07178C57.5088 5.0724 60.5647 8.98703 60.5647 12.8078ZM48.9621 7.12572C48.151 7.91378 47.2904 9.63186 47.2904 12.4732C47.2904 16.1489 49.5357 20.1361 53.0206 20.1361C54.3341 20.1361 55.1452 19.4675 55.4555 19.1567C56.458 18.1541 57.2936 16.102 57.2936 13.5471C57.2936 11.6614 56.5537 8.7969 54.8113 7.19702C53.9988 6.48152 52.711 5.90799 51.6603 5.90799C50.5845 5.90862 49.5125 6.57721 48.9621 7.12572Z" fill="white"></path><path d="M74.8255 5.45552C75.3978 5.59812 75.9957 5.74135 76.5442 5.81327C76.7112 5.81327 76.9026 6.09973 76.9026 6.4581C76.9257 7.12545 76.9745 7.96103 77.0214 8.65402C77.0458 9.155 76.8782 9.56091 76.6167 9.56091C76.4973 9.56091 76.2828 9.27446 76.162 8.91608C75.9237 8.17681 75.5654 7.53198 75.1588 7.22114C74.1331 6.36241 72.916 5.83642 71.627 5.83642C67.8312 5.83642 66.0412 8.84478 66.0412 12.473C66.0412 14.0728 66.3276 15.4569 66.853 16.5077C68.1658 19.1339 70.3379 20.0652 72.2005 20.0652C72.5107 20.0652 73.6803 20.0176 74.5159 19.5154C75.3984 19.0151 76.0426 18.3214 76.5923 17.3439C76.8788 16.8185 77.0464 16.6027 77.2378 16.6027C77.4992 16.6027 77.4992 17.2238 77.4267 17.4871C77.3085 18.0825 76.9263 19.1339 76.7112 19.5642C76.6393 19.7787 76.2108 20.1602 75.8518 20.3272C75.5178 20.4461 73.8711 21.0183 71.6745 21.0183C68.1401 21.0183 65.6346 19.4435 64.6558 18.3214C63.7483 17.272 62.6494 15.6008 62.6494 12.9508C62.6494 10.0619 64.2731 8.03296 65.2756 7.22051C67.3046 5.54996 69.7632 5.07275 71.7214 5.07275C72.8197 5.07275 73.9661 5.23975 74.8255 5.45552Z" fill="white"></path><path d="M79.709 5.3362C80.2812 5.3362 81.4283 5.45504 82.1676 5.45504C82.8837 5.45504 84.2678 5.35934 84.8407 5.35934C85.3185 5.35934 85.5812 5.47943 85.5812 5.69395C85.5812 5.90848 85.2228 6.02794 84.9608 6.10049C84.0295 6.36255 83.8381 6.48201 83.7668 7.55589C83.7187 8.43963 83.7431 11.1128 83.7431 12.2348C83.7431 12.3305 83.8143 12.4731 83.9094 12.4731C85.1984 12.3774 85.9865 11.9721 86.8452 10.5868C87.5144 9.48912 87.9917 8.58098 88.589 7.65095C89.544 6.07485 90.6904 5.07227 91.9788 5.07227C92.79 5.07227 93.2203 5.40625 93.2203 6.07485C93.2203 6.28937 93.0521 6.69591 92.9095 6.83913C92.7194 7.05303 92.5036 7.10182 92.2171 7.05303C91.9551 7.0055 91.6449 6.9342 91.4053 6.9342C89.9968 6.9342 89.377 7.93678 88.7084 8.98689C88.0392 10.0383 87.5138 10.8738 87.1561 11.3748C87.1317 11.4224 87.1317 11.518 87.1561 11.565C87.7058 12.6151 89.8292 15.9818 90.8799 17.3659C92.456 19.443 93.0759 19.6106 94.3424 19.8964C94.4856 19.9433 94.7245 20.0403 94.7245 20.1597C94.7245 20.3737 94.5813 20.5175 94.2467 20.6138C93.9114 20.7089 93.3629 20.732 92.815 20.732C90.7142 20.732 89.6879 20.3987 88.7553 19.1565C87.8722 18.0589 86.8696 16.5072 85.7726 14.7641C84.9833 13.4988 84.6737 13.0929 83.9094 13.0691C83.79 13.0691 83.7662 13.2374 83.7431 13.3556C83.7431 15.2901 83.8143 17.7968 83.8381 18.6793C83.8631 19.1565 83.9813 19.5143 85.0321 19.7782C85.4618 19.8971 85.7251 20.0647 85.7251 20.2554C85.7251 20.4712 85.3185 20.6144 84.9376 20.6144C84.4123 20.6144 82.7642 20.5663 82.0243 20.5663C81.2844 20.5663 80.0905 20.6614 79.3262 20.6614C78.9691 20.6614 78.6826 20.4712 78.6826 20.3023C78.6826 20.0891 78.8734 19.9684 79.3981 19.8502C80.5445 19.5868 80.8072 19.2522 80.8798 17.7968C80.9267 16.6022 80.9267 14.9561 80.9267 12.4012C80.9267 9.60795 80.8798 8.70044 80.8554 7.84171C80.8298 6.7203 80.6171 6.40883 79.7815 6.17054C79.1605 6.00355 78.9922 5.83655 78.9922 5.66894C78.9922 5.45504 79.3756 5.3362 79.709 5.3362Z" fill="white"></path><path d="M110.921 12.8078C110.921 15.9344 109.583 17.9646 107.912 19.3005C106.551 20.3513 104.522 21.0186 102.684 21.0186C100.177 21.0186 97.9817 20.0648 96.4769 18.4656C95.1885 17.0802 94.4248 15.1951 94.4248 12.9973C94.4248 10.0853 95.7145 8.22399 97.5045 6.79111C98.5783 5.95552 100.583 5.07178 102.589 5.07178C107.864 5.0724 110.921 8.98703 110.921 12.8078ZM99.3182 7.12572C98.5064 7.91378 97.6471 9.63186 97.6471 12.4732C97.6471 16.1489 99.8905 20.1361 103.377 20.1361C104.691 20.1361 105.501 19.4675 105.812 19.1567C106.815 18.1541 107.651 16.102 107.651 13.5471C107.651 11.6614 106.91 8.7969 105.168 7.19702C104.356 6.48152 103.067 5.90799 102.016 5.90799C100.942 5.90862 99.8668 6.57721 99.3182 7.12572Z" fill="white"></path><path d="M117.352 12.2829C118.975 12.2829 122.126 12.1866 124.632 12.1866C124.728 12.1866 124.824 11.9489 124.848 11.5899C124.895 11.2803 124.895 8.48708 124.8 7.55643C124.704 6.69645 124.584 6.45878 123.629 6.19422C123.296 6.10041 122.937 5.95655 122.937 5.71701C122.937 5.55064 123.177 5.40679 123.726 5.40679C124.036 5.40679 125.803 5.47934 126.423 5.47934C127.187 5.47934 128.692 5.38428 128.977 5.38428C129.432 5.38428 129.718 5.50311 129.718 5.69387C129.718 5.93279 129.503 6.07601 128.954 6.21861C128.095 6.41062 127.951 6.79214 127.903 7.48388C127.785 8.60654 127.712 10.7549 127.712 14.1454C127.712 16.4852 127.784 17.7267 127.807 18.5135C127.831 19.4442 128.07 19.5161 129.026 19.8263C129.455 19.9702 129.693 20.1371 129.693 20.3285C129.693 20.5906 129.358 20.6619 128.929 20.6619C128.523 20.6619 127.234 20.5906 126.517 20.5906C125.992 20.5906 124.082 20.7101 123.605 20.7101C123.033 20.7101 122.794 20.5906 122.794 20.3748C122.794 20.1609 123.104 19.9702 123.438 19.8738C124.607 19.5636 124.656 19.3741 124.776 17.606C124.847 16.6516 124.871 14.4069 124.823 13.7627C124.823 13.5481 124.728 13.4518 124.631 13.4518C122.721 13.4518 117.828 13.3812 117.351 13.4287C117.232 13.4518 117.04 13.6432 117.04 13.7864C116.993 14.6702 117.04 17.2245 117.065 17.9881C117.088 19.1114 117.232 19.4686 118.209 19.755C118.711 19.8982 119.045 20.0902 119.045 20.3523C119.069 20.5906 118.592 20.6625 118.28 20.6625C118.113 20.6625 116.133 20.5912 115.297 20.5912C114.747 20.5912 113.531 20.6869 112.719 20.6869C112.099 20.6869 111.883 20.5681 111.883 20.3761C111.883 20.1146 112.147 19.9714 112.551 19.8519C113.603 19.5655 113.816 19.3022 113.936 18.2996C114.031 17.3458 114.151 13.7877 114.151 10.5173C114.151 9.80113 114.198 8.48833 114.151 7.53329C114.103 6.74586 113.889 6.48318 113.101 6.24426C112.551 6.07726 112.289 5.90965 112.289 5.71826C112.289 5.48059 112.599 5.38553 113.03 5.38553C113.673 5.38553 114.986 5.48059 115.607 5.48059C116.61 5.48059 117.684 5.40804 118.257 5.40804C118.757 5.40804 119.045 5.50436 119.045 5.71826C119.045 5.98157 118.735 6.1248 118.233 6.24426C117.23 6.45941 117.158 6.91223 117.134 7.89104C117.087 8.75039 116.991 11.5192 117.064 11.9733C117.088 12.1628 117.184 12.2829 117.352 12.2829Z" fill="white"></path><path d="M142.795 5.31152C142.962 5.31152 143.106 5.43098 143.106 5.57421C143.059 6.26657 143.082 7.79452 143.106 8.60697C143.129 8.91656 142.962 9.37 142.772 9.37C142.581 9.37 142.341 9.25117 142.198 8.70203C141.888 7.65129 141.458 6.55302 140.575 6.45858C139.835 6.36289 138.044 6.38665 137.543 6.41042C137.066 6.41042 136.947 6.55365 136.947 6.79194C136.85 8.03344 136.85 10.1818 136.85 11.7811C136.85 13.4522 136.875 16.6526 136.875 18.3463C136.899 19.3745 137.28 19.6122 138.38 19.8743C138.736 19.9931 138.998 20.1607 138.998 20.3515C138.998 20.5422 138.712 20.7105 138.283 20.7105C137.686 20.7105 136.231 20.591 135.323 20.591C134.439 20.591 132.936 20.7342 132.458 20.7342C132.077 20.7342 131.814 20.5191 131.814 20.4009C131.814 20.1376 132.1 19.9706 132.53 19.8749C133.557 19.6372 133.653 19.2301 133.7 18.6815C133.772 17.9404 133.963 16.5094 133.963 11.8299C133.963 9.61017 133.963 8.15415 133.915 7.53309C133.867 6.74503 133.7 6.45921 132.769 6.24343C132.244 6.1002 132.053 5.95698 132.053 5.71806C132.053 5.55107 132.387 5.40722 132.744 5.40722C133.796 5.40722 134.727 5.47914 135.68 5.47914H138.784C141.935 5.47852 142.508 5.38345 142.795 5.31152Z" fill="white"></path><path d="M150.958 6.07536C150.744 6.07536 150.408 6.21796 150.314 6.28988C150.242 6.36181 150.123 6.62387 150.098 7.173C150.076 7.65084 150.076 10.6117 150.051 13.3323C150.051 15.5051 150.098 17.0562 150.098 17.6535C150.123 19.1108 150.194 19.5404 151.579 19.8969C152.056 19.9926 152.247 20.184 152.247 20.3998C152.247 20.5899 151.841 20.7332 151.507 20.7332C150.885 20.7332 149.526 20.5899 148.475 20.5899C147.782 20.5899 146.613 20.685 145.873 20.685C145.323 20.685 144.989 20.5668 144.989 20.3029C144.989 20.1359 145.323 19.9445 145.563 19.8732C146.732 19.5867 147.019 19.2284 147.09 18.1301C147.161 17.1763 147.233 15.6239 147.233 14.4056C147.233 13.6426 147.233 8.29442 147.186 7.60268C147.113 6.76772 146.994 6.38557 145.682 6.21796C145.371 6.17042 145.133 6.00343 145.133 5.8602C145.133 5.66882 145.348 5.52622 145.635 5.47869C145.778 5.45554 146.208 5.45554 146.423 5.45554C147.949 5.45554 149.907 5.26416 150.982 5.26416C153.273 5.26416 154.826 5.69384 155.804 6.64763C156.926 7.74653 157.189 9.03556 157.189 9.87052C157.189 11.8288 156.306 12.8795 155.612 13.4756C154.993 14.0009 153.68 14.5494 152.748 14.5494C152.486 14.5494 151.817 14.5032 151.508 14.3824C151.173 14.2392 151.005 14.121 151.005 13.9059C151.005 13.8095 151.173 13.6669 151.364 13.6669H151.721C152.724 13.6669 154.204 12.473 154.204 9.99061C154.204 8.08052 152.915 6.07536 150.958 6.07536Z" fill="white"></path><path d="M167.499 5.47861C168.286 5.47861 169.264 5.38354 169.598 5.33538C169.694 5.31099 169.861 5.47861 169.886 5.6456C169.909 6.0759 169.909 7.72331 169.909 8.1999C169.909 8.53388 169.741 8.86849 169.528 8.86849C169.312 8.86849 169.122 8.51074 169.074 8.27182C168.762 6.93463 168.095 6.57688 167.546 6.48119C167.092 6.40926 166.067 6.31357 164.227 6.33796C164.132 6.33796 163.94 6.43366 163.916 7.00656C163.869 7.60323 163.798 10.9218 163.821 12.2346C163.821 12.3059 163.916 12.4723 164.06 12.4723H165.97C167.665 12.4723 167.618 12.3766 168.071 11.3265C168.214 10.9687 168.381 10.7048 168.596 10.7048C168.787 10.7048 168.858 11.1113 168.834 11.374C168.787 12.0432 168.739 12.4717 168.739 13.0208C168.739 13.6662 168.787 14.049 168.834 14.6444C168.858 15.0747 168.716 15.3612 168.525 15.3612C168.334 15.3612 168.144 15.0754 168.071 14.8358C167.76 13.7851 167.45 13.6187 166.519 13.5474C165.755 13.4749 164.872 13.4749 164.133 13.4749C164.037 13.4749 163.822 13.7138 163.822 13.7613C163.727 14.4305 163.751 16.2918 163.774 17.0793C163.799 17.6528 163.774 18.5372 163.869 19.0375C163.941 19.2527 164.157 19.5629 164.395 19.611C164.777 19.6817 165.517 19.7536 166.329 19.7536C167.045 19.7536 167.929 19.7536 168.526 19.5397C169.242 19.2764 169.887 18.7042 170.411 17.7723C170.745 17.1512 170.961 16.9373 171.152 16.9373C171.392 16.9373 171.367 17.4383 171.343 17.6309C171.343 17.821 170.65 20.0176 170.436 20.3997C170.365 20.5661 169.982 20.7093 169.863 20.7093C169.6 20.7093 163.704 20.5899 161.914 20.5899C160.314 20.5899 160.051 20.7093 159.192 20.7093C158.738 20.7093 158.38 20.6374 158.38 20.3997C158.38 20.1839 158.691 20.0176 159.097 19.9206C160.314 19.6354 160.623 19.3953 160.72 18.1081C160.791 17.1043 160.91 15.2905 160.91 12.3303C160.91 9.51395 160.934 8.41505 160.887 7.72331C160.839 6.86333 160.648 6.38675 159.622 6.19411C159.12 6.1003 158.857 6.0046 158.857 5.76569C158.857 5.55053 159.264 5.40668 159.598 5.40668C160.72 5.40668 162.678 5.47923 163.918 5.47923L167.499 5.47861Z" fill="white"></path><path d="M184.621 5.45552C185.193 5.59812 185.791 5.74135 186.34 5.81327C186.507 5.81327 186.697 6.09973 186.697 6.4581C186.721 7.12545 186.768 7.96103 186.818 8.65402C186.841 9.155 186.673 9.56091 186.411 9.56091C186.292 9.56091 186.076 9.27446 185.957 8.91608C185.719 8.17681 185.36 7.53198 184.954 7.22114C183.927 6.36241 182.71 5.83642 181.421 5.83642C177.625 5.83642 175.835 8.84478 175.835 12.473C175.835 14.0728 176.121 15.4569 176.647 16.5077C177.959 19.1339 180.132 20.0652 181.994 20.0652C182.304 20.0652 183.475 20.0176 184.309 19.5154C185.193 19.0151 185.838 18.3214 186.385 17.3439C186.672 16.8185 186.841 16.6027 187.031 16.6027C187.294 16.6027 187.294 17.2238 187.222 17.4871C187.103 18.0825 186.721 19.1339 186.505 19.5642C186.434 19.7787 186.004 20.1602 185.646 20.3272C185.312 20.4461 183.665 21.0183 181.468 21.0183C177.935 21.0183 175.43 19.4435 174.45 18.3214C173.543 17.272 172.444 15.6008 172.444 12.9508C172.444 10.0619 174.067 8.03296 175.071 7.22051C177.099 5.54996 179.558 5.07275 181.516 5.07275C182.616 5.07275 183.761 5.23975 184.621 5.45552Z" fill="white"></path><path d="M200.888 5.45552C201.46 5.59812 202.056 5.74135 202.605 5.81327C202.773 5.81327 202.964 6.09973 202.964 6.4581C202.988 7.12545 203.036 7.96103 203.083 8.65402C203.108 9.155 202.939 9.56091 202.677 9.56091C202.559 9.56091 202.343 9.27446 202.225 8.91608C201.985 8.17681 201.627 7.53198 201.221 7.22114C200.194 6.36241 198.978 5.83642 197.689 5.83642C193.893 5.83642 192.102 8.84478 192.102 12.473C192.102 14.0728 192.389 15.4569 192.914 16.5077C194.227 19.1339 196.399 20.0652 198.262 20.0652C198.571 20.0652 199.742 20.0176 200.577 19.5154C201.46 19.0151 202.104 18.3214 202.654 17.3439C202.939 16.8185 203.108 16.6027 203.298 16.6027C203.56 16.6027 203.56 17.2238 203.489 17.4871C203.37 18.0825 202.988 19.1339 202.772 19.5642C202.702 19.7787 202.271 20.1602 201.914 20.3272C201.579 20.4461 199.932 21.0183 197.735 21.0183C194.201 21.0183 191.696 19.4435 190.716 18.3214C189.81 17.272 188.712 15.6008 188.712 12.9508C188.712 10.0619 190.336 8.03296 191.338 7.22051C193.366 5.54996 195.826 5.07275 197.783 5.07275C198.882 5.07275 200.027 5.23975 200.888 5.45552Z" fill="white"></path><path d="M38.0431 28.5506C38.4547 28.5506 39.3165 28.5119 39.471 28.5119C39.7156 28.5119 39.8694 28.5763 39.8694 28.6801C39.8694 28.7958 39.7412 28.8852 39.4579 28.9622C38.905 29.1048 38.8662 29.2205 38.8274 29.6058C38.7762 30.1324 38.763 30.9698 38.763 32.3452C38.763 33.5936 38.7887 35.1496 38.8018 35.5756C38.8143 36.0759 38.9563 36.1541 39.4579 36.2823C39.6255 36.333 39.8181 36.4356 39.8181 36.5394C39.8181 36.6807 39.6511 36.7445 39.4191 36.7445C39.2002 36.7445 38.4153 36.6939 38.0294 36.6939C37.7336 36.6939 36.8079 36.7583 36.5502 36.7583C36.2413 36.7583 36.0999 36.6807 36.0999 36.5656C36.0999 36.4487 36.2794 36.3592 36.4602 36.3205C37.0781 36.166 37.1294 36.0378 37.1807 35.0852C37.1938 34.8269 37.2063 33.5166 37.2063 32.2038C37.2194 30.8285 37.1807 29.6058 37.1682 29.3087C37.1682 29.1417 37.0518 29.0779 36.9874 29.0779C36.0618 29.0779 33.707 29.0391 33.3599 29.0779C33.2954 29.0779 33.1922 29.1805 33.1797 29.2711C33.1409 29.6058 33.1147 31.0074 33.1147 32.3852C33.1147 33.6968 33.1278 34.9701 33.1278 35.291C33.1278 35.8958 33.2304 36.0897 33.7583 36.2429C34.0284 36.3205 34.2079 36.423 34.2079 36.5269C34.2211 36.6551 33.964 36.732 33.7964 36.732C33.7057 36.732 32.6381 36.6932 32.1884 36.6932C31.8932 36.6932 31.2628 36.7577 30.8381 36.7577C30.4778 36.7577 30.3496 36.6676 30.3496 36.565C30.3496 36.4224 30.6067 36.3461 30.7486 36.308C31.3403 36.1791 31.4172 35.9852 31.456 35.433C31.4817 34.9695 31.5717 33.6061 31.5717 32.0112C31.5717 30.9429 31.5974 30.1718 31.5717 29.6821C31.5454 29.2455 31.4041 29.0773 31.0051 28.9747C30.7099 28.8984 30.5679 28.7946 30.5679 28.692C30.5679 28.5631 30.7355 28.5112 30.9663 28.5112C31.314 28.5112 32.0214 28.55 32.3692 28.55L38.0431 28.5506Z" fill="white"></path><path d="M45.4415 32.2045C45.7892 32.6029 46.0719 33.1952 46.0719 33.8894C46.0719 34.8289 45.6604 35.5881 44.9655 36.1279C44.245 36.6939 43.4351 36.7846 42.9854 36.7846C42.7527 36.7846 42.5088 36.7715 42.3543 36.7452C42.303 36.7327 42.2517 36.8615 42.2517 36.926C42.2386 37.5045 42.2649 38.5846 42.303 38.8686C42.3418 39.2151 42.4062 39.4077 42.9203 39.5622C43.178 39.6397 43.2675 39.7423 43.2675 39.833C43.2675 39.9493 43.0623 40 42.9078 40C42.5476 40 41.6601 39.9356 41.1966 39.9356C40.8751 39.9356 40.7082 39.9744 40.1546 39.9744C39.9364 39.9744 39.7812 39.8974 39.7812 39.7811C39.7812 39.7029 39.9107 39.6003 40.1159 39.5497C40.72 39.4215 40.7976 39.267 40.8357 38.5077C40.8489 38.058 40.8745 37.0285 40.8745 35.7295C40.8745 34.8676 40.8877 33.426 40.8614 32.9382C40.8489 32.668 40.8095 32.6161 40.7707 32.5785C40.5399 32.3978 40.2822 32.1789 40.2822 32.1151C40.2822 32.05 40.4242 31.8699 40.5524 31.818C40.8095 31.7411 41.5168 31.5222 41.8646 31.317C41.9941 31.2395 42.0966 31.2007 42.1223 31.2007C42.1736 31.2007 42.2761 31.317 42.2761 31.3814C42.2505 31.6122 42.2505 31.7792 42.2374 31.9856C42.2374 32.0375 42.3018 32.0882 42.3405 32.0763C42.5726 31.9218 42.9191 31.7411 43.0992 31.6648C43.3181 31.5741 43.6139 31.4846 43.9861 31.4846C44.5027 31.484 45.095 31.8055 45.4415 32.2045ZM42.4194 32.3971C42.3806 32.4359 42.2905 32.5904 42.2774 32.7324C42.2005 33.2972 42.2005 34.3391 42.2261 35.0215C42.2261 35.2523 42.2774 35.4718 42.3549 35.6132C42.6258 36.0885 43.1399 36.3468 43.4101 36.3468C43.552 36.3468 43.6928 36.308 43.8472 36.1923C44.5165 35.7038 44.6196 34.5974 44.6196 34.2503C44.6196 33.9013 44.5546 33.2471 44.0793 32.7186C43.7959 32.3971 43.32 32.2427 43.1148 32.2427C42.869 32.2427 42.5863 32.3071 42.4194 32.3971Z" fill="white"></path><path d="M52.7104 34.1346C52.7104 35.2273 52.0418 36.0122 51.5652 36.3212C51.038 36.6945 50.3825 36.8478 49.7908 36.8478C49.2117 36.8478 48.4912 36.5782 48.0152 36.1792C47.4623 35.7295 47.0508 34.9195 47.0508 34.199C47.0508 33.2997 47.4486 32.6167 47.9377 32.2051C48.3236 31.8718 49.0441 31.459 49.996 31.459C51.2831 31.4577 52.7104 32.4616 52.7104 34.1346ZM49.1222 32.1664C48.8258 32.4359 48.595 33.0019 48.595 33.8507C48.595 34.2747 48.6463 34.7632 48.7489 35.0859C49.019 35.9872 49.6107 36.4237 50.1517 36.4237C50.2806 36.4237 50.5245 36.3212 50.7171 36.0904C50.9873 35.7551 51.1931 35.0728 51.1931 34.3398C51.1931 33.7994 51.0767 32.9638 50.6783 32.3978C50.4463 32.1007 50.1123 31.8837 49.7527 31.8837C49.5332 31.883 49.328 31.9737 49.1222 32.1664Z" fill="white"></path><path d="M58.0371 31.8054C58.2047 31.9218 58.256 32.1019 58.256 32.2689C58.256 32.4997 57.8313 32.8731 57.7544 32.8731C57.6386 32.8731 57.4322 32.783 57.1627 32.5516C56.8149 32.2689 56.5447 31.9974 56.1463 31.9974C56.005 31.9974 55.7861 32.0756 55.5935 32.2808C55.2714 32.6154 55.0925 33.2583 55.0925 33.8506C55.0925 34.6862 55.4396 35.124 55.5034 35.2016C55.7479 35.5356 56.2114 35.8952 56.9056 35.8952C57.279 35.8952 57.7037 35.742 58.1409 35.4711C58.2053 35.4324 58.3085 35.4711 58.3085 35.575C58.3085 35.7032 58.2053 35.8702 58.1027 35.9727C57.6655 36.4349 56.9188 36.8346 56.122 36.8346C55.1832 36.8346 54.4627 36.3468 54.1024 35.8051C53.8447 35.4067 53.6777 34.8407 53.6777 34.3128C53.6777 33.3102 54.1925 32.5779 54.9643 32.0756C55.4146 31.7541 56.2633 31.5215 56.778 31.5215C57.1627 31.5221 57.805 31.6259 58.0371 31.8054Z" fill="white"></path><path d="M60.1341 36.7327C59.9796 36.7327 59.8126 36.6939 59.8126 36.5782C59.8126 36.4757 59.9027 36.3994 60.121 36.3331C60.4681 36.2442 60.6613 36.1529 60.6876 35.909C60.7139 35.5225 60.752 34.7 60.752 33.7606V32.2421C60.752 32.1901 60.7258 32.127 60.6482 32.1138C60.4812 32.1007 60.1604 32.0876 60.0572 32.0876C59.6713 32.0876 59.5043 32.461 59.3754 32.8206C59.2722 33.0658 59.1697 33.1815 59.0665 33.1815C58.9508 33.1815 58.8995 32.9494 58.912 32.7574C58.9251 32.3202 59.0021 31.9594 59.0021 31.676C58.9889 31.5997 59.0927 31.4834 59.1565 31.4834C59.221 31.4834 59.2985 31.5353 59.388 31.5735C59.478 31.6122 59.8896 31.6385 60.1985 31.6385H62.719C63.028 31.6385 63.504 31.5997 63.6065 31.5616C63.6972 31.5228 63.7873 31.484 63.8517 31.484C63.9161 31.484 63.968 31.6004 63.968 31.6767C63.9293 32.05 63.9418 32.3578 63.9549 32.7968C63.968 33.0539 63.8398 33.2084 63.7229 33.2084C63.6328 33.2084 63.5684 33.1302 63.5046 32.8731C63.4014 32.3972 63.1825 32.0882 62.8479 32.0882C62.5908 32.0882 62.295 32.1013 62.2049 32.1145C62.1399 32.1276 62.1149 32.2308 62.1017 32.3071C62.0886 32.6667 62.1017 33.3366 62.1017 33.9282C62.1017 34.8677 62.1149 35.4074 62.1536 35.7683C62.1924 36.141 62.2825 36.2186 62.6421 36.3212C62.8479 36.3856 62.9386 36.4757 62.9386 36.5276C62.9386 36.6289 62.7578 36.7327 62.6158 36.7327C62.1787 36.7327 61.6646 36.6939 61.3812 36.6939C61.086 36.6939 60.5588 36.7327 60.1341 36.7327Z" fill="white"></path><path d="M69.7315 32.2045C70.0793 32.6029 70.362 33.1952 70.362 33.8894C70.362 34.8289 69.9504 35.5881 69.2556 36.1279C68.5351 36.6939 67.7251 36.7846 67.2754 36.7846C67.0428 36.7846 66.7988 36.7715 66.6443 36.7452C66.5931 36.7327 66.5418 36.8615 66.5418 36.926C66.5286 37.5045 66.5549 38.5846 66.5931 38.8686C66.6318 39.2151 66.6963 39.4077 67.2104 39.5622C67.4681 39.6397 67.5575 39.7423 67.5575 39.833C67.5575 39.9493 67.3517 40 67.1972 40C66.8376 40 65.9495 39.9356 65.4867 39.9356C65.1652 39.9356 64.9982 39.9744 64.4447 39.9744C64.2264 39.9744 64.0713 39.8974 64.0713 39.7811C64.0713 39.7029 64.2008 39.6003 64.4059 39.5497C65.0101 39.4215 65.0876 39.267 65.1258 38.5077C65.1389 38.058 65.1646 37.0285 65.1646 35.7295C65.1646 34.8676 65.1777 33.426 65.1514 32.9382C65.1389 32.668 65.0995 32.6161 65.0607 32.5785C64.8299 32.3978 64.5723 32.1789 64.5723 32.1151C64.5723 32.05 64.7142 31.8699 64.8425 31.818C65.0995 31.7411 65.8075 31.5222 66.1546 31.317C66.2841 31.2395 66.3867 31.2007 66.4123 31.2007C66.4636 31.2007 66.5662 31.317 66.5662 31.3814C66.5405 31.6122 66.5405 31.7792 66.5274 31.9856C66.5274 32.0375 66.5918 32.0882 66.6306 32.0763C66.8626 31.9218 67.2091 31.7411 67.3892 31.6648C67.6082 31.5741 67.904 31.4846 68.2761 31.4846C68.7921 31.484 69.385 31.8055 69.7315 32.2045ZM66.7088 32.3971C66.67 32.4359 66.5799 32.5904 66.5668 32.7324C66.4899 33.2972 66.4899 34.3391 66.5155 35.0215C66.5155 35.2523 66.5668 35.4718 66.6443 35.6132C66.9152 36.0885 67.4293 36.3468 67.6995 36.3468C67.8414 36.3468 67.9822 36.308 68.1366 36.1923C68.8059 35.7038 68.9091 34.5974 68.9091 34.2503C68.9091 33.9013 68.844 33.2471 68.3687 32.7186C68.0854 32.3971 67.6094 32.2427 67.4043 32.2427C67.1585 32.2427 66.8758 32.3071 66.7088 32.3971Z" fill="white"></path><path d="M74.9301 32.1525C75.0846 32.3589 75.2128 32.681 75.2128 33.2595C75.2128 33.7617 75.1615 35.2915 75.1615 35.4341C75.1615 35.7938 75.4192 35.9483 75.6374 35.9483C75.7019 35.9483 75.9589 35.8457 76.0884 35.7938C76.1265 35.7675 76.1397 35.7813 76.1647 35.8063C76.191 35.8582 76.2035 35.9489 76.2035 35.987C76.2035 36.2316 75.5993 36.8614 74.8788 36.8614C74.506 36.8614 74.107 36.7451 73.9144 36.2441C73.9012 36.1934 73.8243 36.1672 73.7986 36.1934C73.4772 36.4242 72.9493 36.6694 72.7823 36.7332C72.6403 36.7838 72.3839 36.8358 72.2163 36.8358C71.7403 36.8358 71.2262 36.2572 71.2262 35.5367C71.2262 35.3041 71.3288 35.0608 71.457 34.88C71.5865 34.6999 71.8047 34.6229 71.9204 34.5723C72.2038 34.456 73.374 34.1351 73.6698 34.0444C73.8249 33.9938 73.9018 33.9018 73.9018 33.8512C73.915 33.7348 73.9406 33.0281 73.9281 32.8611C73.915 32.5521 73.6448 32.0368 73.0656 32.0368C72.8861 32.0368 72.7442 32.063 72.6541 32.1274C72.6022 32.1531 72.5765 32.2832 72.5765 32.7191C72.5765 32.771 72.5503 32.8098 72.5246 32.8361C72.4352 32.9261 71.4826 33.3502 71.3932 33.3502C71.3157 33.3502 71.2256 33.2464 71.2256 33.1694C71.2256 32.7973 71.5083 32.4502 72.3063 31.9354C72.7823 31.6265 73.4128 31.4595 73.5923 31.4595C74.3772 31.4588 74.7374 31.8698 74.9301 32.1525ZM73.7342 35.9095C73.7861 35.8707 73.8374 35.7162 73.8374 35.6643C73.8631 35.4842 73.8887 34.945 73.8887 34.5198C73.8887 34.4691 73.8374 34.3915 73.7986 34.3915C73.5791 34.3915 72.9875 34.5842 72.7567 34.7249C72.6016 34.8412 72.524 34.9056 72.524 35.2403C72.524 35.805 72.9874 36.0633 73.2326 36.0633C73.3477 36.064 73.6054 35.9864 73.7342 35.9095Z" fill="white"></path><path d="M82.4945 36.7446C82.173 36.7446 81.5426 36.694 81.2593 36.694C80.9641 36.694 80.5907 36.719 80.2173 36.719C80.0628 36.719 79.8695 36.6683 79.8695 36.527C79.8695 36.4106 80.0115 36.3587 80.2298 36.2949C80.4618 36.2443 80.5901 36.0898 80.6026 35.986C80.6288 35.7677 80.6413 35.3174 80.6413 34.4555C80.6413 34.3648 80.6026 34.301 80.5388 34.301L78.8532 34.3142C78.7631 34.3142 78.7375 34.3648 78.7244 34.5581C78.7112 34.777 78.7244 35.4718 78.75 35.7933C78.7631 36.0904 78.8407 36.2449 79.059 36.2955C79.2647 36.36 79.3811 36.4494 79.3811 36.5276C79.3811 36.6039 79.2779 36.7327 79.0077 36.7327C78.9176 36.7327 78.3522 36.694 78.0683 36.694C77.6567 36.694 77.1039 36.7327 76.8856 36.7327C76.6667 36.7327 76.5635 36.6164 76.5635 36.5138C76.5635 36.4369 76.6792 36.3468 76.8856 36.2949C77.1808 36.218 77.2458 36.1261 77.2971 35.9978C77.3484 35.8058 77.3747 35.2398 77.3747 34.2622C77.3747 33.2847 77.3747 32.7699 77.3615 32.526C77.3484 32.2171 77.3096 32.1276 76.9244 32.0119C76.7311 31.9469 76.6279 31.8574 76.6279 31.7667C76.6279 31.6385 76.7824 31.5997 76.9494 31.5997C77.2583 31.5997 77.7731 31.6385 78.0558 31.6385C78.4673 31.6385 78.6474 31.5997 79.0465 31.5997C79.2522 31.5997 79.3679 31.6517 79.3679 31.7667C79.3679 31.843 79.3029 31.9212 79.1109 31.9975C78.7888 32.1145 78.75 32.2039 78.7375 32.4353C78.7244 32.8337 78.7244 33.5936 78.7244 33.7225C78.7375 33.7613 78.7757 33.8251 78.8276 33.8251H80.525C80.5638 33.8251 80.6407 33.7606 80.6407 33.71C80.6539 33.3622 80.6539 32.5898 80.6407 32.4485C80.6282 32.1395 80.525 32.0751 80.3192 31.9969C80.1648 31.9325 80.0109 31.8687 80.0109 31.7398C80.0109 31.6379 80.1648 31.5991 80.3449 31.5991C80.5769 31.5991 81.001 31.6379 81.3218 31.6379C81.7465 31.6379 82.0298 31.5991 82.3769 31.5991C82.5965 31.5991 82.7247 31.6635 82.7247 31.7536C82.7247 31.8806 82.5965 31.9325 82.442 31.9844C82.0173 32.1132 82.0304 32.2296 81.9917 32.5504C81.9785 32.6655 81.9785 33.3998 81.9785 34.0934C81.9785 34.7757 81.9917 35.3937 82.0173 35.7921C82.0304 36.1254 82.2231 36.1917 82.5195 36.3062C82.7253 36.3712 82.8147 36.4607 82.8147 36.5507C82.816 36.6808 82.6365 36.7446 82.4945 36.7446Z" fill="white"></path><path d="M87.8609 31.8054C88.0285 31.9218 88.0805 32.1019 88.0805 32.2689C88.0805 32.4997 87.6551 32.8731 87.5782 32.8731C87.4625 32.8731 87.2567 32.783 86.9866 32.5516C86.6388 32.2689 86.3686 31.9974 85.9702 31.9974C85.8289 31.9974 85.61 32.0756 85.4173 32.2808C85.0952 32.6154 84.9157 33.2583 84.9157 33.8506C84.9157 34.6862 85.2635 35.124 85.3273 35.2016C85.5718 35.5356 86.0346 35.8952 86.7289 35.8952C87.1023 35.8952 87.5269 35.742 87.9647 35.4711C88.0292 35.4324 88.1317 35.4711 88.1317 35.575C88.1317 35.7032 88.0285 35.8702 87.926 35.9727C87.4888 36.4349 86.7414 36.8346 85.9452 36.8346C85.0058 36.8346 84.2859 36.3468 83.9257 35.8051C83.668 35.4067 83.501 34.8407 83.501 34.3128C83.501 33.3102 84.0157 32.5779 84.7875 32.0756C85.2378 31.7541 86.0866 31.5215 86.6007 31.5215C86.9859 31.5221 87.6289 31.6259 87.8609 31.8054Z" fill="white"></path><path d="M89.9573 36.7327C89.8029 36.7327 89.6359 36.6939 89.6359 36.5782C89.6359 36.4757 89.7259 36.3994 89.9442 36.3331C90.2913 36.2442 90.4846 36.1529 90.5109 35.909C90.5371 35.5225 90.5753 34.7 90.5753 33.7606V32.2421C90.5753 32.1901 90.549 32.127 90.4715 32.1138C90.3045 32.1007 89.9836 32.0876 89.8804 32.0876C89.4945 32.0876 89.3275 32.461 89.1987 32.8206C89.0955 33.0658 88.9929 33.1815 88.8897 33.1815C88.774 33.1815 88.7227 32.9494 88.7352 32.7574C88.7484 32.3202 88.8253 31.9594 88.8253 31.676C88.8122 31.5997 88.916 31.4834 88.9798 31.4834C89.0448 31.4834 89.1218 31.5353 89.2112 31.5735C89.3013 31.6122 89.7134 31.6385 90.0224 31.6385H92.5429C92.8519 31.6385 93.3278 31.5997 93.4304 31.5616C93.5211 31.5228 93.6105 31.484 93.6756 31.484C93.7394 31.484 93.7913 31.6004 93.7913 31.6767C93.7525 32.05 93.765 32.3578 93.7782 32.7968C93.7913 33.0539 93.6625 33.2084 93.5461 33.2084C93.4561 33.2084 93.3916 33.1302 93.3278 32.8731C93.2246 32.3972 93.0064 32.0882 92.6718 32.0882C92.4147 32.0882 92.1189 32.1013 92.0288 32.1145C91.9644 32.1276 91.9387 32.2308 91.9256 32.3071C91.9131 32.6667 91.9256 33.3366 91.9256 33.9282C91.9256 34.8677 91.9387 35.4074 91.9775 35.7683C92.0163 36.141 92.1064 36.2186 92.466 36.3212C92.6718 36.3856 92.7624 36.4757 92.7624 36.5276C92.7624 36.6289 92.5817 36.7327 92.4397 36.7327C92.0025 36.7327 91.4878 36.6939 91.2051 36.6939C90.9093 36.6939 90.3814 36.7327 89.9573 36.7327Z" fill="white"></path><path d="M98.4741 33.8637C98.4097 33.8769 98.4485 33.9288 98.4997 33.9538C98.7305 34.0188 99.0145 34.1602 99.1164 34.2371C99.3103 34.3916 99.5799 34.6224 99.5799 35.1503C99.5799 35.8451 99.0651 36.2955 98.5123 36.5C98.0232 36.6807 97.3933 36.7064 96.8661 36.7064C96.5821 36.7064 96.2994 36.6939 95.9655 36.6939C95.5533 36.6939 95.0392 36.7201 94.5889 36.7326C94.4081 36.7451 94.2549 36.6301 94.2549 36.5262C94.2549 36.4112 94.4087 36.3718 94.5764 36.333C95.0261 36.2179 95.0392 36.0378 95.0648 35.7288C95.1036 35.4586 95.1167 35.0339 95.1167 34.0314C95.1167 33.5291 95.1293 33.0794 95.1036 32.5778C95.0911 32.2545 95.0523 32.1519 94.6151 32.0237C94.4607 31.9849 94.3318 31.8823 94.3318 31.7279C94.3318 31.6634 94.3831 31.5984 94.6026 31.5984C94.8334 31.5984 95.3613 31.6378 95.6183 31.6378C95.8629 31.6378 96.943 31.5728 97.3552 31.5728C98.1651 31.5728 99.2453 31.7779 99.2453 32.7955C99.2453 33.4015 98.8594 33.683 98.4741 33.8637ZM96.853 31.9993C96.6728 31.9993 96.5571 32.0381 96.5052 32.0762C96.4664 32.115 96.4414 32.1913 96.4283 32.3589C96.4152 32.5384 96.4026 33.4522 96.4283 33.6448C96.4414 33.7487 96.4927 33.7737 96.5696 33.7737C96.7885 33.7737 97.1876 33.7612 97.3933 33.683C97.728 33.556 97.9081 33.2727 97.9081 32.8993C97.9081 32.5516 97.5991 31.9993 96.853 31.9993ZM97.7148 34.3916C97.5216 34.2628 97.1232 34.1721 96.8917 34.1721C96.7373 34.1721 96.6597 34.1721 96.544 34.1984C96.4927 34.2109 96.4664 34.2628 96.4539 34.3528C96.4283 34.481 96.4283 34.9695 96.4414 35.3936C96.4414 35.64 96.4671 35.8451 96.5828 36.0253C96.686 36.1666 96.9562 36.3211 97.085 36.3211C97.7023 36.3211 98.1658 35.807 98.1658 35.2147C98.1651 34.8288 97.9469 34.558 97.7148 34.3916Z" fill="white"></path><path d="M106.065 34.1346C106.065 35.2273 105.397 36.0122 104.92 36.3212C104.393 36.6945 103.737 36.8478 103.145 36.8478C102.566 36.8478 101.846 36.5782 101.37 36.1792C100.817 35.7295 100.405 34.9195 100.405 34.199C100.405 33.2997 100.804 32.6167 101.292 32.2051C101.679 31.8718 102.399 31.459 103.35 31.459C104.637 31.4577 106.065 32.4616 106.065 34.1346ZM102.476 32.1664C102.18 32.4359 101.948 33.0019 101.948 33.8507C101.948 34.2747 102 34.7632 102.103 35.0859C102.373 35.9872 102.965 36.4237 103.504 36.4237C103.633 36.4237 103.878 36.3212 104.07 36.0904C104.341 35.7551 104.547 35.0728 104.547 34.3398C104.547 33.7994 104.43 32.9638 104.032 32.3978C103.8 32.1007 103.467 31.8837 103.107 31.8837C102.888 31.883 102.682 31.9737 102.476 32.1664Z" fill="white"></path><path d="M110.646 36.6937C110.544 36.6937 110.415 36.7324 110.312 36.8212C110.015 37.0921 109.952 37.7219 109.901 38.2122C109.862 38.5074 109.758 38.61 109.656 38.61C109.527 38.61 109.45 38.4174 109.437 38.2629C109.386 37.7488 109.36 36.7199 109.334 36.411C109.321 36.3203 109.386 36.2427 109.437 36.2427C109.591 36.2427 109.746 36.2296 109.9 36.2039C109.952 36.1914 110.029 36.1652 110.067 36.0889C110.312 35.5228 111.044 33.6815 111.444 32.5758C111.469 32.4988 111.52 32.3575 111.56 32.2293C111.598 32.0867 111.765 31.9203 112.113 31.5976C112.203 31.495 112.293 31.4443 112.37 31.4443C112.447 31.4443 112.525 31.5469 112.692 31.9841C113.065 33.0511 113.914 35.5084 114.133 35.9857C114.171 36.0882 114.249 36.1908 114.364 36.1908C114.532 36.229 114.763 36.2289 114.944 36.2289C114.995 36.2289 115.033 36.294 115.021 36.3834C114.982 36.7187 114.724 37.3998 114.647 38.1459C114.609 38.4418 114.467 38.6081 114.338 38.6081C114.21 38.6081 114.146 38.4799 114.146 38.1841V37.7725C114.146 37.0133 113.888 36.6918 113.541 36.6918H110.646V36.6937ZM111.74 33.2469C111.714 33.1562 111.65 33.1949 111.623 33.2469C111.353 34.018 110.736 35.6786 110.62 36.102C110.607 36.1539 110.633 36.2171 110.684 36.2171C110.89 36.2171 112.46 36.2433 112.64 36.2046C112.692 36.192 112.718 36.1539 112.704 36.1151C112.602 35.7286 111.894 33.6321 111.74 33.2469Z" fill="white"></path><path d="M121.015 34.1346C121.015 35.2273 120.346 36.0122 119.87 36.3212C119.343 36.6945 118.687 36.8478 118.095 36.8478C117.516 36.8478 116.796 36.5782 116.319 36.1792C115.766 35.7295 115.355 34.9195 115.355 34.199C115.355 33.2997 115.753 32.6167 116.243 32.2051C116.628 31.8718 117.349 31.459 118.301 31.459C119.587 31.4577 121.015 32.4616 121.015 34.1346ZM117.426 32.1664C117.13 32.4359 116.898 33.0019 116.898 33.8507C116.898 34.2747 116.95 34.7632 117.052 35.0859C117.324 35.9872 117.915 36.4237 118.455 36.4237C118.583 36.4237 118.829 36.3212 119.021 36.0904C119.291 35.7551 119.497 35.0728 119.497 34.3398C119.497 33.7994 119.381 32.9638 118.982 32.3978C118.751 32.1007 118.417 31.8837 118.057 31.8837C117.838 31.883 117.632 31.9737 117.426 32.1664Z" fill="white"></path><path d="M125.815 33.8637C125.75 33.8769 125.789 33.9288 125.841 33.9538C126.071 34.0188 126.355 34.1602 126.457 34.2371C126.651 34.3916 126.921 34.6224 126.921 35.1503C126.921 35.8451 126.406 36.2955 125.852 36.5C125.365 36.6807 124.734 36.7064 124.207 36.7064C123.923 36.7064 123.64 36.6939 123.306 36.6939C122.894 36.6939 122.379 36.7201 121.93 36.7326C121.75 36.7451 121.596 36.6301 121.596 36.5262C121.596 36.4112 121.75 36.3718 121.917 36.333C122.367 36.2179 122.379 36.0378 122.406 35.7288C122.444 35.4586 122.458 35.0339 122.458 34.0314C122.458 33.5291 122.471 33.0794 122.444 32.5778C122.431 32.2545 122.393 32.1519 121.955 32.0237C121.801 31.9849 121.673 31.8823 121.673 31.7279C121.673 31.6634 121.725 31.5984 121.943 31.5984C122.174 31.5984 122.703 31.6378 122.959 31.6378C123.204 31.6378 124.284 31.5728 124.695 31.5728C125.506 31.5728 126.586 31.7779 126.586 32.7955C126.586 33.4015 126.2 33.683 125.815 33.8637ZM124.193 31.9993C124.014 31.9993 123.898 32.0381 123.846 32.0762C123.807 32.115 123.782 32.1913 123.768 32.3589C123.756 32.5384 123.743 33.4522 123.768 33.6448C123.782 33.7487 123.834 33.7737 123.911 33.7737C124.13 33.7737 124.528 33.7612 124.734 33.683C125.068 33.556 125.248 33.2727 125.248 32.8993C125.248 32.5516 124.94 31.9993 124.193 31.9993ZM125.056 34.3916C124.862 34.2628 124.465 34.1721 124.233 34.1721C124.079 34.1721 124.001 34.1721 123.885 34.1984C123.834 34.2109 123.808 34.2628 123.795 34.3528C123.768 34.481 123.768 34.9695 123.782 35.3936C123.782 35.64 123.807 35.8451 123.923 36.0253C124.026 36.1666 124.296 36.3211 124.425 36.3211C125.042 36.3211 125.506 35.807 125.506 35.2147C125.505 34.8288 125.287 34.558 125.056 34.3916Z" fill="white"></path><path d="M131.811 31.998C132.106 32.2813 132.298 32.681 132.298 33.1306C132.298 33.2213 132.17 33.4396 132.017 33.4396H129.212C129.147 33.4396 129.083 33.4784 129.07 33.5303C129.031 33.6329 129.019 33.8261 129.019 33.9938C129.019 34.2752 129.173 34.8675 129.417 35.189C129.739 35.6005 130.28 35.8332 130.845 35.8332C131.386 35.8332 131.759 35.7043 132.003 35.3816C132.054 35.3047 132.12 35.2284 132.171 35.2284C132.223 35.2284 132.287 35.3178 132.287 35.3954C132.287 35.4723 132.248 35.6143 132.184 35.7168C131.785 36.3335 131.18 36.8358 130.126 36.8358C128.647 36.8358 127.746 35.7168 127.746 34.2508C127.746 33.2213 128.311 32.1925 129.38 31.7034C129.701 31.5489 130.087 31.4595 130.435 31.4595C130.948 31.4588 131.475 31.664 131.811 31.998ZM129.147 32.9117C129.135 32.9762 129.186 33.0406 129.237 33.0406C129.572 33.0537 129.971 33.0406 130.614 33.0406C130.833 33.0406 131.064 32.9117 131.064 32.6028C131.064 32.2431 130.704 31.8179 130.344 31.8179C129.804 31.8179 129.302 32.3195 129.147 32.9117Z" fill="white"></path><path d="M138.217 32.2045C138.565 32.6029 138.848 33.1952 138.848 33.8894C138.848 34.8289 138.436 35.5881 137.741 36.1279C137.021 36.6939 136.21 36.7846 135.761 36.7846C135.528 36.7846 135.285 36.7715 135.13 36.7452C135.078 36.7327 135.027 36.8615 135.027 36.926C135.014 37.5045 135.04 38.5846 135.078 38.8686C135.117 39.2151 135.181 39.4077 135.696 39.5622C135.953 39.6397 136.043 39.7423 136.043 39.833C136.043 39.9493 135.837 40 135.683 40C135.322 40 134.435 39.9356 133.972 39.9356C133.651 39.9356 133.484 39.9744 132.931 39.9744C132.711 39.9744 132.557 39.8974 132.557 39.7811C132.557 39.7029 132.685 39.6003 132.891 39.5497C133.496 39.4215 133.574 39.267 133.612 38.5077C133.625 38.058 133.651 37.0285 133.651 35.7295C133.651 34.8676 133.664 33.426 133.637 32.9382C133.625 32.668 133.586 32.6161 133.547 32.5785C133.316 32.3978 133.059 32.1789 133.059 32.1151C133.059 32.05 133.2 31.8699 133.329 31.818C133.586 31.7411 134.293 31.5222 134.641 31.317C134.769 31.2395 134.873 31.2007 134.898 31.2007C134.95 31.2007 135.052 31.317 135.052 31.3814C135.027 31.6122 135.027 31.7792 135.014 31.9856C135.014 32.0375 135.078 32.0882 135.117 32.0763C135.348 31.9218 135.696 31.7411 135.875 31.6648C136.095 31.5741 136.39 31.4846 136.763 31.4846C137.278 31.484 137.87 31.8055 138.217 32.2045ZM135.195 32.3971C135.156 32.4359 135.066 32.5904 135.052 32.7324C134.975 33.2972 134.975 34.3391 135.001 35.0215C135.001 35.2523 135.052 35.4718 135.13 35.6132C135.4 36.0885 135.915 36.3468 136.185 36.3468C136.327 36.3468 136.468 36.308 136.623 36.1923C137.291 35.7038 137.394 34.5974 137.394 34.2503C137.394 33.9013 137.329 33.2471 136.853 32.7186C136.571 32.3971 136.095 32.2427 135.889 32.2427C135.644 32.2427 135.361 32.3071 135.195 32.3971Z" fill="white"></path><path d="M139.903 31.6004C140.148 31.6004 140.598 31.6392 140.984 31.6392C141.293 31.6392 141.705 31.6004 142.091 31.6004C142.22 31.6004 142.387 31.6523 142.387 31.7411C142.387 31.8437 142.296 31.9475 142.091 31.9982C141.654 32.1151 141.705 32.2953 141.679 32.4616C141.64 33.1821 141.64 34.1985 141.654 34.8033C141.667 34.8796 141.705 34.8933 141.757 34.8414C142.259 34.2754 143.004 33.4398 143.506 32.8738C143.647 32.7193 143.699 32.5786 143.699 32.5142V32.3597C143.699 32.1796 143.647 32.077 143.326 31.9744C143.249 31.9481 143.107 31.8581 143.107 31.768C143.107 31.6654 143.223 31.601 143.429 31.601C143.699 31.601 144.046 31.6398 144.432 31.6398C144.805 31.6267 145.1 31.5879 145.435 31.5879C145.666 31.5879 145.756 31.6654 145.756 31.7561C145.756 31.8587 145.666 31.9363 145.448 31.9994C145.088 32.1164 145.037 32.284 145.023 32.451C145.023 32.5536 145.01 33.0295 145.01 33.5824C145.01 34.343 145.036 35.3068 145.049 35.7571C145.062 36.1686 145.32 36.2455 145.551 36.2975C145.756 36.3494 145.86 36.4644 145.86 36.542C145.86 36.6189 145.705 36.7353 145.563 36.7353C145.242 36.7353 144.843 36.6965 144.445 36.6965C144.11 36.6965 143.66 36.7353 143.196 36.7353C143.042 36.7353 142.874 36.6708 142.874 36.542C142.874 36.4394 142.965 36.375 143.183 36.3231C143.479 36.2324 143.621 36.0535 143.634 35.8859C143.66 35.5382 143.698 35.0497 143.698 33.4035C143.698 33.3385 143.647 33.3254 143.609 33.3773C143.017 34.034 142.244 34.8815 141.782 35.4356C141.73 35.5 141.653 35.6026 141.653 35.7052V35.8997C141.653 36.0667 141.744 36.1955 141.988 36.2837C142.141 36.3231 142.283 36.4138 142.283 36.4901C142.283 36.6189 142.116 36.7215 141.949 36.7215C141.82 36.7215 141.101 36.6965 140.804 36.6965C140.38 36.6965 140.071 36.7353 139.839 36.7353C139.724 36.7353 139.479 36.709 139.479 36.5545C139.479 36.4519 139.608 36.3619 139.813 36.31C140.135 36.2205 140.238 36.1048 140.277 35.9503C140.303 35.7696 140.315 35.5263 140.315 34.8952C140.315 33.7369 140.315 32.7856 140.303 32.5286C140.289 32.2327 140.212 32.1545 139.877 32.0263C139.646 31.9369 139.581 31.8456 139.581 31.7693C139.581 31.6523 139.698 31.6004 139.903 31.6004Z" fill="white"></path><path d="M152.125 31.7284C152.125 31.8453 152.022 31.9735 151.816 32.0117C151.38 32.1268 151.38 32.2813 151.366 32.4489C151.366 32.5515 151.34 33.0918 151.34 33.8248C151.34 34.596 151.353 35.304 151.366 35.7543C151.379 36.1659 151.597 36.2046 151.829 36.2822C152.034 36.3454 152.151 36.4492 152.151 36.5518C152.151 36.6425 151.983 36.7325 151.816 36.7325C151.727 36.7325 150.698 36.6937 150.426 36.6937C150.002 36.6937 149.809 36.7325 149.578 36.7325C149.384 36.7325 149.205 36.6681 149.205 36.5393C149.205 36.4229 149.321 36.371 149.514 36.3204C149.809 36.244 149.964 36.0752 149.989 35.9351C150.015 35.7806 150.015 34.7886 150.015 34.4046C150.015 34.3264 149.976 34.3008 149.95 34.3008C149.757 34.3008 149.539 34.4809 149.256 34.8668C148.921 35.304 148.691 35.6636 148.394 36.0633C148.034 36.5393 147.661 36.7963 146.825 36.7963C146.734 36.7963 146.439 36.8088 146.297 36.7575C146.207 36.7319 146.053 36.68 146.053 36.5774C146.053 36.4736 146.168 36.4486 146.284 36.4104C146.592 36.3197 146.863 36.1778 147.622 35.1752C147.957 34.7499 148.304 34.404 148.484 34.3002C148.509 34.287 148.509 34.2614 148.484 34.2614C147.596 34.0688 147.146 33.5672 147.146 32.9886C147.146 32.2938 147.571 31.5977 149.384 31.5977C149.975 31.5977 150.683 31.6371 151.121 31.6233C151.378 31.6233 151.609 31.6108 151.789 31.6108C151.932 31.6246 152.125 31.6383 152.125 31.7284ZM150.002 32.2813C150.002 32.1662 149.963 32.0242 149.911 32.0242C149.822 31.9992 149.808 31.9854 149.616 31.9854C149.062 31.9854 148.574 32.2944 148.574 32.8992C148.574 33.6066 149.191 33.9537 149.949 33.9674C150.001 33.9674 150.014 33.9287 150.014 33.8768C150.028 33.4777 150.015 32.731 150.002 32.2813Z" fill="white"></path></g><defs><clipPath id="clip0_2368_4641"><rect width="203.268" height="40" fill="white" transform="translate(0.366211)"></rect></clipPath></defs></svg> 