<?xml version="1.0" encoding="UTF-8"?> <svg xmlns="http://www.w3.org/2000/svg" width="101" height="71" viewBox="0 0 101 71" fill="none"><path d="M42.2578 24.9319L52.0072 0.273438L47.4081 24.9319H42.2578ZM47.8523 46.4428H52.727L43.2746 70.7236L47.8523 46.4428Z" fill="#FFDD00"></path><path d="M43.6904 46.5006L47.4058 24.9375H51.5679L47.8572 46.5006H43.6904Z" fill="#FFDD00"></path><path d="M25.0762 46.5006L24.0974 42.2531H21.1232L20.1445 46.5006H16.125L20.8904 24.9375H24.3302L29.0957 46.5006H25.0762ZM23.5226 38.5329L22.5604 33.7889L21.634 38.5329H23.5226Z" fill="white"></path><path d="M38.3872 46.5011L35.8192 39.9374L33.4318 46.5011H29.0417L33.7026 35.1268L29.5168 24.938H33.4769L35.8026 30.485L38.1022 24.938H42.2428L37.9311 35.1292L42.6514 46.5011H38.3872ZM65.5567 46.5011V35.811L63.0766 43.104H60.7604L58.5131 35.8965V46.5011H54.5103V24.938H58.2304L62.0124 35.5141L65.6019 24.938H69.5596V46.5011H65.5567ZM96.3561 50.5372V35.5996L93.876 42.8902H91.5598L89.3149 35.6851V46.2897H85.312V24.7266H89.0322L92.8117 35.3003L96.4012 24.7266H100.361V50.5372H96.3561ZM0.361328 50.751V24.938H4.08148L7.86341 35.5141L11.4505 24.938H15.4106V46.5011H11.4078V35.811L8.92767 43.104H6.6091L4.36418 35.8965V50.751H0.361328ZM77.437 46.9073C76.8431 46.9073 76.2231 46.8147 75.5959 46.6342C74.9545 46.4489 74.3511 46.1068 73.8071 45.6174C73.2892 45.1518 72.8664 44.5128 72.5148 43.6647C72.2131 42.9354 72.0706 41.9709 72.0706 40.6334V24.9356H76.0734V41.08C76.0734 41.769 76.1732 42.1942 76.4084 42.5054C76.6602 42.838 76.9405 42.9686 77.4109 42.9686C77.9026 42.9686 78.2423 42.8213 78.4822 42.5054C78.7412 42.1609 78.8671 41.6953 78.8671 41.08V24.9356H82.8699V40.6334C82.8699 41.8664 82.706 42.8855 82.3853 43.6647C82.0432 44.489 81.6061 45.1447 81.0811 45.6174C80.5395 46.1044 79.9337 46.4465 79.2781 46.6342C78.6533 46.8147 78.0333 46.9073 77.437 46.9073Z" fill="white"></path></svg> 