<?xml version="1.0" encoding="UTF-8"?> <svg xmlns="http://www.w3.org/2000/svg" width="99" height="23" viewBox="0 0 99 23" fill="none"><g clip-path="url(#clip0_2345_5033)"><path d="M89.2716 22.1944H92.6295L93.4261 13.0885L98.567 0.805555H95.2993L92.3222 8.65797H92.2596L90.6553 0.805555H87.082L90.0701 13.0885L89.2716 22.1944ZM79.4003 15.1059L81.7922 4.53296H81.8529L82.4252 15.1059H79.4003ZM74.6569 22.1944H77.7719L78.749 18.0087H82.5668V17.9479L82.806 22.1944H86.1658L84.5594 0.805555H80.0094L74.6569 22.1944ZM67.2603 19.1389L68.598 3.86111H70.3074C70.8581 3.86111 71.2665 4.02432 71.5328 4.35073C71.7994 4.67653 71.9006 5.20481 71.8363 5.93926L70.8721 17.0662C70.8097 17.8026 70.6145 18.3291 70.2907 18.6548C70.1175 18.8218 69.9119 18.9514 69.6866 19.0356C69.4611 19.1197 69.221 19.1569 68.9807 19.1444L67.2603 19.1389ZM63.6338 22.1944H68.7655C70.4337 22.1944 71.7253 21.7465 72.6404 20.8507C73.5554 19.9549 74.0878 18.6407 74.2374 16.908L75.1831 6.09203C75.334 4.36056 75.0311 3.04875 74.2743 2.15662C73.5174 1.2645 72.3049 0.8166 70.6367 0.812918H65.505L63.6338 22.1944ZM57.0947 19.4445C55.9331 19.4445 55.4142 18.7419 55.538 17.3368L56.5592 5.66315C56.6819 4.25931 57.3235 3.55678 58.4839 3.55555C59.6442 3.55433 60.163 4.25686 60.0405 5.66315L59.0193 17.3368C58.8966 18.7406 58.255 19.4433 57.0947 19.4445ZM56.8279 22.5C58.4764 22.5 59.7797 22.0313 60.7378 21.0937C61.6957 20.1562 62.2478 18.8321 62.3938 17.1215L63.3781 5.87851C63.5302 4.16666 63.207 2.84259 62.4085 1.90629C61.61 0.969991 60.3907 0.501227 58.7506 0.5C57.1021 0.5 55.7988 0.968764 54.8407 1.90629C53.8828 2.84382 53.3307 4.16789 53.1849 5.87851L52.1968 17.1215C52.0471 18.8395 52.369 20.1635 53.1627 21.0937C53.9563 22.0239 55.1781 22.4927 56.8279 22.5ZM44.9179 22.1944H48.2777L49.8803 3.86111H53.3927L53.6595 0.805555H43.273L43.0063 3.86111H46.5187L44.9179 22.1944ZM26.8073 22.1944H29.7991L31.1644 6.5743H31.2269L33.8893 22.1944H37.3392L39.2142 0.805555H36.2205L35.1018 13.6076H35.0412L32.8921 0.805555H28.6768L26.8073 22.1944ZM16.1615 22.1944H25.3262L25.593 19.1389H19.7898L20.3639 12.5694H24.9766L25.2416 9.51941H20.6306L21.1256 3.86664H26.9288L27.1957 0.811077H18.0326L16.1615 22.1944ZM0.402344 22.1944H3.33521L4.75013 5.99632H4.81821L5.8449 22.1944H8.64897L12.5129 5.99632H12.5736L11.1568 22.1944H14.3307L16.2 0.805555H11.4052L7.92772 16.1147H7.86699L7.06845 0.805555H2.27356L0.402344 22.1944Z" fill="white"></path></g><defs><clipPath id="clip0_2345_5033"><rect width="98.1646" height="22" fill="white" transform="translate(0.402344 0.5)"></rect></clipPath></defs></svg> 