<svg width="336" height="28" viewBox="0 0 336 28" fill="none" xmlns="http://www.w3.org/2000/svg">
<path d="M0 27.6111V0.388889H6.97352L14.1407 21.7778H14.9156L22.0828 0.388889H29.0563V27.6111H24.9884V6.80556H24.2136L17.2401 27.6111H11.8162L4.84272 6.80556H4.06788V27.6111H0Z" fill="black"/>
<path d="M31.9771 27.6111L41.8562 0.388889H48.0549L57.9341 27.6111H53.4788L51.1543 21.1944H38.7569L36.4324 27.6111H31.9771ZM40.1129 17.5H49.7983L45.343 5.05556H44.5682L40.1129 17.5Z" fill="black"/>
<path d="M60.8367 27.6111V0.388889H73.0403C75.3132 0.388889 77.1986 1.20556 78.6966 2.83889C80.2205 4.4463 80.9824 6.5463 80.9824 9.13889C80.9824 11.7315 80.2205 13.8444 78.6966 15.4778C77.1986 17.0852 75.3132 17.8889 73.0403 17.8889H72.0718L81.7572 27.6111H76.5271L66.8416 17.8889H64.9045V27.6111H60.8367ZM64.9045 14H72.8466C73.9572 14 74.9128 13.5463 75.7135 12.6389C76.5142 11.7315 76.9145 10.5648 76.9145 9.13889C76.9145 7.71296 76.5142 6.5463 75.7135 5.63889C74.9128 4.73148 73.9572 4.27778 72.8466 4.27778H64.9045V14Z" fill="black"/>
<path d="M86.0339 27.6111V0.388889H90.1018V12.8333L100.485 0.388889H105.599L94.3634 13.8056L106.373 27.6111H101.259L90.1018 14.7778V27.6111H86.0339Z" fill="black"/>
<path d="M118.003 27.6111V0.388889H122.071V27.6111H118.003Z" fill="black"/>
<path d="M127.878 27.6111V0.388889H133.883L144.924 21.5833H145.699V0.388889H149.767V27.6111H143.762L132.721 6.41667H131.946V27.6111H127.878Z" fill="black"/>
<path d="M162.352 27.6111L152.86 0.388889H157.316L165.064 22.9444H165.839L173.587 0.388889H178.043L168.551 27.6111H162.352Z" fill="black"/>
<path d="M181.148 27.6111V0.388889H198.969V4.27778H185.216V12.0556H198.194V15.9444H185.216V23.7222H198.969V27.6111H181.148Z" fill="black"/>
<path d="M202.644 19.25H206.711C206.711 20.5722 207.318 21.713 208.532 22.6722C209.772 23.6315 211.361 24.1111 213.298 24.1111C215.415 24.1111 216.978 23.7481 217.985 23.0222C218.993 22.2704 219.496 21.2722 219.496 20.0278C219.496 18.0315 217.947 16.7352 214.847 16.1389L209.617 15.1667C207.499 14.7778 205.898 13.9611 204.813 12.7167C203.754 11.4722 203.225 9.89074 203.225 7.97222C203.225 5.69074 204.103 3.79815 205.859 2.29445C207.615 0.764815 209.966 0 212.91 0C216.164 0 218.683 0.82963 220.465 2.48889C222.273 4.12222 223.177 6.20926 223.177 8.75H219.109C219.109 7.42778 218.541 6.28704 217.404 5.32778C216.268 4.36852 214.77 3.88889 212.91 3.88889C211.154 3.88889 209.772 4.29074 208.765 5.09444C207.783 5.87222 207.293 6.83148 207.293 7.97222C207.293 9.89074 208.649 11.1222 211.361 11.6667L215.622 12.4444C218.36 12.937 220.361 13.7926 221.627 15.0111C222.918 16.2037 223.564 17.8759 223.564 20.0278C223.564 22.3611 222.673 24.2796 220.891 25.7833C219.109 27.2611 216.578 28 213.298 28C210.017 28 207.422 27.1704 205.51 25.5111C203.599 23.8519 202.644 21.7648 202.644 19.25Z" fill="black"/>
<path d="M233.849 27.6111V4.27778H225.326V0.388889H246.44V4.27778H237.917V27.6111H233.849Z" fill="black"/>
<path d="M242.929 27.6111V4.27778H225.326V0.388889H255.52V4.27778H246.997V27.6111H242.929Z" fill="url(#paint0_linear_2_6)"/>
<path d="M279.555 24.0722C277.049 26.6907 273.976 28 270.334 28C266.693 28 263.619 26.6907 261.114 24.0722C258.608 21.4537 257.356 18.0963 257.356 14C257.356 9.9037 258.608 6.5463 261.114 3.92778C263.619 1.30926 266.693 0 270.334 0C273.976 0 277.049 1.30926 279.555 3.92778C282.06 6.5463 283.313 9.9037 283.313 14C283.313 18.0963 282.06 21.4537 279.555 24.0722ZM276.727 6.65C275.048 4.80926 272.917 3.88889 270.334 3.88889C267.751 3.88889 265.621 4.80926 263.942 6.65C262.263 8.49074 261.424 10.9407 261.424 14C261.424 17.0593 262.263 19.5093 263.942 21.35C265.621 23.1907 267.751 24.1111 270.334 24.1111C272.917 24.1111 275.048 23.1907 276.727 21.35C278.405 19.5093 279.245 17.0593 279.245 14C279.245 10.9407 278.405 8.49074 276.727 6.65Z" fill="#B90D0D"/>
<path d="M287.759 16.7222V0.388889H291.827V16.7222C291.827 18.9259 292.46 20.7148 293.725 22.0889C295.017 23.437 296.644 24.1111 298.607 24.1111C300.57 24.1111 302.184 23.437 303.449 22.0889C304.741 20.7148 305.386 18.9259 305.386 16.7222V0.388889H309.454V16.7222C309.454 20.1185 308.447 22.8537 306.432 24.9278C304.444 26.9759 301.835 28 298.607 28C295.378 28 292.757 26.9759 290.742 24.9278C288.753 22.8537 287.759 20.1185 287.759 16.7222Z" fill="#B90D0D"/>
<path d="M315.079 27.6111V0.388889H327.283C329.556 0.388889 331.441 1.20556 332.939 2.83889C334.463 4.4463 335.225 6.5463 335.225 9.13889C335.225 11.7315 334.463 13.8444 332.939 15.4778C331.441 17.0852 329.556 17.8889 327.283 17.8889H326.315L336 27.6111H330.77L321.084 17.8889H319.147V27.6111H315.079ZM319.147 14H327.089C328.2 14 329.156 13.5463 329.956 12.6389C330.757 11.7315 331.157 10.5648 331.157 9.13889C331.157 7.71296 330.757 6.5463 329.956 5.63889C329.156 4.73148 328.2 4.27778 327.089 4.27778H319.147V14Z" fill="#B90D0D"/>
<defs>
<linearGradient id="paint0_linear_2_6" x1="0" y1="14" x2="336" y2="14" gradientUnits="userSpaceOnUse">
<stop offset="0.697115"/>
<stop offset="0.725962" stop-color="#B90D0D"/>
</linearGradient>
</defs>
</svg>
