<?xml version="1.0" encoding="UTF-8"?> <svg xmlns="http://www.w3.org/2000/svg" width="150" height="29" viewBox="0 0 150 29" fill="none"><path d="M82.1887 16.6997C83.416 15.9846 84.3926 14.9792 85.1053 13.6973C85.818 12.4153 86.1808 11.0255 86.1808 9.54113C86.1808 7.97583 85.8377 6.55896 85.1449 5.29053C84.452 4.0221 83.4952 3.01679 82.2678 2.28811C81.0405 1.55944 79.6481 1.18837 78.0908 1.18837H71.7297V28.1358H75.8737V17.7792H78.2096C78.2757 17.7792 78.335 17.7792 78.401 17.7792L82.4262 28.1426H86.7945L82.1491 16.7401C82.1491 16.7401 82.182 16.7199 82.2019 16.7132L82.1887 16.6997ZM77.9325 4.91945C78.6847 4.91945 79.3776 5.12185 80.0045 5.51318C80.6314 5.91125 81.1262 6.47126 81.4892 7.18644C81.8522 7.90837 82.0369 8.71126 82.0369 9.6086C82.0369 10.5059 81.8522 11.2683 81.4892 11.9768C81.1262 12.6853 80.6314 13.2317 80.0045 13.6298C79.3776 14.0278 78.6847 14.2235 77.9325 14.2235H75.7484V4.90595H77.9325V4.91945ZM126.09 1.18837H130.115V28.1358H126.235L117.993 9.54113V28.1358H113.968V1.18837H117.848L126.09 19.7089V1.18837ZM148.578 7.75318C147.634 5.71558 146.341 4.10981 144.685 2.94258C143.029 1.77535 141.168 1.18837 139.116 1.18837H134.074V28.1358H139.116C141.201 28.1358 143.062 27.5556 144.705 26.3816C146.347 25.2144 147.641 23.6019 148.585 21.5508C149.528 19.4997 149.997 17.199 149.997 14.6621C149.997 12.1253 149.528 9.79077 148.585 7.75318H148.578ZM145.022 19.6278C144.467 21.0919 143.701 22.239 142.725 23.0756C141.748 23.9123 140.653 24.3238 139.452 24.3238H138.1V5.00041H139.452C140.66 5.00041 141.748 5.41873 142.725 6.24861C143.701 7.08524 144.467 8.23222 145.022 9.69632C145.575 11.1604 145.853 12.8135 145.853 14.6621C145.853 16.5108 145.575 18.1638 145.022 19.6278ZM91.3806 0.142578C89.2757 0.142578 87.5666 1.89005 87.5666 4.04233C87.5666 6.19463 89.2757 7.9421 91.3806 7.9421C93.4856 7.9421 95.1946 6.19463 95.1946 4.04233C95.1946 1.89005 93.4856 0.142578 91.3806 0.142578ZM91.3806 5.54692C90.569 5.54692 89.9091 4.87222 89.9091 4.04233C89.9091 3.21246 90.569 2.53777 91.3806 2.53777C92.1923 2.53777 92.8522 3.21246 92.8522 4.04233C92.8522 4.87222 92.1923 5.54692 91.3806 5.54692ZM23.909 5.07462V12.7932H31.867V16.5242H23.909V24.2428H32.87V28.1291H19.7716V1.18162H32.87V5.06789H23.909V5.07462ZM59.4628 5.07462V12.7932H67.4208V16.5242H59.4628V24.2428H68.4238V28.1291H55.3253V1.18162H68.4238V5.06789H59.4628V5.07462ZM101.945 5.07462V12.7932H109.903V16.5242H101.945V24.2428H110.907V28.1291H97.8077V1.18162H110.907V5.06789H101.945V5.07462ZM16.1489 28.1291H16.0104H11.8731L4.02716 10.1146V28.1291H0.00195312V1.18162H4.27791L12.1237 19.196V1.18162H16.1489V28.1291ZM41.3626 28.1021L34.7969 1.18837H39.1784L44.0417 21.8004L48.9049 1.18837H53.2864L46.7207 28.1021H41.3494H41.3626Z" fill="white"></path></svg> 