<?xml version="1.0" encoding="UTF-8"?> <svg xmlns="http://www.w3.org/2000/svg" width="165" height="25" viewBox="0 0 165 25" fill="none"><g clip-path="url(#clip0_2345_5015)"><path fill-rule="evenodd" clip-rule="evenodd" d="M47.6753 19.9419L42.3869 16.7171L37.0994 19.9755C38.5658 21.0783 40.3892 21.7318 42.3652 21.7318C44.3612 21.7318 46.2014 21.065 47.6753 19.9419ZM33.596 12.9626C33.596 15.7739 34.9189 18.2762 36.9761 19.881L38.6114 14.117L33.985 10.372C33.7322 11.1907 33.596 12.0607 33.596 12.9626ZM42.2942 4.19363C38.4382 4.22424 35.1751 6.7435 34.032 10.2242L40.0414 9.93619L42.2942 4.19363ZM44.7088 9.93619L50.6984 10.2242C49.5499 6.72706 46.2614 4.20049 42.3817 4.19336L44.7088 9.93619ZM47.8345 19.8177C49.8458 18.2108 51.1345 15.7372 51.1345 12.9626C51.1345 12.061 50.9984 11.1913 50.7458 10.3727L46.1498 14.117L47.8345 19.8177ZM88.3038 14.1927H96.1529V11.5783H88.3038V7.66152H96.5517L96.6218 4.95182H84.7339V21.0536H96.8646V18.3447H88.3038V14.1927ZM120.96 5.05225L113.6 20.9536H117.211L118.327 18.3506H126.356L127.419 20.9536H131.125L123.741 5.05225H120.96ZM125.329 15.8358H119.421L120.422 13.5161L122.366 8.88592L124.048 12.7032L125.329 15.8358ZM149.714 13.4242V20.9533H146.268V5.05244H149.714V12.6218V12.6667L158.259 5.00432H162.628L153.687 13.0362L162.565 21.0295H158.174L158.141 21.0013L149.714 13.4242ZM99.9449 7.77643H104.964V20.9536H108.515V7.77643H113.66V5.05225H99.9449V7.77643ZM133.653 5.05225H137.204V18.2301H143.629V20.9536H133.653V5.05225ZM74.966 4.95197H71.3715V21.0538H81.6267V18.2976H74.966V4.95197ZM55.0397 4.95197V21.0538H58.6342V15.888V15.8449H62.5164C65.7631 15.8449 68.6115 13.2999 68.6115 10.3985C68.6115 7.49696 65.7631 4.95197 62.5164 4.95197H55.0397ZM62.5164 12.8836H58.6342V7.9133H62.5164C64.0405 7.9133 65.5365 9.14405 65.5365 10.3985C65.5365 11.6525 64.0405 12.8836 62.5164 12.8836ZM20.8595 14.1927H28.709V11.5783H20.8595V7.66152H29.1069L29.1782 4.95182H17.2896V21.0536H29.4198V18.3447H20.8595V14.1927ZM0.624722 4.95197H3.9597H7.84189C11.0886 4.95197 13.937 7.49696 13.937 10.3985C13.937 13.2999 11.0886 15.8449 7.84189 15.8449H3.9597V15.888V21.0538H0.365234V4.95197H0.624722ZM3.9597 7.9133V12.8836H7.84189C9.36598 12.8836 10.862 11.6525 10.862 10.3985C10.862 9.14405 9.36598 7.9133 7.84189 7.9133H3.9597Z" fill="white"></path></g><defs><clipPath id="clip0_2345_5015"><rect width="164.308" height="24" fill="white" transform="translate(0.365234 0.5)"></rect></clipPath></defs></svg> 