<?xml version="1.0" encoding="UTF-8"?> <svg xmlns="http://www.w3.org/2000/svg" width="76" height="21" viewBox="0 0 76 21" fill="none"><g clip-path="url(#clip0_2345_4995)"><path fill-rule="evenodd" clip-rule="evenodd" d="M0.857422 0.498047V19.1647L19.5241 0.498047H0.857422Z" fill="#92CFAE"></path><path fill-rule="evenodd" clip-rule="evenodd" d="M2.19043 20.4967H20.8571V1.83008L2.19043 20.4967Z" fill="#2A8288"></path><path fill-rule="evenodd" clip-rule="evenodd" d="M31.3438 10.0645C33.5142 10.0645 34.668 9.00164 34.668 7.01575V6.90355C34.668 4.77781 33.4591 3.93871 31.3438 3.93871H29.0909V10.0645H31.3438ZM24.668 0.498047H31.4536C36.2338 0.498047 38.9537 2.65175 38.9537 6.8759V6.98746C38.9537 11.2113 36.0692 13.2255 31.5908 13.2255H29.0909V20.498H24.668V0.498047Z" fill="white"></path><path fill-rule="evenodd" clip-rule="evenodd" d="M47.7587 17.0574C49.8881 17.0574 50.9664 16.1064 50.9664 14.288V14.1765C50.9664 12.386 49.8881 11.4071 47.6509 11.4071H45.171V17.0574H47.7587ZM47.9205 20.498H40.8584V0.498047H53.4192V4.02262H45.1982L45.171 8.21815H48.0551C52.5027 8.21815 55.1441 10.2044 55.1441 14.2041V14.3163C55.1441 18.2321 52.6914 20.498 47.9205 20.498Z" fill="white"></path><path fill-rule="evenodd" clip-rule="evenodd" d="M58.3574 0.525978H63.0015V9.12942L70.1682 0.498047H75.099L66.9862 9.96735L75.5003 20.498H70.0821L63.0015 11.5315V20.498H58.3574V0.525978Z" fill="white"></path></g><defs><clipPath id="clip0_2345_4995"><rect width="75" height="20" fill="white" transform="translate(0.861328 0.5)"></rect></clipPath></defs></svg> 