<?xml version="1.0" encoding="UTF-8"?> <svg xmlns="http://www.w3.org/2000/svg" viewBox="0 0 181.4794921875 181.6064453125" fill="none"><path d="M32.372341813016526 80.15569212858341L21.531241894934787 77.34325994318182L22.776751148066243 72.54205249628745C23.007125115008392 71.65415283203124 23.492895221300362 70.99222763187628 24.23408646411738 70.55652686757489C24.964953873563402 70.11807641399794 25.75358975497159 70.00858878647985 26.600244080094264 70.22806398502067C27.281667076930525 70.40504398566631 27.81935631618027 70.75375458015884 28.21331179784349 71.27469571200282C28.3692941712939 71.4804224641658 28.50552877631069 71.71964543114024 28.622015612893854 71.99236461292614L28.69950685611441 72.01236235311208C28.908483241057592 71.80213610940727 29.15045589730759 71.63365514834065 29.425924768369057 71.50666949815987C30.067602256585744 71.19920424280087 30.739526326833676 71.13671130471978 31.441696979112862 71.31894071216425C32.29860014608084 71.54116559998063 32.93977769079287 72.02161130794809 33.365229613248964 72.7600278643143C33.79343122498063 73.48819557883522 33.895169728176654 74.28610541225464 33.670195151084705 75.15325742106792L32.372341813016526 80.15569212858341ZM26.676735436305524 76.94255522420583L27.480394620028406 73.84515524115443C27.59288190857438 73.41145425087163 27.533138659768852 73.00475020983988 27.3009149018595 72.62479314630681C27.068941115702476 72.24508605452607 26.720480492962295 71.99486433044937 26.256032977143594 71.87437794582902C25.79133548957257 71.75389156120868 25.365383623611827 71.80313599641657 24.977852415983342 72.02211125145273C24.590421197055782 72.24133647824121 24.340474441906636 72.56754961502453 24.22796215618543 73.00125060530733L23.42440296116348 76.09865058835872L26.676735436305524 76.94255522420583ZM31.322960396758777 78.14791901391399L32.166615060853566 74.89553654442147C32.27910234939954 74.46183555413867 32.219359100594005 74.05513151310693 31.98738531443698 73.67542442132618C31.755161556527632 73.29571732954545 31.40695090553977 73.04549560546874 30.94225341796875 72.9250092208484C30.477555930397727 72.80427286447572 30.051604064436983 72.85351729968362 29.664147848334192 73.07274252647211C29.276691632231405 73.29171778150825 29.026719879907024 73.61818089004389 28.914232591361053 74.0518818803267L28.07057792726627 77.30401437806688L31.322960396758777 78.14791901391399ZM38.34866646758781 63.348841361053715L31.102485311208678 59.95847448427814L31.780408703512393 58.50938823605372L39.02658985989152 61.89950514107696L38.34866646758781 63.348841361053715ZM35.16177659720429 70.16007166838843L27.915595440825154 66.76995476336519L28.593768804881197 65.32086851514075L30.912506779442147 66.40549594847623L31.79390717813791 64.52170882295971C32.14661732066761 63.7680439897017 32.663058960969785 63.267850513300615 33.34398201430139 63.021128393756456C34.019405689081864 62.7601578843298 34.71957656734246 62.7991534776924 35.444244677330836 63.13811517384426C36.16866281556689 63.477076869996125 36.65210818456224 63.991768708032026 36.89458078431689 64.68219068795196C37.1315540055204 65.35836427798941 37.073810530733475 66.07328348963713 36.72135035995609 66.82694832289515L35.16177659720429 70.16007166838843ZM34.60808916580579 68.13455055930397L35.42174721962164 66.39549707838327C35.59347781346849 66.02828857421873 35.6202247909672 65.68182772549716 35.50198815211777 65.35561458871383C35.378502106469526 65.01515306204803 35.13327981743931 64.75918198766786 34.76607131327479 64.58745139382103C34.3991127808626 64.41547082822184 34.05015221461777 64.39372328576962 33.71943958629261 64.52145885120738C33.383477551168646 64.63519599851497 33.1297562225594 64.87566882425102 32.958025628712555 65.24287732841555L32.1443675748967 66.98193080933626L34.60808916580579 68.13455055930397ZM36.46037985052944 57.812716962325666L36.197909510588836 57.62998761137654C33.974410773663486 56.08191254923166 32.95002653263817 54.426349633587286 33.124756787512915 52.66329886444343C33.14200483842329 52.545312197346334 33.16650207015108 52.42582569973528 33.198498454448604 52.30533931511493C33.221745827414765 52.178353664934136 33.24174356760072 52.07536530297649 33.257991731501804 51.99562431398502C33.27174017787965 51.90138496335872 33.305236392691114 51.78814775955578 33.358230404183885 51.65591270257618C33.402475404345296 51.517928295293125 33.43547167565212 51.423688944666836 33.45696924635201 51.37394456595429C33.476217071280985 51.309201882102265 33.518212325671485 51.20196400035511 33.583454953028145 51.052480892465134C33.65469690244059 50.894248773243795 33.70244150713455 50.797509705094264 33.726938738862344 50.76251365976885C33.74243698750646 50.721268320635325 33.7951810272469 50.60853106033703 33.884670914579026 50.42380193536931C33.974160801911154 50.23932278215392 34.02665486989928 50.1263355501033 34.042403090295714 50.085340182722106C34.3293706619641 49.50515574557722 34.227632158768074 49.04445780604338 33.737437552459966 48.70324636412061L34.560344561111826 47.521379919130936C35.190523348721584 47.96033031621255 35.57647973431043 48.40453012009297 35.718463689630674 48.85422930252453C35.85744798392304 49.28893017981663 35.8079535769628 49.76137679170971 35.569980468749996 50.27156913820377C35.554232248353564 50.312564505584966 35.52948504487345 50.36680837583936 35.49548888655733 50.43430074896694C34.9732978959517 51.5391758942407 34.695579279119315 52.32058759200672 34.6625830078125 52.778785814017304C34.65908340327995 52.8022831587358 34.655583798747415 52.82578050345428 34.6523341659672 52.8495278199251C34.604589561273244 53.73917728644757 34.93655204836002 54.52258875823218 35.64772168372288 55.199762235278925L35.69346651439824 55.13426963616994C35.477990863894625 54.23037177976498 35.65072134475077 53.375718358567916 36.21140798521436 52.57030937257877C36.81483979532541 51.70365730727014 37.607750193698344 51.18996535624354 38.5906391238378 51.029483491251284C39.570528392949385 50.85400332111957 40.5069225771565 51.07697812419292 41.39982167645919 51.698657872223656C42.29272077576188 52.32033762025439 42.82791029748837 53.14799409220041 43.00514026988636 54.1813773163094C43.182620214036675 55.214510568666064 42.951396343136615 56.19090023324509 42.311218685433886 57.11004636654184C41.65904238361958 58.04669052250129 40.79888958387138 58.59137897081611 39.730510314436984 58.74436168323863C38.65338203367123 58.89134507360537 37.563505193536926 58.58088015721849 36.46037985052944 57.812716962325666ZM39.623272432689824 57.24653094331095C40.26170028812629 57.13204388074638 40.76389353854597 56.8123300095235 41.12960221219654 56.28713935788998C41.495310885847104 55.761948706256454 41.61779704448605 55.184513958387136 41.49756063161802 54.554585142529696C41.374324557722105 53.91015796503744 41.03711266383652 53.39571609875387 40.485674978208934 53.011759487183625C39.93423729258135 52.627802875613376 39.339054550297 52.49306810111054 38.70062669486053 52.60730519192278C38.0594491501485 52.706793949347876 37.556006040967205 53.01925863975335 37.19029736731663 53.544449291386876C36.82458869366606 54.0696399430204 36.70335239378874 54.65457384345945 36.82633849593233 55.29925099270403C36.94682488055268 55.92892983680915 37.28278691567665 56.43562257877066 37.834224601304236 56.819829162093235C38.38566228693182 57.20378577366348 38.98209488797779 57.34601970073605 39.623272432689824 57.24653094331095ZM47.892587971332645 54.63532601853047L39.85949573863636 46.83070796745867L40.86288235246642 45.797824686854334L41.663041931656764 46.352012061757485L41.7187856324251 46.2947685304752C41.70003775100077 46.038547484342715 41.69328851368802 45.831320901665805 41.69853792048682 45.67283881069214C41.696038202963585 45.50685756714876 41.771279700413224 45.23038880907799 41.92401244108342 44.84343253647985C42.076745181753616 44.44147795874225 42.3164680922327 44.07226968055914 42.643681116025306 43.7355577301782C43.38684713568569 42.97039419631327 44.271747138913994 42.603185692148756 45.29788118220557 42.633682245932334C46.32426519724948 42.664178799715906 47.28890618946926 43.11787753018466 48.1915541871126 43.99502840909091C49.09445215650826 44.872179287997156 49.57564777973269 45.823071833839094 49.63589097204287 46.84820599012138C49.69588419260072 47.873090174651345 49.35417280717329 48.768239019724945 48.61100678751291 49.53315258183755C47.845343310143335 50.32131351691632 47.001438674296224 50.65402591926007 46.079542851723915 50.53153976062112L46.02379915095558 50.588783291903404L49.007461986699376 53.487705703609244L47.892587971332645 54.63532601853047ZM45.71208437580707 49.37142085808368C46.38375847430269 49.39941769434401 46.9499444933174 49.176192919518336 47.41089240460356 48.70199650535899C47.87184031588971 48.22755011944731 48.07481737877711 47.65886438290935 48.01982359326575 46.99593929574509C47.972578932076445 46.32526508425878 47.658114467652375 45.70733491251291 47.07668017174586 45.14264872401214C46.49524587583936 44.577712563759036 45.86856669276214 44.28124606550232 45.19689259426652 44.25324922924199C44.532467676588325 44.2175032686596 43.97003123385847 44.43672849544809 43.509083322572316 44.911174881359756C43.04838538303848 45.385371295519114 42.84165874386622 45.958056580094265 42.88890340505552 46.62873079158058C42.94389719056689 47.29165587874483 43.2618612595235 47.90558650245351 43.84329555543001 48.47052266270661C44.424729851336515 49.035458822959704 45.04765945812888 49.33567489750129 45.71208437580707 49.37142085808368ZM56.58585560191761 42.45720218879132L55.927679978047514 41.85177060466167L55.86368720945247 41.90001515286028C55.85843780265367 42.15798600125904 55.81119314146436 42.41420704739152 55.7224531693892 42.66842831950542C55.51997605000645 43.24936267190728 55.137769240702475 43.75205586583161 54.576082713229596 44.176507901278406C53.87816158073993 44.70394829868285 53.18249019402117 44.94217137864798 52.489068553073345 44.89142711292614C51.795396940373195 44.840682847204285 51.226961175587554 44.52146891948605 50.783261315211774 43.93428527327608C50.28806727385718 43.27910931043388 50.11583673650568 42.60018603112086 50.266819674909605 41.89776540708936C50.42655162464489 41.18909548924974 50.94024357567148 40.50667260540418 51.80839547149406 39.85074672730501L53.40396516658057 38.6448829940922L53.30747607018336 38.51714742865445C52.99226169050232 38.10019454577738 52.62555312984246 37.86247140931689 52.20735038820377 37.80447796277764C51.78889767481276 37.74623454448606 51.37119487667872 37.87472002518078 50.95424199380165 38.189684433109505C50.54578815050361 38.49839954723011 50.301565748482695 38.829862090812234 50.22182475949121 39.18432203560821C50.1355845049393 39.53028294082515 50.1580819626485 39.834248591651594 50.2893171326188 40.09621898808755L49.01271139349819 41.060859980307335C48.62225551636751 40.47342636234504 48.51976709791451 39.815750681979594 48.70474619463455 39.08758296745867C48.88347599754649 38.35091621335872 49.35992215747675 37.68999090021306 50.134334646177685 37.104807028021696C50.95974137235279 36.48087753422004 51.76640021710356 36.21240787222366 52.55381123692536 36.29914807028021C53.34147222849948 36.38588826833678 54.01814576204158 36.803591066470815 54.584081809303974 37.552506436434655L57.670733007005424 41.63729484116735L56.58585560191761 42.45720218879132ZM54.36860615880036 39.921238761460486L54.17562796600594 39.66601760233729L52.64380106776213 40.8236367873515C52.1758539474109 41.1773468168905 51.89338586728435 41.53780608374225 51.79664679913481 41.90501458790677C51.7084067705643 42.26597379826317 51.77989869172908 42.599436115863895 52.01137253438145 42.90590148421358C52.23659708322572 43.20386781298424 52.51131603903021 43.36384973447185 52.835529401794936 43.38609722042872C53.15999273631198 43.408344706385584 53.509203274309144 43.27810942342459 53.88366095929106 42.99514139979339C54.462345565922 42.557940804978045 54.79230827899018 42.0744954359827 54.873799070247934 41.54505526455966C54.948540624192916 41.00736602530991 54.78005966312629 40.46592720977531 54.36860615880036 39.921238761460486ZM60.817377425264716 39.736759608245094L57.628237809110274 34.09589704529313L55.33024748999225 35.39500024212293L54.58208203528538 34.071899757069986L60.57115524922521 30.68603237183626L61.31932070393208 32.0091328568892L59.02108041306172 33.30848602547133L62.21022002921617 38.94934858842329L60.817377425264716 39.736759608245094ZM65.81531264123838 37.06681132166838L62.81890124612603 29.64914954319473L64.30248359617121 29.049967252873188L65.26137523808755 31.42344904119318L67.41238216683884 30.554547230113634C68.1840449662642 30.242832454965132 68.9029637259491 30.228584065082643 69.56938841764592 30.51155208871384C70.2418124313985 30.780771665967197 70.72775751791708 31.28596457741477 71.02747364895403 32.027880738313534C71.32718977999096 32.76954692745996 71.33043941277117 33.47571712777634 71.03772249079933 34.146141367510324C70.75075491913094 34.802817160866475 70.22156471946022 35.2870124451188 69.44990192003486 35.598477248514975L65.81531264123838 37.06681132166838ZM66.78945256004648 35.206521540870355L68.79222623966942 34.39761295034865C69.16818375516529 34.24563012493543 69.42390485779312 34.01015673424587 69.55938954755294 33.690692834775305C69.70087355936853 33.35748048892691 69.69562415256974 33.00302054413093 69.54389129890883 32.62706302863507C69.39215844524793 32.25135548489153 69.15143564775956 31.99763415628228 68.82222284994835 31.86589904280733C68.49900937419292 31.720415482954543 68.1492988926911 31.72366511573476 67.77359134894756 31.87539796939566L65.77081766932463 32.68455653166968L66.78945256004648 35.206521540870355ZM77.42875028247676 33.070762889010844L76.08840174651343 25.183904131424327L77.66572350368025 24.915884418582127L78.20191291241606 28.07057792726627L81.9087440276343 27.44064911140883L81.37255461889849 24.285905608374225L82.95012634781767 24.01783590118156L84.29047488378099 31.90464466441761L82.71290315486182 32.17286435466167L82.16346524325283 28.93922976659349L78.45663412803461 29.569158582450928L79.0060720396436 32.80279317051911L77.42875028247676 33.070762889010844ZM91.70838663400697 31.598179296067922L91.5334064073799 30.721028417161673L91.4534154466361 30.722278275923294C91.29693312968104 30.927755056333933 91.10795448492381 31.106984802750514 90.8864795123644 31.260217486925363C90.38053668565986 31.610177940179494 89.77535507328254 31.791157488862343 89.07143461873709 31.803156132973914C88.1970334291064 31.817904466361053 87.49461280507488 31.600679013591165 86.96417274664256 31.150979831159606C86.43373268821023 30.701280648728048 86.16226336518595 30.10834765221462 86.14976477756971 29.37243081337164C86.13576635943956 28.551273606986054 86.39673686886621 27.90134705094266 86.93267630584968 27.4229011169938C87.4793645281831 26.944205211292612 88.2965221865315 26.695483317729853 89.3843992526472 26.67698540805785L91.38417327124225 26.642989249741735L91.38142358196669 26.483007328254132C91.372424598883 25.960316394143852 91.21619225368026 25.552362494350465 90.91247657460613 25.25889565712164C90.60876089553201 24.96525383966619 90.19555758893982 24.822944921067922 89.67286665482955 24.83184391545067C89.16092450606922 24.84054293243156 88.76846885491993 24.96457891593492 88.49524972962939 25.203901871610277C88.22178063258652 25.432626024987087 88.06079882408962 25.691346788642818 88.01230430413868 25.980314134329806L86.41248508926266 26.00756105533316C86.44323161479855 25.30289068553073 86.74794718088197 24.710932578851367 87.3263818157606 24.231686735295067C87.9048164506392 23.741767097914515 88.67922893934013 23.488545712809916 89.64986925361569 23.472022579981275C90.684252364734 23.45442456861764 91.49416084226498 23.712670385943955 92.07934471445634 24.246785029135456C92.66452858664772 24.78089967232696 92.96499463294163 25.517116477272726 92.9809928250904 26.45576040725077L93.06823296665159 31.574931923101754L91.70838663400697 31.598179296067922ZM91.41117022049328 28.242808464617767L91.40592081369448 27.922844621642557L89.48613775584323 27.955590921197054C88.8994540531379 27.965339819537704 88.45900382554234 28.090325695699896 88.16428712955191 28.330048606178977C87.88031921891141 28.569521544905733 87.74158489637138 28.881236320054235 87.74808416193181 29.265192931624483C87.75458342749225 29.63840075784478 87.88206902117767 29.929617849302684 88.13104088649277 30.13884420599819C88.38001275180785 30.3480705626937 88.73922215989799 30.4485592071281 89.20841913901084 30.440560111053717C89.93358719250386 30.428311495189824 90.48502487813145 30.232083669615182 90.86248222414126 29.852376577834452C91.23993957015108 29.46192070070377 91.42291889285252 28.925231348463324 91.41117022049328 28.242808464617767ZM95.21199071458548 31.694168448960482L96.27362074670712 23.76488948500452L103.17209119560304 24.688635098544033L102.11021119172908 32.61781407379907L100.5243903949832 32.40558805607567L101.39504200832901 25.90357280636622L97.66846312467717 25.404379216974434L96.79781151133135 31.90639446668388L95.21199071458548 31.694168448960482ZM103.37481828673812 36.140416007554236L106.58670533235407 25.410878482534866L107.96629943343233 25.824081789127067L107.84431321829803 26.78947269660382L107.9208045745093 26.812470097817663C108.13952985779314 26.6774853515625 108.32025943472365 26.575746848366474 108.4632432770532 26.507254588229596C108.60922678041064 26.428513486247414 108.88919514301394 26.36752037868027 109.3028983931108 26.32427526552815C109.73010011783316 26.27403094331095 110.1683005996578 26.31627616945377 110.61799978208936 26.450760972204286C111.63988430559142 26.756726397049327 112.37430131392045 27.371906879519628 112.82125080707644 28.296302419615184C113.26820030023244 29.220447987958416 113.31119544163222 30.285577624612603 112.95023623127581 31.491441357825412C112.58927702091943 32.697305091038224 111.96809721639333 33.5634572128422 111.08669681769757 34.09014769498967C110.2052964190018 34.61683817713714 109.2536539579029 34.72707571991219 108.23176943440082 34.42136026681947C107.17938835711519 34.106145887138425 106.49446575574638 33.51146308835873 106.17725160204674 32.63706189872804L106.10051027408315 32.61406449751421L104.9073951002389 36.59936414482179L103.37481828673812 36.140416007554236ZM107.03640451478564 31.775159296713582C107.32187225594008 32.38409048537577 107.78132033671228 32.78329537383781 108.41474875710227 32.97302393385201C109.04842714924457 33.16250252211389 109.64660955255682 33.08001184384685 110.209295967039 32.72505195554623C110.78223122336647 32.373341700025826 111.18493571636105 31.8091554550297 111.41740944602273 31.03249322055785C111.6498831756844 30.255830986086004 111.62363614169034 29.563159260395146 111.33816840053589 28.954478043485278C111.06294950122675 28.348796487603305 110.60850085550102 27.951091429655214 109.97507243511104 27.76136286964101C109.34139404296874 27.57188428137913 108.73821220461002 27.65287512913223 108.16527694828252 28.004585384652636C107.60259053380035 28.359545272953252 107.20488547585227 28.925231348463324 106.97241174619059 29.701893582935174C106.73993801652891 30.4783058456547 106.76118561547649 31.16947774083161 107.03640451478564 31.775159296713582ZM118.1863945272146 38.234929320280216L118.42086803089488 37.37177685950413L118.34862619447313 37.33728075768337C118.11690238006844 37.45126787674329 117.86793051475334 37.52750926120222 117.60146062677556 37.566004911060176C116.99227946636104 37.653495024373704 116.37009977482568 37.545757199121894 115.73467158041709 37.24279143530475C114.94526078657671 36.86608400455191 114.41332089763041 36.35839137558109 114.13910188533058 35.719213604887656C113.86488287303074 35.08028580594654 113.8861304719783 34.42860944763687 114.2030946539256 33.764434501711C114.5565547117123 33.02301828431689 115.07999556107954 32.55757088148889 115.77316723027504 32.36834226497934C116.47583782605888 32.183613140011616 117.31799265963971 32.32534712357955 118.3001316745222 32.79379418743543L120.10517769805656 33.65494687419292L120.17416990169808 33.510463201349424C120.39914447879002 33.03876650471332 120.44113973318052 32.6038156556689 120.30015566486956 32.205610654216166C120.15917159655861 31.80740565276343 119.85295619996126 31.49594084936725 119.38125950332515 31.27071630052298C118.91906173327737 31.050491186725203 118.5123576922456 30.98624844637784 118.16089740847752 31.078737994737857C117.81418658800361 31.161478644757228 117.5547159090909 31.321460566244834 117.38273534349173 31.558433787448347L115.93839855856146 30.869511638042354C116.28010994398889 30.252331381553457 116.81679929622933 29.858375899890238 117.54821664353047 29.68739522130036C118.28438345412576 29.506665644369836 119.0905423553719 29.625402226723914 119.96669334726884 30.043354996610276C120.90058781395273 30.48880465925232 121.5102689178719 31.080987740508778 121.79598663077866 31.82015421213197C122.08170434368543 32.55907071200284 122.02246103838455 33.3522310821281 121.61825671487603 34.19938535075542L119.41375583112732 38.82036316422391L118.1863945272146 38.234929320280216ZM119.41625554865055 35.09903368737087L119.55423995593362 34.810066341683886L117.8211857970687 33.98340975674716C117.29174562564566 33.73093828689953 116.84154649970944 33.64619786286157 116.47108836276472 33.72943845638559C116.1101291524083 33.81717854145144 115.84690889721074 34.03440399422133 115.68167756892433 34.381114814695245C115.52094573217975 34.718076736828515 115.50519751178331 35.03554086228047 115.63493285123965 35.33375716280346C115.7644182189437 35.631973463326446 116.04088697701447 35.88194521565083 116.46458909720428 36.08417236328125C117.11926511654183 36.3963870819344 117.7001994689437 36.46662914433755 118.20764212616218 36.295148522243025C118.71958427492252 36.11391900180785 119.12253873966941 35.71521405685046 119.41625554865055 35.09903368737087ZM121.283794510266 39.87849359181302L125.73204184287836 33.22899500823218L129.32263609326577 35.630973576317146C129.95206496561852 36.052175978983726 130.330022255133 36.54237058529184 130.45650796180914 37.1018073669938C130.5914927080643 37.666993498999226 130.47825550426134 38.21993101514075 130.11654637864797 38.76086988717071C129.8378278748063 39.17757279829546 129.464620048586 39.44754229080578 128.99692289998708 39.57102833645403C128.79269597833806 39.62702200897469 128.58846905668906 39.6445200316374 128.38449210679235 39.62352240444215L128.33999713487862 39.69001489056043C128.4432354685886 39.86174548440728 128.52722597736957 40.071721756359764 128.59196866122159 40.320443649922524C128.67095973495609 40.8738811095687 128.5562227006392 41.381073795034865 128.2477575582709 41.84202170632102C127.90979574912835 42.34746458952092 127.42110097333419 42.65567976013688 126.78192320264075 42.76716716167355C126.15749376533445 42.87565490218233 125.56606059933497 42.743169873450405 125.0076237046423 42.36946210372547L121.283794510266 39.87849359181302ZM125.23809766028538 36.84483640560433L127.29936472995222 38.223930563177944C127.56533467442536 38.401660479080576 127.82130574880553 38.470152739217454 128.06677800958806 38.42915737183626C128.32724857551005 38.38516234342717 128.53747481921485 38.24367833161157 128.69770671245482 38.00420539288481C128.85768863394242 37.76473245415806 128.90543323863633 37.52076002388946 128.84094052653668 37.272288102079024C128.7909461760718 37.02056654748837 128.6329640286028 36.80584081224173 128.36699408412963 36.6281108963391L126.3057270144628 35.2490167387655L125.23809766028538 36.84483640560433ZM123.37005875516529 39.63777079432463L125.49781831095041 41.06110995205966C125.76378825542355 41.239089839714616 126.04175684400826 41.30308260830966 126.33172407670455 41.253338229597105C126.62169130940082 41.20334387913223 126.84691585824508 41.058860206288735 127.00689777973268 40.81938726756198C127.16712967297262 40.57991432883522 127.21487427766657 40.31669407363765 127.15013159381456 40.029726501969265C127.08563888171487 39.74275893030088 126.92015758167614 39.5102852006392 126.65418763720298 39.332305312984246L124.52642808141786 37.908966155249225L123.37005875516529 39.63777079432463ZM127.53833772517433 44.171758437984245L128.56072219218106 43.04688555252453L128.85668874693312 43.31610512977789C129.3538825623063 43.76805405798037 129.91731889204544 43.70356134588068 130.5464977926459 43.12237702172649L134.45330630972364 39.53828203689953L138.65633135330577 43.35885029942536L133.2749394692665 49.278431366219L132.09107325025826 48.20230297246255L136.50357462228823 43.34810151407541L134.58579133845558 41.604548541612864L131.56888225965264 44.37623533138559C130.9102066922779 44.97391779119318 130.2910266617704 45.29038202963584 129.71134216813016 45.32537807496126C129.14665597962937 45.35987417678202 128.58021998886235 45.11890140754132 128.0117842240767 44.60220979548683L127.53833772517433 44.171758437984245ZM139.17152313484632 48.90747328576962L142.13518823040417 52.58105815792872C142.58788707386364 52.1061118285124 142.83735888268336 51.58292095089747 142.88335368511105 51.01123555333161C142.92934848753873 50.439800127518076 142.7548682044163 49.90911009733342 142.35966286399147 49.419165462777634C141.94445978338067 48.904473624741726 141.45601497933885 48.61325653328383 140.89432845186593 48.54551418840393C140.34089099221978 48.47127257796358 139.76670587713068 48.59175896258394 139.17152313484632 48.90747328576962ZM140.07817068052685 53.726428727079025L141.13305147533575 55.03403096348786C140.4876244108342 55.253256190276346 139.77145534042484 55.28275285705062 138.98454426410768 55.12277093556301C138.21263149293 54.964288844589355 137.53195841135073 54.519839068956614 136.94252501936984 53.78917163691245C136.21260750258264 52.88427389349819 135.9086418517562 51.89588558480759 136.0308780386428 50.824256682592974C136.1598634628422 49.76087684820506 136.70580176991865 48.840730827899016 137.66894293162449 48.064068593427166C138.631834121578 47.28715638720299 139.64671943601496 46.948194691051135 140.71334890318312 47.04718350497159C141.78647763591167 47.15442138671875 142.6881257465457 47.66036421342329 143.4180432633329 48.565261956837546C144.10121606243544 49.41216625371255 144.38318419905733 50.356309562241734 144.2641976449509 51.397941854177425C144.1452110908445 52.43957414611312 143.6497670777376 53.31222553347753 142.7781155773825 54.015396072766016C142.7033740234375 54.075639265076184 142.54389204545453 54.18362706208031 142.29966964343362 54.33960943553073L142.10519162012525 54.45534635685692L138.23762866816244 49.66088814727531C137.75993264947056 50.15583221687758 137.50046197055784 50.700770636944725 137.45971657492896 51.29570340747675C137.41872120754778 51.89063617800878 137.59920081272597 52.437074428589874 138.00090541871126 52.93526813097236C138.28237361182852 53.28397872546487 138.61308624015365 53.52420157944861 138.99354324719138 53.65593669292355C139.38874858761622 53.78917163691245 139.7504577132296 53.81266898163094 140.07817068052685 53.726428727079025ZM140.49737330917483 58.19592365863895L147.4228407073218 54.19137618640237L148.2237502017691 55.57646966603176L145.4535632425103 57.17828865492639L147.3356005657606 60.43342081369447L150.10578752501937 58.83160182479985L150.9066970194667 60.21669530442924L143.98122962131973 64.2212427766658L143.1803201268724 62.83614929703641L146.01974926152505 61.194334827769886L144.13771193827478 57.9392026690018L141.29828280362213 59.58101713826834L140.49737330917483 58.19592365863895ZM144.95761928589874 66.22576625855501L152.41152696845944 63.32034458128874L152.9924613208613 64.81117611215134L147.6258177702092 66.90293973560175L147.74205463504 67.20115603612473L154.0965865508781 67.64360603773889L154.93899135621126 69.80511178008781L147.4853336454029 72.71053345735407L146.9041493212487 71.21970192649147L152.27104284365313 69.12793830304106L152.1548059788223 68.82972200251808L145.80027406298424 68.38727200090392L144.95761928589874 66.22576625855501ZM152.93221812855114 75.01727278780346L153.9448536972172 79.62725184416968C154.56203395370608 79.40427704109634 155.01873234520272 79.04731737877712 155.31494887170714 78.55637285721204C155.6111653982115 78.06542833564696 155.69165630245996 77.51249081950542 155.5566715562048 76.89781028053976C155.4149375726369 76.25188327253356 155.1077222890302 75.7734373385847 154.63527567713712 75.46222250694085C154.1733278788417 75.14850795777376 153.605642029313 75.0002747086454 152.93221812855114 75.01727278780346ZM151.59311945134942 79.73423975416452L151.95332874644885 81.37530430817407C151.27790507166836 81.2833147033187 150.6239789675878 80.9900978378422 149.9910504907025 80.49565371174458C149.3708705731857 80.00945865347366 148.96016698411674 79.30803791645144 148.7589397234956 78.39114152892562C148.50946791467587 77.25551985811596 148.67844881924714 76.23538513688015 149.26613240896177 75.33098733697055C149.8560657444473 74.43708835065857 150.7552141375581 73.857153885266 151.96382756004647 73.59168388429751C153.17219101078254 73.32621388332903 154.23182126888557 73.475696991219 155.14196841909865 74.04038317971978C156.05461528683495 74.61531821006585 156.63554963923684 75.47047157476756 156.88502144805656 76.60609324557721C157.1184950647275 77.66872316470815 156.94951416015624 78.63961345073605 156.3780787343427 79.5187641036609C155.8068932802815 80.39766478483342 154.974237373289 80.9573515382877 153.8801110133652 81.19757439227143C153.78637160624353 81.21832204771437 153.59539318746772 81.24381916645144 153.30742572879 81.27431572023502L153.0817012364411 81.29106382764076L151.76010058190212 75.27474369269757C151.11167385637268 75.50446773308369 150.63647755520404 75.87642570054236 150.33426170664384 76.39061759507359C150.032295829836 76.90455951785253 149.94980515156894 77.47424514139979 150.08703964359503 78.09942449396306C150.18327876823994 78.53687506053073 150.37200744124485 78.8995840731534 150.6537256061144 79.18705158832644C150.94794235860022 79.48276817132619 151.26115696426265 79.66524755052298 151.59311945134942 79.73423975416452ZM152.91422016238377 90.44827903053977C152.91097052960356 89.95758448072701 153.07920151891787 89.54038162609761 153.41841318682205 89.19692043840392C153.75737488297392 88.85345925071023 154.1723279918324 88.68022882634943 154.66302254164512 88.67722916532153C155.14296830610797 88.67422950429365 155.5546717821862 88.84221052185562 155.8983829416322 89.18142218975981C156.2525929146759 89.53113267126162 156.43107274583548 89.94608578012009 156.43407240686338 90.4260315445829C156.43707206789125 90.89547849544809 156.26359167177813 91.30718197152633 155.91388119027633 91.66139194456998C155.56417070877453 92.01560191761362 155.15446700671487 92.19408174877323 154.685270027602 92.19708140980113C154.20532426313918 92.20008107082901 153.7881214085098 92.02685064646823 153.43391143546614 91.6768901932141C153.09045024777248 91.33767852530991 152.91721982341167 90.92822479500258 152.91422016238377 90.44827903053977ZM149.7923229476046 99.38176951510847L160.74508524744962 101.72125514511234L159.7089523340651 106.57195699896694C159.51747397178463 107.46910561805915 159.06077558028798 108.15127853015237 158.33910713132747 108.61897567875128C157.6279374959646 109.0886726013688 156.84477599593234 109.23215638720299 155.9893726594783 109.04942703625387C155.30095045357695 108.90244364588713 154.7487628526924 108.57723039611311 154.3325598850723 108.07403725868414C154.16782850029054 107.87505974383393 154.02134505342843 107.64208607066762 153.89310954448607 107.37461629568053L153.8148683860085 107.3578681882748C153.61514095590132 107.57709341506327 153.38066745222108 107.75607318972752 153.11119790321538 107.89480751226755C152.48326886137653 108.22976966038223 151.81484439566114 108.32150929348526 151.10542456256456 108.16977643982437C150.23952241251288 107.98504731485666 149.5780971558626 107.53284841490185 149.12089882086133 106.81342971171229C148.66170071184143 106.10450982212035 148.52546610682464 105.31184939549973 148.7126949493156 104.43569840360279L149.7923229476046 99.38176951510847ZM155.62191418356144 102.34493466716167L154.95348971784608 105.47433103451058C154.85975031072442 105.9122815445829 154.93724155394497 106.31598592458677 155.18546350400308 106.68544417452222C155.43393542581353 107.05490242445764 155.792644890399 107.28962589989023 156.2620918412642 107.38986457257231C156.73153879212938 107.49010324525439 157.1549909405669 107.42236090037447 157.5324482865767 107.18688750968491C157.91015560433883 106.95116414724302 158.1456289950284 106.61420222510975 158.23936840215003 106.17625171503744L158.90779286786542 103.04685534768852L155.62191418356144 102.34493466716167ZM150.92769464666193 101.34204799683626L150.22577396613508 104.62792668114024C150.13228453076573 105.06612716296488 150.2097757739863 105.46983154296875 150.45799772404442 105.83928979290417C150.70621967410253 106.20849807108729 151.0651791104403 106.4434715182722 151.53462606130552 106.54371019095429C152.00407301217072 106.64394886363637 152.4275251606082 106.57620651875645 152.80498250661802 106.34048315631456C153.18268982438013 106.105009765625 153.4181632150697 105.76804784349173 153.51165265043903 105.32984736166709L154.2135733309659 102.04396867736311L150.92769464666193 101.34204799683626ZM144.5644137194925 116.43584234568698L151.95607843572444 119.49599653764204L151.343897614282 120.97432948088843L143.95248286980242 117.91417528893335L144.5644137194925 116.43584234568698ZM147.44083867348917 109.48762751807851L154.83250338972107 112.54778171003358L154.220572540031 114.02611465327996L151.8550898477854 113.04697529942536L151.05942976013688 114.96875813129519C150.74121571942794 115.73742126969266 150.2477714803396 116.26036217555526 149.57884707111958 116.537580848883C148.915672012203 116.8287979403409 148.21450124693308 116.82129878777118 147.4753347753099 116.51533336292613C146.7361683036867 116.20936793808109 146.22997550522985 115.71692358600207 145.95700635169163 115.03825027844137C145.68953657670454 114.37332541725853 145.71503369544163 113.65665640334451 146.03324773615054 112.88774329319472L147.44083867348917 109.48762751807851ZM148.08551582273373 111.48615167791193L147.3510988144047 113.26020120415805C147.19611632796358 113.63465888913997 147.184867599109 113.98236959662319 147.31760259959322 114.30283338310304C147.45633692213326 114.63729558771307 147.71280794001808 114.88201793323863 148.08726562500001 115.03700041967974C148.46197328173423 115.19198290612086 148.81143379148372 115.19823219992898 149.13614709775308 115.05549832935175C149.4663597825736 114.9267628769047 149.70908235408058 114.67529129406637 149.86406484052168 114.30058363733212L150.59873182060304 112.52678408283832L148.08551582273373 111.48615167791193ZM146.69442302104855 121.88697634862474L146.9646424853112 122.05845697071926C149.25238396258393 123.50979296471462 150.3470102660124 125.11961104968363 150.24827142384427 126.88866114088326C150.23602280798036 127.00714775148502 150.21652501129907 127.12763413610536 150.18977803380037 127.24937037948735C150.1720300393853 127.37710594492509 150.1565317907412 127.48109419389205 150.14353325962037 127.56133512638816C150.13403433303202 127.6560744205191 150.10553755326703 127.77081145483601 150.05829289207773 127.90504628583419C150.0200472139721 128.04478049538352 149.9910504907025 128.14026970477144 149.97155269402117 128.1910139704933C149.9553045301201 128.25650656960227 149.91780876727142 128.36524428186337 149.8590654054752 128.51747707902894C149.7948226651278 128.67895883103046 149.75107760847106 128.77744770144628 149.72833017900956 128.813443633781C149.71433176087936 128.85518891641917 149.66658715618544 128.97017592248835 149.5850963649277 129.15865462374094C149.50360557366992 129.34688335324122 149.45586096897597 129.4618703593104 149.44211252259814 129.50361564194858C149.1803920979145 130.09554875145272 149.30162839779183 130.5514972276924 149.80607139398245 130.87121109891527L149.03490853806173 132.0873236739734C148.38623184077994 131.67587016964748 147.98152757376678 131.2486684449251 147.82054576526988 130.80546852805395C147.6628135895532 130.37701694457 147.69206028457515 129.90307050216296 147.9080358785834 129.38312925732825C147.92178432496127 129.34138397469007 147.94428178267046 129.28614021742638 147.97527827995867 129.2173979855372C148.44972466587035 128.09102526956354 148.6934471243866 127.29836484294292 148.70669562725982 126.83941670567536C148.70919534478304 126.81566938920454 148.7116950623063 126.79192207273373 148.7139448080772 126.76817475626291C148.72344373466555 125.87727543097881 148.35823500451963 125.10886226433368 147.6185685893918 124.46268528457514L147.57557344799199 124.53017765770274C147.82979472010587 125.42407664401472 147.69406005859372 126.2852293307722 147.16836946345558 127.11413566147985C146.6026833879455 128.0057849020209 145.83252041903407 128.55297306785897 144.857630584969 128.75570015899405C143.88599038368415 128.97317558351628 142.94084718814565 128.79044623256715 142.02220099835355 128.20776207789902C141.10330483680912 127.62482795147857 140.53311926975724 126.82116876775567 140.3116442971978 125.79628458322573C140.08991935288608 124.77165037044807 140.27914796939564 123.7865116945377 140.87908017497418 122.84061858374224C141.49026110940727 121.87672750677945 142.32641662093232 121.29554318262525 143.38729673779702 121.09681563952738C144.45692586599301 120.90383744673295 145.55930129374354 121.16730767368284 146.69442302104855 121.88697634862474ZM143.5587773598915 122.58864705739927C142.9258488830062 122.73038104096719 142.437904022469 123.07134251113766 142.09519275003228 123.61178143966295C141.7522315058432 124.15247033994059 141.6544925506844 124.73465455110407 141.8019758845558 125.35858404490573C141.95245887945507 125.99726187209451 142.3116682875452 126.49670543323863 142.87910416532154 126.85666475658573C143.44654004309788 127.21637410818052 144.0467222204287 127.32561176394628 144.67990066906637 127.18387778037835C145.31607877873194 127.05714210194989 145.80577344153537 126.72342981259685 146.1484847139721 126.18299088407153C146.49119598640883 125.64255195554622 146.58743511105374 125.05286859181301 146.43670214440212 124.41419076462422C146.2892188105307 123.79026127082257 145.9320091764592 123.29831686224819 145.36432332693053 122.93835753890109C144.79688744915418 122.57839821555397 144.19495546955707 122.46191137897081 143.5587773598915 122.58864705739927ZM135.4064486013365 125.55906139026987L143.78275204997416 132.99422119140624L142.8266100973334 134.07109950041968L142.00245322991992 133.55340800135588L141.94945921842717 133.61340122191373C141.9797058004584 133.8683724092846 141.9957039926072 134.0753490202092 141.99770376662576 134.23383111118284C142.00745266496642 134.3995623829739 141.94495972688534 134.6790308020726 141.8094750371255 135.07248634023114C141.6752402061273 135.48094018352919 141.45226540305399 135.86064727530993 141.14080059965778 136.21160761557334C140.43263062532282 137.00926747724046 139.5652286447572 137.41597151827222 138.538594657961 137.43171973866865C137.51196067116476 137.44746795906508 136.52782188226368 137.03776425700542 135.5866782347624 136.20210868898502C134.64528461550879 135.36645312096462 134.1215937943892 134.43805803283186 134.01535579965133 133.41692342458677C133.9093677766658 132.39553884458937 134.21033376646437 131.48614160963325 134.91850374079934 130.68823177621383C135.64767134232955 129.8665746263236 136.47582775778022 129.49636646113117 137.4024730436467 129.57710733713196L137.45546705513945 129.51736408832645L134.34431862571023 126.75567616864669L135.4064486013365 125.55906139026987ZM137.82167567229467 130.71947824525438C137.1495016302944 130.72172799102532 136.5938144248773 130.97019991283574 136.15461405604336 131.46489401068567C135.71566365896177 131.95933813678332 135.5384336865638 132.5365229129003 135.62317411060175 133.19644833903666C135.7006653538223 133.86437286124743 136.04237673924973 134.46730472785381 136.6488082103887 135.0054939106082C137.2549897097753 135.5436830933626 137.89441745222106 135.81165281185434 138.5665914942213 135.8094030660834C139.23201629890883 135.81515241638687 139.78395392804106 135.57068004261365 140.223154296875 135.076235916516C140.6621046939566 134.58154181866604 140.84283427088712 134.0003574945119 140.76534302766657 133.33243297230112C140.68085257538095 132.67250754616478 140.33539161366863 132.07357522759557 139.7289601425297 131.53538604484118C139.12277864314308 130.99719686208678 138.48710047698216 130.72522759555784 137.82167567229467 130.71947824525438ZM127.27186783719652 138.11689231178977L127.95679043856533 138.69207731388818L128.01853346138944 138.641083076414C128.01228416758133 138.3828622562629 128.0475301846591 138.12489140786414 128.12477145612732 137.86692055946537C128.30075156976366 137.2772371957322 128.6599609778538 136.7577958944021 129.20164976514076 136.30834668372287C129.8748236941503 135.74990978903023 130.55899638026213 135.4801902682722 131.25416782347625 135.4996880649535C131.94933926669032 135.51893588988247 132.53177344960613 135.81190278360666 133.001720343976 136.3783387743737C133.52616108035252 137.01051733600207 133.7286381997353 137.68094157573603 133.60965164562887 138.38936152182333C133.48241602369575 139.1047806769757 132.9999705417097 139.80970101853046 132.16256517142304 140.50437251823993L130.6232391206095 141.78122822911286L130.72547756731018 141.90446430300878C131.05918985666324 142.30666885249872 131.43614725916837 142.52739390980113 131.8568497183303 142.56663947491606C132.27730220573991 142.605885040031 132.68875571006586 142.45865167791192 133.09096025955577 142.12493938855886C133.4851657129713 141.7979763365186 133.71388986634815 141.4557650075865 133.77763266319087 141.09805543001033C133.84812469734632 140.74859492026084 133.8118787932593 140.445879128196 133.66914492268205 140.19015802556817L134.90050577463197 139.16877344557076C135.31720868575673 139.73795912561337 135.44944374273632 140.39038539918 135.2977108890754 141.12605226627065C135.15247730097497 141.87021817294033 134.7062777230759 142.55189114152893 133.95936212713067 143.17157111554104C133.1629521242252 143.8322464569344 132.36954178234762 144.13696202301782 131.5788811297456 144.08596778554363C130.7882204771436 144.03497354806947 130.0932990056818 143.64826724722366 129.49386674360795 142.9258488830062L126.22523611021435 138.98504420761236L127.27186783719652 138.11689231178977ZM129.6018545406121 140.54986737716297L129.8060814622611 140.79608955320248L131.28391446200285 139.5702280798037C131.73536344670066 139.19577039482178 132.00108341942146 138.82281254035382 132.0813243519176 138.45160448815213C132.15306624483472 138.08689570151083 132.06632604677816 137.75693298844266 131.82135372950026 137.46146637719525C131.58288067778278 137.17399886202222 131.3011625129132 137.0265155281508 130.97619923489154 137.0190163755811C130.6512359568698 137.01151722301134 130.30802474092846 137.1575007263688 129.94681555881974 137.4572168574057C129.3886286358794 137.9201645427105 129.08091340876805 138.41810827334064 129.0236698774858 138.95054810579157C128.97317558351628 139.4912370060692 129.16590380455835 140.0244267537771 129.6018545406121 140.54986737716297ZM123.1600824832128 141.0170645822572L126.57819622449638 146.52219248369704L128.82119275810302 145.12984982325025L129.6228521678073 146.4209539240057L123.77776268320635 150.05004382425102L122.97610327350206 148.7589397234956L125.21884983535641 147.3663470912965L121.80073609407282 141.86096921810434L123.1600824832128 141.0170645822572ZM118.27663432980371 143.89198970573992L121.58901001985407 151.17416679445375L120.13242461905992 151.83659193811337L119.07254438920454 149.50635526294548L116.96078302556818 150.46674673537575C116.2033686160253 150.81120781007877 115.48569971510202 150.8564526972495 114.80777632279829 150.6024813968879C114.12435355194343 150.3625085146565 113.61716086647726 149.8783132304042 113.28594829464747 149.15014551588325C112.95473572281766 148.42197780136235 112.92098953625387 147.71655751630294 113.1847097349561 147.03413463245738C113.4431805268595 146.365710166742 113.95112312758263 145.8595173682851 114.70853753712552 145.51505629358212L118.27663432980371 143.89198970573992ZM117.3834852587487 145.79227496690987L115.41720745496512 146.6866738967265C115.04824914853434 146.85440494253615 114.80277688775179 147.100877090328 114.68104064436983 147.42584036834967C114.55405499418903 147.76480206450154 114.57455267787965 148.11876206579288 114.74228372368931 148.48772037222366C114.91001476949896 148.85667867865445 115.16123638058497 149.09990119366606 115.49594855694731 149.2171379455062C115.82516135475852 149.34862308722882 116.17437189275567 149.33037514930913 116.54333019918646 149.16264410349947L118.50960800297003 148.26824517368283L117.3834852587487 145.79227496690987ZM106.85017555930398 148.393980965102L108.53973463326446 156.21359732131324L106.97566137897081 156.5513091587035L106.29998773243801 153.42366259362086L102.62465305801265 154.21782285075543L103.30057667629778 157.34546941583807L101.73675339375644 157.6834312249806L100.04694434804364 149.86381486876937L101.61101760233728 149.52610303137914L102.30368932802816 152.7319907549393L105.97877403070119 151.93783049780475L105.28610230501033 148.73194277424457L106.85017555930398 148.393980965102ZM92.64978025326059 150.4979932044163L92.86325612974561 151.3663950719912L92.94324709048941 151.36164560869705C93.09048045260846 151.14941959097365 93.27146000129132 150.9621907484827 93.48593576478564 150.7994591377195C93.97613037109375 150.42725119850851 94.57256297213972 150.21977464407928 95.27523356792355 150.1767795026795C96.14813492704029 150.1232855476821 96.85955453415548 150.30951450316374 97.40924241751678 150.73546636912448C97.9589303008781 151.16116826333288 98.2563966861441 151.7416026722301 98.3013916015625 152.47626965231146C98.3516359237797 153.29592702818312 98.11941216587034 153.95660236957642 97.60522027133909 154.45829567649147C97.0802795914579 154.96073889866346 96.27487060546873 155.24520675280863 95.18874334161931 155.3116992389269L93.19246892755682 155.43393542581353L93.20221782589746 155.59366737554882C93.23421421019498 156.1153584226498 93.40844452156507 156.51606314162578 93.72490876000775 156.79603150422906C94.04112302669809 157.07574989508007 94.46007568359374 157.19973588423295 94.98176673069473 157.1677394999354C95.49295896419808 157.13649303089488 95.8796652650439 156.99525899083162 96.1421356049845 156.7440373797456C96.40535586018208 156.50356455400956 96.55458899631972 156.23784458128875 96.59033495690211 155.94712743333548L98.18740448250257 155.84938847817665C98.18765445425491 156.55480876323603 97.90943589391787 157.1594904321087 97.35274880149147 157.66393342829932C96.7963116808174 158.17887523808756 96.03389783622804 158.4658428097559 95.06500732421874 158.52533608680915C94.03237401536674 158.58857894014722 93.2117167524858 158.36635405233085 92.60353547908058 157.85841145160768C91.99535420567537 157.35071882263688 91.66264180333161 156.6283004584194 91.60539827204933 155.69140633070765L91.2924336381392 150.58098382618803L92.64978025326059 150.4979932044163ZM93.09472997239799 153.83686590021307L93.11422776907929 154.15632979968362L95.0307611941503 154.0390930478435C95.616195038094 154.00309711550878 96.0508959153861 153.8588634144176 96.33461385427427 153.60639194457C96.60783297956482 153.35467038997933 96.73256888397468 153.03695629277505 96.70932151100851 152.65374959646175C96.68632410979467 152.2810417137461 96.5460899567407 151.995823944344 96.28811910834195 151.7978463165031C96.03014825994318 151.59986868866218 95.66693930381585 151.51537823637653 95.19849223995996 151.54412498789384C94.47457404522855 151.58836998805526 93.93238531443697 151.80859510185303 93.57192604758522 152.2048003292872C93.21196672423811 152.61150437031895 93.05298468975981 153.1554429033768 93.09472997239799 153.83686590021307ZM89.1454262574251 150.5564865944602L88.43450659381456 158.5248361433045L81.50203998660253 157.90640602805396L82.21295965021307 149.9380564792097L83.80677954303331 150.08029040628227L83.22359544486054 156.61430204028926L86.9686722381844 156.94851427314694L87.55185633635718 150.41450263913998L89.1454262574251 150.5564865944602ZM80.7983695038094 146.47419790725075L78.04943014349818 157.33172096946024L76.65358787851885 156.97826091167354L76.7340787827673 156.00837051265495L76.65658753954675 155.98887271597363C76.44386157831869 156.1331064170648 76.26763149293001 156.24234407283055 76.12789728338068 156.31708562677557C75.98516341280346 156.40207602256584 75.70819471122805 156.47481780249225 75.29674120690211 156.5358109100594C74.87228917145532 156.6043031701963 74.43258885911673 156.5810557972301 73.97739029813403 156.46581881940855C72.9435071305204 156.20409839472492 72.18334303170197 155.62091429655214 71.69714797343104 154.7167664683949C71.2107029434078 153.81236866848525 71.12221294308497 152.750238692859 71.43092805720556 151.52987659801136C71.73989314307852 150.30976447491605 72.32332721300362 149.41761529087034 73.18148023873322 148.85367901762655C74.03938329271048 148.28974274438275 74.98527640350594 148.13850983422648 76.0194095428719 148.4002302589101C77.08453917952608 148.66994977966812 77.79420898437499 149.2348859399212 78.14866892917097 150.0947887679171L78.22616017239153 150.1142865645984L79.24729478063661 146.08149228434917L80.7983695038094 146.47419790725075ZM77.32726175103305 150.99268730226626C77.0160469193892 150.3965046729726 76.53985073121126 150.01754749644886 75.89867318649922 149.85531582919035C75.25749564178719 149.6928341901795 74.66356275826446 149.80107195893595 74.11662456417872 150.1797791637074C73.55918755649535 150.55573667920325 73.18098029522857 151.13667103160512 72.98200278037835 151.92258222091297C72.78302526552815 152.70849341022083 72.83926890980113 153.3994153336454 73.15048374144499 153.99534799118672C73.45144973124354 154.58878093120478 73.92239651262267 154.96648824896695 74.5635740573347 155.12871991622546C75.20475160204674 155.2912015552363 75.80393389236828 155.18421364524147 76.36112092829931 154.80825612974562C76.9083090941374 154.42954892497417 77.28126694860538 153.84736471381066 77.48024446345558 153.06145352450284C77.67922197830579 152.27554233519498 77.6282277408316 151.585870270532 77.32726175103305 150.99268730226626ZM65.90830213310305 145.02211199799845L65.71182433577609 145.89476338536284L65.78556600271178 145.9260098544034C66.01204041031765 145.8017738934982 66.2575126711002 145.7147837236893 66.5219827850594 145.66503934497675C67.12666445393207 145.5508022541645 67.75309366525697 145.63104318666063 68.40102044728177 145.9062620859698C69.20617946151859 146.2479734713972 69.7598668929171 146.7319187838972 70.06183276972494 147.3583479952221C70.3637986465328 147.984777206547 70.37079785559787 148.636703536609 70.08333034042484 149.31412698540805C69.76261658219266 150.0702915361893 69.25992338826833 150.55798642497416 68.57600067390882 150.77746162351497C67.88207908945635 150.99293727401857 67.03417490557204 150.88819910979467 66.03278806576058 150.4629971590909L64.1914961381392 149.6818354330772L64.12900320005811 149.82906879519626C63.925026250161416 150.3102644184207 63.902028848947566 150.74646512622675 64.06026096816889 151.13817086211904C64.21849308739024 151.52962662625904 64.53820695861312 151.8275929550297 65.01940258183755 152.03181987667872C65.490599334969 152.2317972785382 65.89980309352401 152.27804205271823 66.24676388575025 152.17030422746643C66.58947515818697 152.0725652723076 66.84169665628228 151.9013346219654 67.00342838003615 151.65711221994448L68.47626194473139 152.28229157250775C68.16179748030733 152.91347024712678 67.64310609423424 153.3306731017562 66.91968784300748 153.53365016464357C66.19202007199122 153.7461261541193 65.38161165095558 153.6628855605953 64.48796263639592 153.2836784123192C63.535570260040025 152.8794740888107 62.900392037383774 152.3145379285576 62.582677940179494 151.5888699315599C62.2649638429752 150.86295196280992 62.28946107470299 150.0680417904184 62.65616963536286 149.203889442633L64.65644359746254 144.49092202430913L65.90830213310305 145.02211199799845ZM64.81667549070248 148.20875189662965L64.69168961454028 148.5034685926201L66.45898990347365 149.25338384959323C66.99917886024663 149.4826079464747 67.45237764721074 149.54760060207903 67.81908620787061 149.44836181640625C68.17579589843749 149.34487351094396 68.42926725529442 149.11614935756714 68.57925030668905 148.76268929978048C68.72523381004649 148.41922811208678 68.72673364056043 148.10126404313016 68.58424974173553 147.80904706466296C68.44176584291064 147.51683008619577 68.15454829948993 147.27885697798294 67.72259711147339 147.09562768352916C67.05467258926265 146.81215971639335 66.47123851933755 146.76741477272725 65.97204492994577 146.96114288077865C65.46835184901214 147.16461988717072 65.0833953504326 147.58057288303849 64.81667549070248 148.20875189662965ZM62.74215991816245 143.51603219024406L58.59012911205449 150.35400947507748L54.89754638671875 148.11176285672778C54.250119548198604 147.71880726207385 53.85116463148889 147.2456107349238 53.70043166483729 146.69242324702995C53.54044974334969 146.13348640883265 53.62943968717717 145.57604940114928 53.967151524567406 145.0198622522275C54.22737211873709 144.59141066874355 54.588331329093485 144.3051930123321 55.050029155636615 144.1612092829933C55.251756359762396 144.09646659914128 55.45473342264979 144.0699695933949 55.65971025955578 144.08221820925877L55.70120557044163 144.0137259491219C55.59046808416193 143.84674481856922 55.497478592297256 143.6405181229016 55.42173715134297 143.39479589036674C55.31874878938533 142.84560795051007 55.41098836599303 142.33391577350204 55.69895582467071 141.85971935934273C56.014420176104075 141.34002808626033 56.489116533768076 141.01056531669678 57.12279492591038 140.87108107889978C57.741724984665545 140.73534641738766 58.33840755746384 140.84183438387785 58.912842644305265 141.19079495012267L62.74215991816245 143.51603219024406ZM58.924841288416836 146.71992013978564L56.805080828706096 145.4328155870674C56.5313617599109 145.26658437177167 56.27289096800749 145.20959081224171 56.02941848124354 145.26133496497286C55.77119766109246 145.31657872223656 55.567220711195766 145.46731168888815 55.41773760330578 145.71353386492765C55.2682544954158 145.9597560409672 55.23125867607179 146.20547827350208 55.30675014527376 146.4512005060369C55.36774325284091 146.700172371352 55.53497435514591 146.90789889753356 55.80844345218878 147.07388014107696L57.92820391189953 148.3609846937952L58.924841288416836 146.71992013978564ZM60.66864423263171 143.84799467733083L58.48064148453641 142.51939481372676C58.20692241574122 142.35316359843102 57.92645410963326 142.30141944569988 57.63898659446022 142.36391238378098C57.351519079287186 142.42640532186206 57.132793796003355 142.5806378930462 56.98331068811338 142.82686006908574C56.83407755197572 143.07308224512525 56.797831647888685 143.3380523025891 56.875072919356924 143.62202021322958C56.95206421907283 143.9059881238701 57.127544389204544 144.13096270096204 57.401013486247415 144.29719391625775L59.58926620609503 145.62579377986182L60.66864423263171 143.84799467733083ZM56.3058872393143 139.5014858479145L55.33424703802944 140.6703537617833L55.026781782670454 140.41463265915547C54.509840198863635 139.98493121690987 53.95015344540934 140.074421104242 53.347221578802944 140.68285234939952L49.60289470073605 144.43642818230242L45.234888300619836 140.80533850803846L50.348810409672005 134.65353368333547L51.5791713746126 135.6761681220945L47.38589522937112 140.72084805575284L49.37916998240573 142.37791080191116L52.27009329803719 139.47548878567278C52.9017719161609 138.84930954610022 53.506453585033576 138.5058483584065 54.083888332902895 138.44485525083934C54.64657474738507 138.38561194553847 55.22325957999742 138.60133756779442 55.8136928589876 139.09228208935951L56.3058872393143 139.5014858479145ZM44.47497417355371 135.28596221671617L41.35132715650826 131.74736209081223C40.92012588374871 132.2420561886622 40.69415141964746 132.77574587987473 40.67365373595687 133.34893110795454C40.652906080513944 133.92186636428204 40.85088370835485 134.44430732663997 41.26733664772727 134.9162539950284C41.70503718604726 135.41194797988763 42.20598057770532 135.68116755714098 42.77016682270144 135.72391272678848C43.326353971623185 135.773657105501 43.89453976465651 135.6276736021436 44.47497417355371 135.28596221671617ZM43.35535069489282 130.51200169082514L42.2437263123063 129.2523940308626C42.878654563210226 129.00492199606146 43.592823859600976 128.943678916742 44.38623420147856 129.06866479290417C45.16439626646436 129.19265078205706 45.8640672012203 129.60635403215392 46.48524700574638 130.31027448669937C47.25466005940082 131.18192598705448 47.60212079513171 132.15556596235794 47.52762921293905 133.2316943561144C47.44588844992898 134.29957368204416 46.941445453738375 135.2432170470687 46.0138002808626 136.06187453593103C45.086155107986826 136.88078199654572 44.0872679856986 137.26448863636364 43.01738888575026 137.2129944553848C41.94051057673683 137.15350117833162 41.01736489540289 136.68780380375128 40.247951841748446 135.81615230339617C39.52778322330191 135.0004944755617 39.204069804041836 134.06984964165807 39.27681158396823 133.02396782993284C39.34955336389463 131.97808601820762 39.80575181188662 131.084437003648 40.64540692794421 130.34327075800618C40.717398792613636 130.2797779329158 40.8718813355501 130.16454095509425 41.10885455675361 129.99805976804623L41.29808317326317 129.873823807141L45.37462251016916 134.4918019595816C45.83007104290419 133.9761102345364 46.064794518336775 133.42017305736698 46.07929287997159 132.82399042807333C46.0937912416064 132.22805777053202 45.88931434820506 131.69011855952996 45.46561222801524 131.21017279506714C45.16914572975852 130.8742107599432 44.82818425958806 130.6489862110989 44.44222787399922 130.53424917678203C44.04127318327092 130.41876222720816 43.67906411415289 130.4112630746384 43.35535069489282 130.51200169082514ZM42.739420297165545 126.06550416047908L35.994932447701444 130.3680179614863L35.13452967620093 129.01917038594394L37.83222482728564 127.29811487119059L35.8099533509814 124.12822307996514L33.112258199896694 125.84927859471848L32.25160545664385 124.50043101917613L38.99609330610795 120.19766724641659L39.856746049360794 121.54676479371126L37.0915585251485 123.31081544986439L39.113580029700415 126.48070724108987L41.87901752566503 124.7164066131844L42.739420297165545 126.06550416047908ZM37.93221352821539 118.23838865169809L30.61604028118543 121.47477292904183L29.968863414417612 120.01168826268723L35.23651815114927 117.68145158751936L35.10703278344524 117.38873466554752L28.73900239298166 117.23150243333548L27.800358463003615 115.10974219960613L35.11653171003357 111.87335792226239L35.76395854855372 113.33669256036931L30.496303811822052 115.66667926378486L30.625789179526084 115.9593961857567L36.99356959823735 116.11662841796874L37.93221352821539 118.23838865169809ZM29.571908271726496 109.81084099383393L28.355295753163738 105.25035634442793C27.74861431027247 105.50057806850465 27.30841405442923 105.87753547100981 27.03419504212939 106.38097858019111C26.759976029829545 106.88467166112473 26.704232329061206 107.44060883829415 26.86646399631973 108.04879011169938C27.036694759652633 108.68771791064049 27.364907670454542 109.15216542645919 27.85085275697314 109.44213265915546C28.32629902989411 109.734599609375 28.899984201478564 109.8575857115186 29.571908271726496 109.81084099383393ZM30.700030789966423 105.03888024196151L30.267079714940596 103.415563682367C30.946002994253615 103.47730670519111 31.61242768595041 103.74127687564565 32.26660376178331 104.20697425022598C32.907781306495345 104.66517247223658 33.34923142110021 105.34784532783445 33.591204077350206 106.2547428452673C33.890920208387136 107.37811590021306 33.76718419098657 108.40474988700929 33.22049596865315 109.33439483390366C32.67080808529184 110.25379093895273 31.798156697927425 110.87297096946021 30.60279177831224 111.19193492542612C29.40717688694473 111.51064890963973 28.342297222042873 111.40841046293905 27.407652840102013 110.88496961357178C26.470508740637914 110.35127992235924 25.852078625387396 109.52262356340391 25.552362494350465 108.39925050845817C25.27189418824251 107.34811928993413 25.397629979661673 106.37047976659348 25.929319896855628 105.46708185369317C26.461009814049586 104.56343396904055 27.267918630552685 103.9672513397469 28.350046346364927 103.67853396581225C28.442785866477273 103.65378676233212 28.63251442649148 103.619790604016 28.918982054655213 103.5765454908639L29.14370665999483 103.54979851336518L30.731527230759294 109.50162593620867C31.368955199186463 109.24315514430526 31.82740339294938 108.85044952140366 32.10612189679106 108.32350906750388C32.38509037238507 107.79631864185174 32.44208393191503 107.2236333572766 32.27710257538094 106.60520324202608C32.16161562580707 106.17250213875258 31.956888760653406 105.81854213746125 31.662672008167615 105.54382318165676C31.355706696313273 105.26135510153021 31.03474296632877 105.0931241122159 30.700030789966423 105.03888024196151ZM28.908233269305267 94.39933254777891C28.93473027505165 94.88927718233471 28.786996969427943 95.31397918953382 28.46453340892949 95.67318859762396C28.142319820183364 96.03264797746641 27.736115722656248 96.22562617026085 27.246171088100464 96.25212317600723C26.766975238894627 96.27812023824896 26.34752263849432 96.1298869891206 25.988313230404184 95.80767340037448C25.617605121707125 95.47521096978306 25.41937752211389 95.06925684400825 25.393380459872155 94.59006099480243C25.367883341135073 94.12136395919421 25.521615968814565 93.70191135879391 25.853828427653667 93.33120325009685C26.186290858245094 92.96074511315211 26.586745605468746 92.76276748531122 27.05544264107696 92.73727036657411C27.534888462035124 92.71127330433238 27.959590469234243 92.86450598850723 28.330298577931302 93.19696841909865C28.689507986021436 93.51918200784479 28.88223620706353 93.92013669857309 28.908233269305267 94.39933254777891Z" fill="white"></path></svg> 