<?xml version="1.0" encoding="UTF-8"?> <svg xmlns="http://www.w3.org/2000/svg" width="63" height="25" viewBox="0 0 63 25" fill="none"><g clip-path="url(#clip0_2345_5283)"><mask id="mask0_2345_5283" style="mask-type:luminance" maskUnits="userSpaceOnUse" x="0" y="0" width="63" height="25"><path d="M62.9106 0.5H0.792969V24.5H62.9106V0.5Z" fill="white"></path></mask><g mask="url(#mask0_2345_5283)"><path fill-rule="evenodd" clip-rule="evenodd" d="M60.8416 11.4201V18.6596C60.8416 20.137 61.592 20.3142 61.6774 20.3297C62.0339 20.3763 62.9099 20.6777 62.9099 22.4092C62.9099 23.2281 62.4814 23.886 61.7332 24.2163C61.2482 24.4316 60.7428 24.4542 60.5473 24.4542H60.4753C59.6607 24.4542 56.9543 24.1041 56.624 19.6048C56.5943 19.3951 56.6014 19.1932 56.6056 19.1177V11.2683L56.6028 11.2154C56.3769 11.1074 56.1835 10.9627 56.0212 10.7918V22.0394C56.0353 22.2723 56.0402 23.1688 55.4423 23.8358C55.1769 24.1309 54.6941 24.4824 53.9035 24.4824C53.1157 24.4824 52.4847 24.1238 52.119 23.497C51.3397 24.2996 50.6564 24.4641 49.7924 24.4641C49.2023 24.4528 48.6899 24.2212 48.2699 23.7794C47.1588 22.6097 47.156 20.3304 47.1666 19.8864V18.1683C46.7127 20.5612 45.9044 22.3104 44.744 23.3932C43.6202 24.4415 42.5332 24.5001 42.1979 24.4902L42.1048 24.4916C41.7151 24.4916 40.6943 24.3885 39.6524 23.4307C37.7487 21.6829 36.7844 18.1238 36.7844 12.8495C36.7844 7.47558 37.7544 3.87063 39.6695 2.13275C40.7848 1.11981 41.8648 1.0951 42.193 1.11628C42.4471 1.10216 43.5765 1.10922 44.7236 2.16592C46.0422 3.37863 46.9103 5.47157 47.3212 8.40948C47.4087 8.16454 47.5428 7.91254 47.7447 7.68736C48.0094 7.39087 48.4929 7.04075 49.2835 7.04075C50.0762 7.04075 50.5576 7.39157 50.8223 7.68666C51.4386 8.37489 51.4132 9.32713 51.4012 9.51066L51.4026 16.6542C51.4096 16.8377 51.4096 17.0756 51.4082 17.3177C51.4082 17.4801 51.4083 17.7201 51.4153 17.9685V17.9897L51.4308 18.3935C51.4308 18.697 51.507 18.9441 51.6002 18.9441C51.692 18.9441 51.7675 18.697 51.7675 18.3935L51.7696 18.3215C51.7739 18.2184 51.7767 18.1012 51.7788 17.9636V17.9601L51.7767 17.7794L51.7753 17.5789C51.7753 17.5295 51.7774 17.4871 51.7823 17.4434V9.48313C51.7682 9.25019 51.764 8.35372 52.3612 7.68736C52.6273 7.39087 53.108 7.04075 53.9 7.04075C54.6941 7.04075 55.1755 7.39157 55.4388 7.68736C55.5659 7.82854 55.6619 7.98101 55.7402 8.1356C55.9379 7.79325 56.2273 7.52145 56.5993 7.34004L56.5922 6.86287C56.5908 6.81345 56.595 6.76051 56.6028 6.70898V4.12828C56.5873 3.89534 56.5837 2.99887 57.1816 2.33181C57.4463 2.03745 57.9277 1.68522 58.7204 1.68522C59.5139 1.68522 59.9967 2.03675 60.2593 2.33181C60.8579 2.99887 60.855 3.89534 60.8395 4.1544V7.14945C61.7042 7.32804 62.564 7.95701 62.564 9.27701C62.564 10.5427 61.7219 11.2838 60.8402 11.4201H60.8416ZM44.1737 2.7991C43.2462 1.94498 42.3949 1.95416 42.2311 1.96616H42.1816C42.1576 1.96404 42.1223 1.96263 42.0779 1.96263C41.7715 1.96263 41.0191 2.0431 40.2172 2.77087C38.4878 4.33934 37.6111 7.73042 37.6111 12.8495C37.6111 17.8704 38.4836 21.2177 40.2031 22.7975C41.108 23.6269 41.9678 23.653 42.1725 23.641H42.2148C42.3807 23.6502 43.2524 23.641 44.1913 22.7657C45.9052 21.1634 46.7734 17.8288 46.7734 12.8495C46.7734 7.76713 45.8989 4.38592 44.1737 2.7991ZM54.8346 8.26266C54.6814 8.09325 54.3955 7.88995 53.9028 7.88995C53.4087 7.88995 53.1235 8.09254 52.9696 8.26266C52.5757 8.70172 52.6047 9.38078 52.6082 9.45701V17.4702C52.6082 17.4914 52.6082 17.509 52.6054 17.5288L52.6033 17.5542V17.7681C52.6054 17.9008 52.6061 18.0271 52.6033 18.1492V18.5671C52.6033 19.2391 52.1543 19.7841 51.6009 19.7841C51.0461 19.7841 50.5972 19.2384 50.5972 18.5664V17.9121C50.5887 17.7441 50.583 17.5471 50.583 17.3191C50.583 17.0841 50.583 16.8603 50.576 16.6697V9.48242C50.583 9.38007 50.6113 8.70383 50.216 8.26266C49.9943 8.01419 49.6795 7.88854 49.2842 7.88854C48.7901 7.88854 48.5049 8.09325 48.3524 8.26266C47.9572 8.70172 47.9854 9.38078 47.991 9.45701V19.897C47.9713 20.7631 48.1301 22.417 48.8593 23.1864C49.1289 23.4688 49.443 23.61 49.8193 23.6149L49.8546 23.6163C50.655 23.6163 51.2254 23.3601 51.9122 22.542L51.9666 22.482C52.0456 22.3937 52.1572 22.345 52.2701 22.345C52.304 22.345 52.3379 22.3485 52.3703 22.3563C52.5164 22.3951 52.6315 22.5116 52.6689 22.662C52.8284 23.2958 53.2548 23.6304 53.9014 23.6304C54.3941 23.6304 54.68 23.4271 54.8332 23.2577C55.2284 22.8172 55.1988 22.1382 55.1932 22.0627V9.48384C55.1988 9.38219 55.2284 8.70313 54.8332 8.26407L54.8346 8.26266ZM60.4068 7.94783C60.188 7.93583 60.0157 7.75019 60.0157 7.52428V4.12828C60.0214 4.02663 60.0489 3.34757 59.6543 2.9071C59.5012 2.73769 59.2167 2.5351 58.7226 2.5344C58.2284 2.5344 57.9433 2.73769 57.7908 2.9071C57.3955 3.34757 57.4237 4.02663 57.4308 4.10216V6.74922C57.4308 6.78098 57.4266 6.81275 57.4195 6.8431L57.4301 7.56313C57.428 7.63372 57.423 7.66901 57.4195 7.69513C57.3962 7.85466 57.2854 7.98595 57.1357 8.03395C56.5753 8.21748 56.2788 8.64595 56.2788 9.27631C56.2788 9.88336 56.5414 10.2942 57.0581 10.4925C57.1273 10.5187 57.2134 10.5723 57.2586 10.6316C57.3694 10.7707 57.4266 10.9845 57.4301 11.2634V19.1424C57.4273 19.1968 57.4196 19.3436 57.4443 19.5116C57.5177 20.4942 57.9419 23.6043 60.4816 23.6043L60.5501 23.6064C60.6666 23.6064 61.0555 23.5923 61.407 23.437C61.8567 23.2394 62.0847 22.8921 62.0847 22.41C62.0847 21.6667 61.8913 21.2142 61.5553 21.1704C61.3788 21.1394 60.0164 20.826 60.0164 18.6603V11.4257C60.0235 11.2337 60.0729 10.8158 60.3362 10.6535C60.3997 10.614 60.4732 10.5935 60.548 10.5935C61.1219 10.5935 61.7409 10.1805 61.7409 9.27631C61.7409 8.14266 60.8077 7.96972 60.4068 7.94783ZM42.195 19.722H42.1937C41.8083 19.722 41.4546 19.4911 41.2929 19.1311C40.7847 18.006 40.5179 15.8643 40.5179 12.9363C40.5179 9.06595 40.9302 7.23769 41.2753 6.38569C41.4306 6.00451 41.7906 5.75887 42.193 5.75887C42.5939 5.75887 42.9524 6.00451 43.1077 6.38498C43.4536 7.23698 43.8659 9.06525 43.8659 12.9356C43.8659 15.858 43.5998 17.9982 43.0965 19.1262C42.9342 19.4862 42.5826 19.7212 42.1964 19.722H42.195ZM42.3222 6.72381C42.2996 6.66875 42.2487 6.63416 42.1915 6.63416C42.1329 6.63416 42.0821 6.66804 42.0588 6.7231C41.744 7.49957 41.367 9.20995 41.367 12.9349C41.367 16.662 41.8033 18.1867 42.0637 18.7627C42.0863 18.8135 42.1372 18.8474 42.1923 18.8474C42.2473 18.8474 42.2982 18.8135 42.3208 18.7627C42.5791 18.1824 43.0139 16.6556 43.0139 12.9356C43.0139 9.20995 42.6363 7.50028 42.3208 6.72381H42.3222ZM33.6016 17.2083C32.3416 17.2083 31.8737 17.269 31.7473 17.2902C31.7262 17.2987 31.705 17.3057 31.6838 17.3114C31.6203 17.377 31.4155 17.6467 31.4155 18.4634C31.4155 18.8798 31.5101 19.8172 32.0734 19.8172C32.1948 19.8137 32.5534 19.5723 32.7595 19.3584C33.327 18.8361 34.2137 18.7231 34.9083 19.4107C35.6036 20.0975 35.5252 21.073 35.3699 21.5424C35.1031 22.566 33.9793 24.4824 31.688 24.4824C28.8617 24.4824 27.5728 20.5125 27.5177 20.3403C27.5064 20.305 27.4329 20.0805 27.3383 19.7071V22.0394C27.3539 22.2723 27.3574 23.1688 26.7595 23.8358C26.4955 24.1302 26.0134 24.4817 25.2207 24.4817C24.428 24.4817 23.9451 24.1302 23.6819 23.8351C23.084 23.1681 23.0875 22.2702 23.103 22.0125L23.1016 14.9749C23.0981 14.9396 23.0974 14.9043 23.0974 14.8704C23.0974 13.801 22.9972 13.0563 22.8757 12.666C22.767 13.0238 22.6689 13.7375 22.6887 14.8648C22.6887 14.898 22.6887 14.9332 22.6844 14.9671V22.033C22.6986 22.3097 22.6915 23.1751 22.1409 23.826C21.8896 24.1245 21.4301 24.481 20.6691 24.481C19.9089 24.481 19.448 24.1245 19.196 23.8245C18.6468 23.1751 18.6383 22.3189 18.6524 22.0436L18.6567 15.0045C18.6532 14.9707 18.6517 14.9361 18.6517 14.9015C18.6517 13.8321 18.5508 13.086 18.4294 12.6963C18.3207 13.0535 18.2247 13.7692 18.243 14.8958C18.243 14.9311 18.243 14.965 18.2395 14.9989V22.0542C18.255 22.2836 18.2586 23.1695 17.6607 23.8344C17.3967 24.1288 16.9153 24.4803 16.1233 24.4803C15.3299 24.4803 14.8484 24.1288 14.5844 23.8337C13.9844 23.1667 13.9887 22.2688 14.0056 22.0111L14.0042 9.48031C13.9887 9.24736 13.9852 8.35089 14.5844 7.68454C14.8484 7.38804 15.3299 7.03792 16.1233 7.03792C16.5221 7.03792 17.2407 7.17204 17.7327 8.04384C18.7562 7.24898 19.443 7.13039 19.6929 7.11769C20.2082 7.0471 21.2155 7.25322 21.7929 8.38831C22.3012 7.83631 23.2132 7.06122 24.32 7.06122C26.0248 7.06122 27.3116 9.16195 27.3292 11.0495C27.3433 11.2231 27.3377 11.358 27.3349 11.4081V11.9318C27.3666 11.8118 27.3983 11.6918 27.435 11.569C28.7692 6.96169 31.2115 6.87275 31.6901 6.90028C35.5372 6.92145 35.8477 13.3485 35.8583 13.6224C35.8774 13.7848 36.0348 15.5001 35.1475 16.5165C34.7543 16.9683 34.2186 17.2062 33.6003 17.2062L33.6016 17.2083ZM26.5076 11.1045L26.5062 11.0728C26.4991 9.63983 25.5228 7.91042 24.3235 7.91042C23.127 7.91042 22.107 9.31654 22.0435 9.40548C21.9743 9.50854 21.8628 9.57489 21.74 9.58689C21.5967 9.59889 21.4576 9.53607 21.3729 9.41748C21.2988 9.31583 21.2275 9.17748 21.1612 9.00666C20.7179 7.85607 19.8073 7.95983 19.7684 7.96478C19.6414 7.97325 19.1106 8.03536 18.2099 8.74125C18.0087 8.89866 17.7179 9.08007 17.4828 9.04054C17.3967 9.02642 17.3176 8.98548 17.2548 8.92054C17.2456 8.91136 17.2322 8.89654 17.2244 8.88525C17.1962 8.85207 17.1736 8.81254 17.1581 8.77089C17.1397 8.72501 17.1214 8.67913 17.1016 8.63536C17.0974 8.62831 17.0819 8.59442 17.0783 8.58736C16.856 8.12572 16.5348 7.89066 16.1254 7.89066C15.6313 7.89066 15.3447 8.09325 15.1936 8.26336C14.7983 8.70242 14.8251 9.38148 14.8308 9.45772V22.0394C14.8237 22.141 14.7969 22.8201 15.1922 23.2605C15.344 23.43 15.6299 23.6332 16.124 23.6332C16.6167 23.6332 16.9019 23.4307 17.0543 23.2605C17.4397 22.8321 17.4228 22.2017 17.4157 22.0817L17.4143 14.9805C17.4143 14.9615 17.4143 14.9452 17.4172 14.9283C17.3981 13.7989 17.4736 12.3674 17.9466 11.8627C18.0906 11.7088 18.2642 11.6318 18.4619 11.6318C18.6221 11.6318 18.7668 11.6989 18.8924 11.8323C19.2807 12.2474 19.4783 13.2808 19.4783 14.9029C19.4804 14.9241 19.4819 14.9636 19.4819 14.9827L19.4769 22.05C19.4769 22.0535 19.4748 22.057 19.4748 22.062C19.4748 22.0662 19.4769 22.069 19.4748 22.074C19.4727 22.1502 19.4466 22.8278 19.8172 23.2697C20.0219 23.5097 20.307 23.6325 20.667 23.6325C21.027 23.6325 21.3122 23.5104 21.5155 23.2697C21.8882 22.8271 21.8614 22.1403 21.8572 22.0627L21.8586 22.0507L21.8572 22.0394V14.9481C21.8572 14.9311 21.8572 14.9142 21.8593 14.8972C21.8395 13.7678 21.9157 12.3363 22.3887 11.8316C22.532 11.6784 22.7049 11.6001 22.9026 11.6001C23.0635 11.6001 23.2089 11.6685 23.3332 11.8005C23.7228 12.217 23.919 13.249 23.919 14.8711C23.9219 14.8923 23.9233 14.9311 23.9233 14.9509V22.038C23.9183 22.1403 23.8894 22.8194 24.2847 23.2591C24.4371 23.43 24.7224 23.6332 25.2165 23.6332C25.7106 23.6332 25.9958 23.43 26.1483 23.2591C26.5436 22.8194 26.5139 22.1403 26.5096 22.0648V11.3869C26.511 11.3375 26.5153 11.2387 26.504 11.1045H26.5076ZM35.0381 13.6902C35.0324 13.5956 34.9633 12.0349 34.4692 10.5314C33.8622 8.69395 32.9198 7.75866 31.6648 7.75019H31.6082C31.1953 7.75019 29.3438 7.96478 28.2285 11.8147C26.9918 16.0831 28.2447 19.9111 28.299 20.0721C28.3132 20.118 29.4553 23.634 31.6859 23.634C33.4753 23.634 34.3612 22.1304 34.5772 21.2961C34.6724 21.0095 34.7311 20.4151 34.3344 20.0241C33.8318 19.5264 33.3157 19.9867 33.2932 20.0064C33.2861 20.0163 32.6579 20.6678 32.072 20.6678C31.7318 20.6678 30.5897 20.5408 30.5897 18.4641C30.5897 17.0664 31.1071 16.65 31.34 16.5321C31.3789 16.513 31.4212 16.4989 31.4656 16.4911C31.4868 16.482 31.5109 16.4742 31.5328 16.47C31.6789 16.4368 32.1723 16.3612 33.601 16.3612C33.985 16.3612 34.2983 16.2236 34.5348 15.9532C35.1934 15.2001 35.0382 13.7057 35.0375 13.6916L35.0381 13.6902ZM31.544 13.7347C31.544 13.7347 30.572 13.825 30.572 12.3794C30.572 10.8561 31.5433 10.8504 31.5433 10.8504C31.5433 10.8504 32.5139 10.8561 32.5139 12.3801C32.5139 13.8257 31.5426 13.7354 31.5426 13.7354L31.544 13.7347ZM31.5476 11.7314H31.5383C31.5383 11.7314 31.3972 11.7525 31.3972 12.2297C31.3972 12.7076 31.3887 12.8848 31.5383 12.8848H31.5476C31.6958 12.8848 31.6888 12.7083 31.6888 12.2297C31.6888 11.7518 31.5476 11.7314 31.5476 11.7314ZM12.9277 23.8365C12.663 24.1316 12.1816 24.4824 11.3889 24.4824C10.5962 24.4824 10.1148 24.1316 9.85009 23.8358C9.2515 23.1681 9.25574 22.2716 9.27127 22.0125L9.26986 9.48313C9.25574 9.25019 9.2515 8.35372 9.8508 7.68666C10.1148 7.39016 10.5969 7.04004 11.3896 7.04004C12.1816 7.04004 12.663 7.39087 12.9284 7.68666C13.527 8.35301 13.5228 9.24948 13.5073 9.50783V22.0387C13.5228 22.2716 13.527 23.1681 12.9284 23.8351L12.9277 23.8365ZM12.3207 8.26336C12.1689 8.09254 11.883 7.88925 11.3889 7.88925C10.8948 7.88925 10.6103 8.09254 10.4572 8.26336C10.0619 8.70242 10.0901 9.38148 10.095 9.45842V22.0401C10.0901 22.1417 10.0619 22.8215 10.4564 23.2612C10.6096 23.4321 10.8941 23.634 11.3882 23.634C11.8823 23.634 12.1682 23.4321 12.32 23.2612C12.7153 22.8208 12.687 22.1417 12.6821 22.0669V9.48313C12.687 9.38148 12.7146 8.70242 12.3193 8.26336H12.3207ZM8.77009 8.4236V22.0401C8.78421 22.273 8.78844 23.1695 8.18986 23.8358C7.92515 24.1302 7.44377 24.4817 6.65107 24.4817C5.85836 24.4817 5.37695 24.1302 5.11224 23.8351C4.51507 23.1688 4.5193 22.2716 4.53342 22.0125V8.4236C4.53342 6.76051 4.24189 6.64828 3.27977 6.27416C1.62519 5.63181 1.47695 4.74804 1.49107 4.39651V2.36357C1.49107 1.64569 1.78471 1.21298 2.03107 0.978633C2.52519 0.507104 3.14989 0.501457 3.32777 0.507104H9.9948C10.155 0.500045 10.7783 0.507104 11.271 0.978633C11.5181 1.21298 11.8124 1.64569 11.8124 2.36428V4.38028C11.8449 4.83698 11.6452 5.66992 10.0124 6.2791C9.0828 6.62498 8.77009 6.74287 8.77009 8.42501V8.4236ZM10.9866 4.39722V2.36357C10.9866 1.95204 10.8362 1.72122 10.7099 1.60122C10.4452 1.35063 10.083 1.35416 10.0131 1.35769H3.26636C3.14495 1.35769 2.8266 1.37887 2.59295 1.60263C2.4673 1.72263 2.31766 1.95204 2.31766 2.36498V4.41345C2.31413 4.48616 2.33177 4.99934 3.57271 5.47934C4.7466 5.93675 5.3586 6.27416 5.3586 8.42289V22.0394C5.35436 22.141 5.32542 22.8208 5.72071 23.2605C5.87319 23.43 6.15836 23.6332 6.65248 23.6332C7.1466 23.6332 7.43177 23.4307 7.58424 23.2605C7.9795 22.8201 7.95127 22.141 7.94633 22.0655V8.42431C7.94633 6.36169 8.48986 5.94381 9.73221 5.48075C10.6972 5.12075 11.012 4.69298 10.9887 4.43604V4.39792L10.9866 4.39722Z" fill="white"></path></g></g><defs><clipPath id="clip0_2345_5283"><rect width="62.1176" height="24" fill="white" transform="translate(0.792969 0.5)"></rect></clipPath></defs></svg> 