<?xml version="1.0" encoding="UTF-8"?> <svg xmlns="http://www.w3.org/2000/svg" width="128" height="25" viewBox="0 0 128 25" fill="none"><g clip-path="url(#clip0_2345_5017)"><path fill-rule="evenodd" clip-rule="evenodd" d="M9.86702 11.6375V3.95237H10.5245C11.0175 3.95237 11.8397 3.87037 11.8397 6.17151V9.37709C11.8397 11.6785 11.0172 11.6375 10.5245 11.6375H9.86702ZM4.81204 20.843H3.57935V21.5009H12.5379C14.7163 21.5009 16.9766 20.7193 16.9766 17.1852C16.9766 14.761 16.1134 12.4594 12.7434 12.1304V11.8427C14.3875 11.72 16.6889 10.9388 16.6889 7.52818C16.6889 3.66488 13.6886 3.25391 12.7029 3.25391H3.5791V3.95262H4.81179L4.81204 20.843ZM9.86702 20.843V12.2949H10.5245C11.0175 12.2949 11.8397 12.2539 11.8397 14.5553V18.5816C11.8397 20.8833 11.0172 20.843 10.5245 20.843H9.86702Z" fill="white"></path><path fill-rule="evenodd" clip-rule="evenodd" d="M19.0715 3.95262H17.7974V3.25391H29.1398V9.78807H28.7288C28.1936 3.99362 25.3175 3.95237 24.4135 3.95237H24.0848V11.9662H24.331C25.9749 11.9662 26.6327 9.9118 26.5504 8.06215H27.0024V16.4867H26.5504C26.6327 14.6373 25.9749 12.6237 24.331 12.6237H24.0848V20.843C27.5366 20.9255 28.7286 17.7194 29.0163 14.4733H29.468V21.5009H17.7969V20.843H19.0711V3.95262H19.0715Z" fill="white"></path><path fill-rule="evenodd" clip-rule="evenodd" d="M35.5528 3.95262V20.8432H32.224C33.7031 18.6653 33.8676 15.5005 33.8676 10.9802V5.43253C33.8676 3.99411 34.3198 3.95286 34.6896 3.95286H35.5528V3.95262ZM31.7307 3.25415V3.95286H32.3882C32.7992 3.95286 33.3746 4.03535 33.3746 5.63778V10.9805C33.3746 18.3779 32.3472 20.8435 30.7448 20.8435H30.498V24.5003H30.909C30.991 21.7892 31.9777 21.5014 34.1556 21.5014H38.5116C40.69 21.5014 41.6762 21.7892 41.7585 24.5003H42.1694V20.8432H40.6078V3.95262H41.8405V3.25391H31.7307V3.25415Z" fill="white"></path><path fill-rule="evenodd" clip-rule="evenodd" d="M47.3034 5.22715C47.3034 4.07646 47.6734 3.58348 48.2899 3.58348C48.8653 3.58348 49.2761 4.0767 49.2761 5.22715V19.6114C49.2761 20.7201 48.8653 21.2138 48.2899 21.2138C47.6734 21.2138 47.3034 20.7198 47.3034 19.6114V5.22715ZM41.9609 12.4188C41.9609 16.9395 44.0978 21.911 48.2896 21.911C52.4809 21.911 54.5768 16.9395 54.5768 12.4188C54.5768 7.85726 52.4809 2.88477 48.2896 2.88477C44.0978 2.88477 41.9609 7.85726 41.9609 12.4188Z" fill="white"></path><path fill-rule="evenodd" clip-rule="evenodd" d="M56.7967 5.35004H56.7557V18.5819C56.7557 20.638 57.4541 20.8432 58.0294 20.8432H58.3581V21.5012H54.9883V20.8432C55.5223 20.8835 56.2625 20.5958 56.2625 18.5819V3.95262H54.9883V3.25391H61.317L62.9194 10.6925H63.0019L64.6455 3.25391H70.9744V3.95262H69.7413V20.8432H70.9744V21.5012H63.4536V20.8432H64.6863V5.43253H64.6043L61.029 21.5012H60.3305L56.7967 5.35004Z" fill="white"></path><path fill-rule="evenodd" clip-rule="evenodd" d="M76.8945 5.22715C76.8945 4.07646 77.305 3.58348 77.8804 3.58348C78.4972 3.58348 78.8664 4.0767 78.8664 5.22715V19.6114C78.8664 20.7201 78.4972 21.2138 77.8804 21.2138C77.305 21.2138 76.8945 20.7198 76.8945 19.6114V5.22715ZM71.5928 12.4188C71.5928 16.9395 73.6887 21.911 77.8804 21.911C82.0712 21.911 84.2089 16.9395 84.2089 12.4188C84.2089 7.85726 82.0712 2.88477 77.8804 2.88477C73.6887 2.88477 71.5928 7.85726 71.5928 12.4188Z" fill="white"></path><path fill-rule="evenodd" clip-rule="evenodd" d="M96.4956 9.2538H96.0438C95.6324 6.2952 94.1944 3.99357 92.5505 3.99357C90.7419 3.99357 90.6604 6.66493 90.6604 7.93886V16.3632C90.6604 17.1849 90.7011 20.3075 92.7558 20.3075C95.0569 20.3075 95.9618 17.1436 96.2906 14.719L96.7011 14.8425C96.3313 17.8841 95.1806 21.9099 91.6461 21.9099C87.413 21.9099 85.3584 16.7329 85.3584 12.3769C85.3584 7.15741 87.907 2.88363 91.6461 2.88363C92.3865 2.88363 93.495 3.13012 94.5232 4.07532L95.8791 2.47266H96.2906L96.4956 9.2538Z" fill="white"></path><path fill-rule="evenodd" clip-rule="evenodd" d="M101.18 3.95237C98.8369 4.15786 98.0149 7.81567 97.8509 9.78807H97.4395V3.25391H109.974V9.78807H109.522C109.357 7.81591 108.535 4.15786 106.232 3.95237V20.843H107.712V21.5009H99.6571V20.843H101.178V3.95237H101.178H101.18Z" fill="white"></path><path fill-rule="evenodd" clip-rule="evenodd" d="M117.126 15.9937H117.207L119.097 5.18531V3.95237H118.481V3.25391H125.385V3.95237H124.152V20.843H125.385V21.5009H118.481V20.843H119.097V8.06215H119.016L117.126 18.8291V20.843H117.742V21.5009H110.836V20.843H112.071V3.95237H110.836V3.25391H117.742V3.95237H117.126V15.9937Z" fill="white"></path></g><defs><clipPath id="clip0_2345_5017"><rect width="126.681" height="24" fill="white" transform="translate(0.861328 0.5)"></rect></clipPath></defs></svg> 