<?xml version="1.0" encoding="UTF-8"?> <svg xmlns="http://www.w3.org/2000/svg" width="166" height="37" viewBox="0 0 166 37" fill="none"><g clip-path="url(#clip0_2345_4901)"><mask id="mask0_2345_4901" style="mask-type:luminance" maskUnits="userSpaceOnUse" x="0" y="0" width="166" height="37"><path d="M0.648438 0.5H165.863V36.5H0.648438V0.5Z" fill="white"></path></mask><g mask="url(#mask0_2345_4901)"><mask id="mask1_2345_4901" style="mask-type:luminance" maskUnits="userSpaceOnUse" x="0" y="0" width="37" height="37"><path d="M0.650391 0.5H36.6504V36.5H0.650391V0.5Z" fill="white"></path></mask><g mask="url(#mask1_2345_4901)"><path d="M0.650391 13.6617C0.650391 2.82275 2.97389 0.5 13.8129 0.5H23.4894C34.3269 0.5 36.6504 2.82275 36.6504 13.6617V23.3375C36.6504 34.1773 34.3276 36.5 23.4894 36.5H13.8121C2.97389 36.5 0.650391 34.1772 0.650391 23.3383V13.6617Z" fill="#0077FF"></path><path d="M19.9955 36.5H23.4275C34.0625 36.5 36.5375 34.2845 36.6477 24.0867C36.6507 23.8415 36.6515 23.5918 36.6515 23.3383V13.6625C36.6515 13.388 36.65 13.1202 36.647 12.857C36.5285 2.70725 34.0422 0.5 23.4275 0.5H19.9955C9.10548 0.5 6.77148 2.82275 6.77148 13.6617V23.3375C6.77148 34.1773 9.10548 36.5 19.9955 36.5Z" fill="#FF2B42"></path><path d="M26.0525 15.3865C27.8728 16.4373 28.7825 16.963 29.0878 17.6485C29.2196 17.9444 29.2877 18.2647 29.2877 18.5887C29.2877 18.9126 29.2196 19.2329 29.0878 19.5288C28.7825 20.2143 27.8728 20.74 26.0525 21.7908L21.065 24.67C19.2455 25.72 18.3358 26.2458 17.5888 26.1678C17.2667 26.1338 16.9554 26.0325 16.6751 25.8705C16.3947 25.7085 16.1515 25.4893 15.9613 25.2273C15.5195 24.6198 15.5195 23.5698 15.5195 21.4683V15.709C15.5195 13.6075 15.5195 12.5568 15.9613 11.9493C16.1516 11.6874 16.3948 11.4684 16.6752 11.3065C16.9555 11.1446 17.2668 11.0434 17.5888 11.0095C18.3358 10.9315 19.2463 11.4565 21.0658 12.5073L26.0533 15.3873L26.0525 15.3865Z" fill="white"></path></g><path d="M53.3245 27.587H57.814L64.4072 9.5H61.15L55.8655 24.4055H55.3525L50.245 9.5H46.9375L53.3245 27.587ZM81.2672 27.587L72.955 18.2225L80.626 9.5H76.8295L70.4155 16.8627H69.6715V9.5H66.5927V27.587H69.6715V19.8395H70.441L77.2143 27.587H81.2672ZM98.929 18.2997C100.52 17.684 101.52 16.2733 101.52 14.426C101.52 11.5528 99.1345 9.5 95.6455 9.5H88.5902V27.587H96.1585C99.673 27.587 102.059 25.5343 102.059 22.5328C102.059 20.429 100.879 18.8637 98.929 18.2997ZM91.669 12.194H95.6455C97.2872 12.194 98.416 13.1945 98.416 14.6825C98.416 16.145 97.2872 17.1455 95.6455 17.1455H91.669V12.194ZM96.1585 24.893H91.669V19.8387H96.1585C97.7747 19.8387 98.9035 20.8655 98.9035 22.3535C98.9035 23.867 97.7747 24.893 96.1585 24.893ZM104.869 27.587H109.051L114.028 17.684H114.438V27.587H117.26V14.246H113.078L108.101 24.149H107.691V14.246H104.869V27.587ZM119.192 31.5635H122.142V27.587H131.737V31.5635H134.687V24.893H132.378V14.246H122.604L121.937 21.071C121.706 23.4822 120.988 24.893 119.525 24.893H119.192V31.5635ZM123.681 24.893C124.4 24.2007 124.708 23.0202 124.913 21.0192L125.324 16.94H129.428V24.893H123.681ZM149.571 20.7628C149.571 16.9145 146.698 13.9902 142.644 13.9902C138.59 13.9902 135.717 16.889 135.717 20.9165C135.717 24.944 138.59 27.8435 142.644 27.8435C145.415 27.8435 148.032 26.5347 149.033 23.9952L146.261 23.5333C145.62 24.4828 144.389 25.1495 142.823 25.1495C140.566 25.1495 139.078 23.7642 138.796 21.7115H149.519C149.546 21.4295 149.571 21.122 149.571 20.7628ZM142.644 16.5552C144.491 16.5552 145.877 17.735 146.364 19.403H138.975C139.463 17.684 140.849 16.5552 142.644 16.5552ZM158.232 27.8435C162.414 27.8435 165.365 24.9703 165.365 20.9165C165.365 16.8627 162.414 13.9895 158.232 13.9895C154.051 13.9895 151.1 16.8627 151.1 20.9165C151.1 24.9703 154.051 27.8435 158.232 27.8435ZM158.232 25.1495C155.821 25.1495 154.179 23.4305 154.179 20.9165C154.179 18.4025 155.821 16.6835 158.232 16.6835C160.644 16.6835 162.286 18.4025 162.286 20.9165C162.286 23.4305 160.644 25.1495 158.232 25.1495Z" fill="white"></path></g></g><defs><clipPath id="clip0_2345_4901"><rect width="165.75" height="36" fill="white" transform="translate(0.111328 0.5)"></rect></clipPath></defs></svg> 