<?xml version="1.0" encoding="UTF-8"?> <svg xmlns="http://www.w3.org/2000/svg" width="82" height="23" viewBox="0 0 82 23" fill="none"><g clip-path="url(#clip0_2345_5279)"><path d="M68.9827 1.06988V22.026H81.8185V20.6447H72.0719V10.1877H81.5227V8.80636H72.0719V2.45067H81.8185V1.06988H68.9827ZM55.5812 1.02762C54.6219 1.29104 53.7263 1.65983 52.8943 2.13399C52.0624 2.60872 51.3051 3.17899 50.6231 3.84651C49.9411 4.51346 49.3581 5.25335 48.8741 6.0662C48.3895 6.87904 48.0138 7.75499 47.7457 8.69462C47.4777 9.63425 47.3439 10.6069 47.3439 11.6119C47.3439 12.6176 47.4777 13.5827 47.7457 14.5078C48.0138 15.4336 48.3895 16.3002 48.8741 17.1079C49.3581 17.9161 49.9411 18.6514 50.6231 19.3137C51.3051 19.976 52.0618 20.5468 52.8943 21.0262C53.7268 21.5056 54.6225 21.8744 55.5812 22.1326C56.5405 22.3908 57.5421 22.5199 58.5854 22.5199C60.3153 22.5199 61.9143 22.224 63.3814 21.6318C64.8484 21.0401 66.1366 20.218 67.2464 19.1655L66.4422 18.1367C66.0098 18.6068 65.5136 19.0248 64.9544 19.3907C64.3945 19.7571 63.7999 20.0669 63.17 20.321C62.5401 20.5746 61.8865 20.7674 61.2091 20.8988C60.5323 21.0308 59.8643 21.0963 59.206 21.0963C57.8327 21.0963 56.6152 20.845 55.5528 20.3425C54.4899 19.8399 53.5995 19.1562 52.8798 18.2918C52.1602 17.4275 51.6148 16.4224 51.2437 15.2761C50.872 14.1298 50.6868 12.9082 50.6868 11.6119C50.6868 10.2873 50.8749 9.0472 51.2513 7.89162C51.627 6.73604 52.1776 5.72636 52.9018 4.86141C53.6261 3.99704 54.5188 3.3162 55.5818 2.81772C56.6441 2.31983 57.8623 2.07088 59.2349 2.07088C59.8741 2.07088 60.5092 2.1392 61.1391 2.27525C61.769 2.4113 62.3757 2.59483 62.9587 2.82467C63.5417 3.05509 64.0964 3.32951 64.6232 3.64909C65.1495 3.96867 65.6294 4.31141 66.0619 4.67788L66.8516 3.6352C65.7701 2.69557 64.5311 1.9603 63.1347 1.42941C61.7383 0.898512 60.222 0.633354 58.5859 0.633354C57.5415 0.632776 56.5405 0.764775 55.5812 1.02762ZM45.4236 1.06988H42.3204V22.026H45.4236V1.06988ZM25.7446 20.3205C24.7575 19.8226 23.9319 19.1417 23.269 18.2768C22.6061 17.4124 22.1053 16.3952 21.7666 15.2257C21.4279 14.0563 21.2589 12.7994 21.2589 11.4556C21.2589 10.1217 21.4256 8.87178 21.7597 7.70693C22.0931 6.54209 22.5922 5.53183 23.2551 4.67672C23.918 3.82162 24.7407 3.14772 25.7237 2.65446C26.7062 2.1612 27.8514 1.91457 29.1586 1.91457C30.4468 1.91457 31.585 2.1612 32.5721 2.65446C33.5592 3.14772 34.3848 3.8222 35.0477 4.67672C35.7106 5.53183 36.2114 6.54209 36.55 7.70693C36.8887 8.87178 37.0578 10.1217 37.0578 11.4556C37.0578 12.7994 36.8858 14.0557 36.5431 15.2257C36.1998 16.3952 35.6944 17.4124 35.0268 18.2768C34.3593 19.1411 33.5337 19.8226 32.5512 20.3205C31.5688 20.8184 30.4375 21.0673 29.1586 21.0673C27.8699 21.0679 26.7322 20.8189 25.7446 20.3205ZM32.1205 22.0399C33.07 21.7771 33.9587 21.4083 34.7866 20.9336C35.6139 20.4594 36.3688 19.8886 37.0503 19.221C37.7317 18.5541 38.3147 17.8142 38.7992 17.0014C39.2832 16.1891 39.6596 15.3149 39.9276 14.3799C40.1957 13.4449 40.3294 12.4705 40.3294 11.4556C40.3294 10.4598 40.1957 9.49646 39.9276 8.56667C39.6596 7.6363 39.2832 6.76788 38.7992 5.95967C38.3147 5.15146 37.7317 4.41446 37.0503 3.74693C36.3683 3.07999 35.6139 2.50914 34.7866 2.03441C33.9587 1.56083 33.07 1.19435 32.1205 0.936144C31.1705 0.677933 30.1834 0.548828 29.1586 0.548828C28.124 0.548828 27.1294 0.680828 26.1753 0.94367C25.2206 1.20709 24.3273 1.57299 23.4954 2.04309C22.6634 2.5132 21.9061 3.08114 21.2241 3.74809C20.5421 4.41504 19.9568 5.15262 19.4682 5.96083C18.979 6.76904 18.6009 7.63804 18.3329 8.56783C18.0648 9.4982 17.9311 10.461 17.9311 11.4568C17.9311 12.4717 18.0648 13.446 18.3329 14.381C18.6009 15.316 18.9796 16.1897 19.4682 17.0025C19.9568 17.8154 20.5421 18.5553 21.2241 19.2222C21.9056 19.8891 22.6628 20.46 23.4954 20.9347C24.3273 21.4095 25.2206 21.7783 26.1753 22.0411C27.1294 22.3039 28.124 22.4359 29.1586 22.4359C30.1834 22.4348 31.1705 22.3028 32.1205 22.0399ZM8.9713 22.026H12.3002L11.51 20.1236L19.522 1.06988H17.9282L10.7342 18.1645L3.83662 1.06988H0.592773L8.9713 22.026Z" fill="white"></path><path d="M79.4419 18.0116C79.4986 17.8599 79.5803 17.7285 79.6868 17.6173C79.7933 17.5062 79.9224 17.4188 80.0741 17.3557C80.2258 17.2926 80.3977 17.2607 80.5888 17.259C80.6808 17.259 80.7723 17.2677 80.8632 17.2856C80.9541 17.3036 81.0421 17.3285 81.1266 17.3603C81.2112 17.3921 81.2916 17.4298 81.3669 17.4732C81.4422 17.5166 81.511 17.5629 81.5736 17.6127L81.6876 17.4715C81.5319 17.3452 81.3524 17.2462 81.1504 17.1733C80.9483 17.1009 80.73 17.0645 80.4956 17.0645C80.345 17.0645 80.2003 17.0812 80.0625 17.1142C79.9242 17.1472 79.7951 17.1947 79.6752 17.2567C79.5554 17.3186 79.4459 17.3927 79.3475 17.479C79.2491 17.5658 79.1652 17.6625 79.0951 17.7696C79.0251 17.8767 78.9712 17.9925 78.9324 18.1176C78.8936 18.2426 78.8745 18.3729 78.8745 18.5095C78.8745 18.6728 78.8954 18.8216 78.9365 18.9565C78.9776 19.0913 79.0366 19.2129 79.1125 19.3212C79.1883 19.4295 79.2792 19.5238 79.3852 19.6037C79.4911 19.6842 79.6092 19.7508 79.7389 19.8046C79.8692 19.8579 80.0087 19.8984 80.1581 19.925C80.3074 19.9517 80.4626 19.965 80.6241 19.965H81.698V18.1251H81.2528V19.7774H80.807C80.583 19.7774 80.3815 19.7473 80.2021 19.6877C80.0226 19.628 79.8703 19.5423 79.7453 19.4318C79.6202 19.3212 79.5247 19.1875 79.4575 19.0317C79.3904 18.876 79.3568 18.7017 79.3568 18.5095C79.3568 18.3289 79.3852 18.1633 79.4419 18.0116ZM77.3982 17.7575L78.1491 19.408H76.6618L77.3982 17.7575ZM77.5916 17.1235H77.1157L77.2784 17.4882L76.1697 19.9644H76.4157L76.5784 19.5956H78.2325L78.3992 19.9644H78.8693L77.5916 17.1235ZM73.4023 17.1235H72.8818L73.0445 17.303V19.9644H73.2518V17.5305L74.3136 18.6919L75.3817 17.534V19.9644H75.8275V17.1235H75.3817V17.2422L74.4357 18.2663L73.4023 17.1235Z" fill="white"></path><path d="M12.3151 1.77295C12.3615 1.80479 12.3985 1.84764 12.4257 1.9009C12.4529 1.95416 12.4726 2.01553 12.4836 2.08443C12.4946 2.15332 12.5016 2.22569 12.5039 2.30153V2.38548H11.6766C11.6777 2.29922 11.6876 2.21643 11.7049 2.13653C11.7223 2.05664 11.7501 1.98601 11.7871 1.92522C11.8242 1.86443 11.8717 1.81637 11.929 1.7799C11.9863 1.74343 12.0552 1.7249 12.1362 1.7249C12.2092 1.7249 12.2688 1.74111 12.3151 1.77295ZM11.7854 1.62648C11.6777 1.67916 11.5874 1.74979 11.5133 1.83779C11.4398 1.92579 11.3836 2.02711 11.3448 2.14174C11.3066 2.25637 11.2869 2.37506 11.2869 2.49722C11.2869 2.64427 11.3072 2.77569 11.3477 2.88974C11.3882 3.00437 11.4508 3.10164 11.5365 3.18095C11.6221 3.26027 11.731 3.32106 11.863 3.36274C11.9956 3.40443 12.153 3.42527 12.3354 3.42527H12.7482V3.2649H12.3412C12.2185 3.2649 12.1154 3.24116 12.0315 3.19369C11.9475 3.14622 11.8786 3.08658 11.8259 3.01479C11.7732 2.943 11.735 2.86485 11.7113 2.78032C11.6881 2.69579 11.676 2.61706 11.676 2.54411H12.8808V2.45206C12.8808 2.33106 12.868 2.21585 12.8426 2.10701C12.8171 1.99816 12.7754 1.90206 12.7175 1.81869C12.6596 1.73532 12.5844 1.66932 12.4923 1.62011C12.4002 1.57148 12.2879 1.54658 12.1548 1.54658C12.0164 1.54716 11.8931 1.57379 11.7854 1.62648ZM9.9183 0.519531H9.52346V3.42527H9.9183V1.88932C10.0289 1.83837 10.1285 1.80479 10.2165 1.78858C10.3045 1.77237 10.3815 1.76427 10.448 1.76427C10.4886 1.76427 10.5221 1.77179 10.5488 1.78685C10.5754 1.8019 10.5962 1.821 10.6113 1.84474C10.6264 1.8679 10.6368 1.89511 10.6426 1.92464C10.6484 1.95474 10.6512 1.98369 10.6512 2.01264V3.42527H11.0484V1.95185C11.0484 1.81 11.016 1.70695 10.9517 1.64327C10.8875 1.57958 10.7937 1.54774 10.6709 1.54774C10.6211 1.54774 10.5702 1.55064 10.5175 1.55643C10.4648 1.56222 10.4075 1.57264 10.3461 1.58769C10.2848 1.60274 10.2188 1.62243 10.1487 1.64616C10.0781 1.67048 10.0017 1.70058 9.91772 1.73706V0.519531H9.9183ZM9.3353 1.58422H9.0713V0.870952L8.69556 0.984426V1.58422H8.44141V1.76022H8.69556V3.42527H9.0713V1.76022H9.3353V1.58422Z" fill="white"></path></g><defs><clipPath id="clip0_2345_5279"><rect width="81.2263" height="22" fill="white" transform="translate(0.567383 0.5)"></rect></clipPath></defs></svg> 