<?xml version="1.0" encoding="UTF-8"?> <svg xmlns="http://www.w3.org/2000/svg" xmlns:xlink="http://www.w3.org/1999/xlink" version="1.1" width="32" height="32"><svg xmlns="http://www.w3.org/2000/svg" width="32" height="32" viewBox="0 0 32 32" fill="none"><path fill-rule="evenodd" clip-rule="evenodd" d="M4.75486 7.89551C3.48697 7.89551 2.45752 8.96063 2.45752 10.2725C2.45752 11.5844 3.48697 12.6495 4.75486 12.6495C6.02282 12.6495 7.05227 11.5844 7.05227 10.2725C7.05227 8.96063 6.02282 7.89551 4.75486 7.89551ZM4.75485 11.1896C4.26596 11.1896 3.86849 10.7783 3.86849 10.2725C3.86849 9.76667 4.26596 9.35543 4.75485 9.35543C5.2438 9.35543 5.64127 9.76667 5.64127 10.2725C5.64127 10.7783 5.2438 11.1896 4.75485 11.1896Z" fill="white"></path><path d="M22.5051 15.6064V10.8976H27.9028V8.52884H20.0129V24.954H27.9028V22.5852H22.5051V17.8805H27.2986V15.6064H22.5051Z" fill="white"></path><path d="M17.8307 24.954V8.52884H15.4062V19.5091L10.6802 8.52884H8.10458V24.954H10.5292V13.9737L15.2552 24.954H17.8307Z" fill="white"></path></svg><style>@media (prefers-color-scheme: light) { :root { filter: contrast(1) brightness(0.1); } } @media (prefers-color-scheme: dark) { :root { filter: contrast(0.3846153846153846) brightness(4.5); } } </style></svg> 