<?xml version="1.0" encoding="UTF-8"?> <svg xmlns="http://www.w3.org/2000/svg" width="1064" height="210" viewBox="0 0 1064 210" fill="none"><path d="M582.995 124.178C591.701 118.815 598.628 111.275 603.684 101.661C608.739 92.0456 611.313 81.6217 611.313 70.4891C611.313 58.7494 608.879 48.1229 603.965 38.6096C599.05 29.0964 592.263 21.5566 583.557 16.0915C574.851 10.6265 564.974 7.84347 553.928 7.84347H508.806V209.949H538.201V132.275H554.77C555.239 132.275 555.66 132.275 556.128 132.275L584.68 210H615.666L582.714 124.482C582.714 124.482 582.948 124.33 583.089 124.28L582.995 124.178ZM552.805 35.8266C558.141 35.8266 563.055 37.3446 567.502 40.2795C571.949 43.265 575.459 47.4651 578.034 52.8289C580.608 58.2434 581.919 64.2651 581.919 70.9952C581.919 77.7253 580.608 83.443 578.034 88.757C575.459 94.0702 571.949 98.1684 567.502 101.154C563.055 104.139 558.141 105.607 552.805 105.607H537.312V35.7253H552.805V35.8266ZM894.404 7.84347H922.951V209.949H895.429L836.966 70.4891V209.949H808.419V7.84347H835.941L894.404 146.747V7.84347ZM1053.92 57.0795C1047.22 41.7975 1038.05 29.7542 1026.3 21C1014.55 12.2458 1001.36 7.84347 986.797 7.84347H951.037V209.949H986.797C1001.59 209.949 1014.79 205.597 1026.45 196.793C1038.09 188.039 1047.27 175.945 1053.97 160.561C1060.66 145.178 1063.98 127.923 1063.98 108.896C1063.98 89.8702 1060.66 72.3614 1053.97 57.0795H1053.92ZM1028.69 146.139C1024.76 157.12 1019.33 165.723 1012.4 171.997C1005.47 178.273 997.702 181.359 989.183 181.359H979.592V36.4338H989.183C997.749 36.4338 1005.47 39.5711 1012.4 45.7953C1019.33 52.07 1024.76 60.6723 1028.69 71.6531C1032.62 82.6334 1034.59 95.0316 1034.59 108.896C1034.59 122.761 1032.62 135.159 1028.69 146.139ZM648.197 0C633.266 0 621.143 13.1061 621.143 29.2482C621.143 45.3904 633.266 58.4964 648.197 58.4964C663.128 58.4964 675.251 45.3904 675.251 29.2482C675.251 13.1061 663.128 0 648.197 0ZM648.197 40.5325C642.44 40.5325 637.759 35.4723 637.759 29.2482C637.759 23.0241 642.44 17.9639 648.197 17.9639C653.955 17.9639 658.635 23.0241 658.635 29.2482C658.635 35.4723 653.955 40.5325 648.197 40.5325ZM169.598 36.9904V94.8798H226.047V122.862H169.598V180.752H233.162V209.899H140.25V7.79281H233.162V36.9398H169.598V36.9904ZM421.793 36.9904V94.8798H478.242V122.862H421.793V180.752H485.356V209.899H392.445V7.79281H485.356V36.9398H421.793V36.9904ZM723.135 36.9904V94.8798H779.584V122.862H723.135V180.752H786.701V209.899H693.787V7.79281H786.701V36.9398H723.135V36.9904ZM114.553 209.899H113.571H84.2232L28.5697 74.7903V209.899H0.0175781V7.79281H30.3484L86.0015 142.901V7.79281H114.553V209.899ZM293.402 209.696L246.83 7.84347H277.909L312.406 162.433L346.903 7.84347H377.982L331.409 209.696H293.309H293.402Z" fill="url(#paint0_linear_2049_4566)"></path><defs><linearGradient id="paint0_linear_2049_4566" x1="531.999" y1="0" x2="531.999" y2="210" gradientUnits="userSpaceOnUse"><stop stop-color="white"></stop><stop offset="1" stop-color="#1F1F1F"></stop></linearGradient></defs></svg> 